<svg width="12" height="12" viewBox="0 0 12 12" fill="none" xmlns="http://www.w3.org/2000/svg">
<path fill-rule="evenodd" clip-rule="evenodd" d="M2.5 1.5L9.5 1.5C10.05 1.5 10.5 1.9455 10.5 2.50111L10.5 9.5089C10.5 10.0595 10.05 10.5 9.5 10.5L2.5 10.5C1.95 10.5 1.5 10.0595 1.5 9.5089L1.5 8.00167L2.5 8.00167L2.5 9.5139L9.5 9.5139L9.5 2.4911L2.5 2.4911L2.5 3.99833L1.5 3.99833L1.5 2.50111C1.5 1.9505 1.95 1.5 2.5 1.5ZM8.5 6L6.5 8.00222L6.5 6.50056L1.5 6.50056L1.5 5.49944L6.5 5.49944L6.5 3.99778L8.5 6Z" fill="black"/>
</svg>
