<svg width="12" height="12" viewBox="0 0 12 12" fill="none" xmlns="http://www.w3.org/2000/svg">
<path d="M8 5.5C8.83 5.5 9.495 4.83 9.495 4C9.495 3.17 8.83 2.5 8 2.5C7.17 2.5 6.5 3.17 6.5 4C6.5 4.83 7.17 5.5 8 5.5ZM4 5.5C4.83 5.5 5.495 4.83 5.495 4C5.495 3.17 4.83 2.5 4 2.5C3.17 2.5 2.5 3.17 2.5 4C2.5 4.83 3.17 5.5 4 5.5ZM4 6.5C2.835 6.5 0.5 7.085 0.5 8.25V9.5H7.5V8.25C7.5 7.085 5.165 6.5 4 6.5ZM8 6.5C7.855 6.5 7.69 6.51 7.515 6.525C8.095 6.945 8.5 7.51 8.5 8.25V9.5H11.5V8.25C11.5 7.085 9.165 6.5 8 6.5Z" fill="black"/>
</svg>
