<svg width="12" height="12" viewBox="0 0 12 12" fill="none" xmlns="http://www.w3.org/2000/svg">
<path d="M4.3397 5.46388C4.25092 4.53232 3.60287 4 2.724 4C1.75458 4 1 4.71293 1 6C1 7.28137 1.73683 8 2.724 8C3.72182 8 4.274 7.27376 4.3397 6.58365L3.45195 6.57795C3.38981 6.95247 3.12704 7.17491 2.74176 7.17491C2.22331 7.17491 1.89662 6.77376 1.89662 6C1.89662 5.25665 2.21621 4.8251 2.74708 4.8251C3.14657 4.8251 3.40756 5.07414 3.45195 5.46388H4.3397Z" fill="black"/>
<path d="M6.80807 5.22053H7.64965C7.64255 4.4924 7.10102 4 6.25589 4C5.42496 4 4.82662 4.48479 4.83195 5.20913C4.83017 5.80038 5.21723 6.13308 5.84575 6.28707L6.22571 6.38213C6.62519 6.48099 6.80452 6.59696 6.80807 6.81559C6.80452 7.05323 6.59679 7.21863 6.24346 7.21863C5.85463 7.21863 5.59896 7.02471 5.57943 6.65019H4.73785C4.7485 7.56084 5.33974 7.9962 6.25412 7.9962C7.15962 7.9962 7.69581 7.55703 7.69936 6.81749C7.69581 6.19582 7.30343 5.81559 6.58613 5.64639L6.27365 5.57034C5.94341 5.4943 5.7339 5.37643 5.741 5.14449C5.74278 4.93156 5.91322 4.77757 6.25412 4.77757C6.59679 4.77757 6.78499 4.94297 6.80807 5.22053Z" fill="black"/>
<path d="M10.1087 5.22053H10.9503C10.9432 4.4924 10.4017 4 9.55653 4C8.7256 4 8.12726 4.48479 8.13258 5.20913C8.13081 5.80038 8.51787 6.13308 9.14639 6.28707L9.52634 6.38213C9.92583 6.48099 10.1052 6.59696 10.1087 6.81559C10.1052 7.05323 9.89742 7.21863 9.5441 7.21863C9.15527 7.21863 8.89959 7.02471 8.88006 6.65019H8.03848C8.04914 7.56084 8.64037 7.9962 9.55475 7.9962C10.4602 7.9962 10.9964 7.55703 11 6.81749C10.9964 6.19582 10.6041 5.81559 9.88677 5.64639L9.57428 5.57034C9.24404 5.4943 9.03453 5.37643 9.04163 5.14449C9.04341 4.93156 9.21386 4.77757 9.55475 4.77757C9.89742 4.77757 10.0856 4.94297 10.1087 5.22053Z" fill="black"/>
</svg>
