<svg width="12" height="12" viewBox="0 0 12 12" fill="none" xmlns="http://www.w3.org/2000/svg">
<g clip-path="url(#clip0_2_298)">
<path d="M6 1C3.24 1 1 3.24 1 6C1 8.76 3.24 11 6 11H8.5V10H6C3.83 10 2 8.17 2 6C2 3.83 3.83 2 6 2C8.17 2 10 3.83 10 6V6.715C10 7.11 9.645 7.5 9.25 7.5C8.855 7.5 8.5 7.11 8.5 6.715V6C8.5 4.62 7.38 3.5 6 3.5C4.62 3.5 3.5 4.62 3.5 6C3.5 7.38 4.62 8.5 6 8.5C6.69 8.5 7.32 8.22 7.77 7.765C8.095 8.21 8.655 8.5 9.25 8.5C10.235 8.5 11 7.7 11 6.715V6C11 3.24 8.76 1 6 1ZM6 7.5C5.17 7.5 4.5 6.83 4.5 6C4.5 5.17 5.17 4.5 6 4.5C6.83 4.5 7.5 5.17 7.5 6C7.5 6.83 6.83 7.5 6 7.5Z" fill="black"/>
</g>
<defs>
<clipPath id="clip0_2_298">
<rect width="12" height="12" fill="white"/>
</clipPath>
</defs>
</svg>
