<svg width="12" height="12" viewBox="0 0 12 12" fill="none" xmlns="http://www.w3.org/2000/svg">
<path d="M4.68557 4.05348H5.58763V6.7246C5.58763 6.97237 5.53179 7.1934 5.4201 7.3877C5.31014 7.582 5.1555 7.73262 4.95619 7.83957C4.75859 7.94652 4.5378 8 4.29381 8C3.88488 8 3.56701 7.89305 3.34021 7.67914C3.1134 7.46524 3 7.16221 3 6.77005H3.90722C3.90722 6.94831 3.93643 7.07754 3.99485 7.15775C4.05498 7.23797 4.15464 7.27807 4.29381 7.27807C4.41924 7.27807 4.51546 7.22995 4.58247 7.13369C4.6512 7.03565 4.68557 6.89929 4.68557 6.7246V4.05348Z" fill="black"/>
<path d="M8.09536 6.91176C8.09536 6.77451 8.04811 6.66756 7.95361 6.59091C7.86082 6.51426 7.69674 6.43494 7.46134 6.35294C7.22594 6.27094 7.03351 6.19162 6.88402 6.11497C6.39777 5.8672 6.15464 5.52674 6.15464 5.09358C6.15464 4.8779 6.21478 4.68806 6.33505 4.52406C6.45704 4.35829 6.62887 4.22995 6.85052 4.13904C7.07217 4.04635 7.32131 4 7.59794 4C7.8677 4 8.10911 4.04991 8.32217 4.14973C8.53694 4.24955 8.70361 4.39216 8.82217 4.57754C8.94072 4.76114 9 4.97148 9 5.20856H8.09794C8.09794 5.04991 8.05069 4.92692 7.95619 4.83957C7.8634 4.75223 7.73711 4.70856 7.57732 4.70856C7.41581 4.70856 7.2878 4.74599 7.1933 4.82086C7.10052 4.89394 7.05412 4.98752 7.05412 5.1016C7.05412 5.20143 7.10567 5.29234 7.20876 5.37433C7.31186 5.45455 7.49313 5.53832 7.75258 5.62567C8.01203 5.71123 8.22509 5.80392 8.39175 5.90374C8.79725 6.14617 9 6.48039 9 6.90642C9 7.24688 8.87629 7.51426 8.62887 7.70856C8.38144 7.90285 8.0421 8 7.61082 8C7.3067 8 7.03093 7.94385 6.78351 7.83155C6.5378 7.71747 6.35223 7.56239 6.2268 7.36631C6.10309 7.16845 6.04124 6.94118 6.04124 6.68449H6.94845C6.94845 6.89305 7 7.04724 7.10309 7.14706C7.2079 7.2451 7.37715 7.29412 7.61082 7.29412C7.76031 7.29412 7.87801 7.26114 7.96392 7.19519C8.05155 7.12745 8.09536 7.03298 8.09536 6.91176Z" fill="black"/>
</svg>
