<svg width="160" height="160" viewBox="0 0 160 160" fill="none" xmlns="http://www.w3.org/2000/svg">
<path d="M130.97 131.41H25.21C20.38 131.41 20 127.15 20 125.84V54.57L20.19 41.56C20.21 40.37 20.67 39.24 21.48 38.38L28.24 31.19C29.09 29.85 30.61 29 32.42 29H77.38C78.97 29 80.45 29.79 81.33 31.11L84.44 35.78C85.14 36.82 86.3 37.45 87.56 37.45H135.53C139.06 37.45 141 39.34 141 42.78V118.93C141 120.29 140.63 121.39 139.91 122.21L134.85 129.4C133.96 130.66 132.51 131.41 130.97 131.41ZM28.82 130.41H130.97C132.19 130.41 133.33 129.82 134.03 128.82L137.79 123.48C137.27 123.63 136.7 123.7 136.09 123.7L35.19 123.69L28.82 130.41ZM21 124.19V125.84C21 127.55 21.54 130.41 25.2 130.41H27.43L33.8 123.69C33.3 123.69 32.8 123.69 32.6 123.69C29.32 123.69 27.51 121.46 27.51 117.4V117.23L21 124.2V124.19ZM34.97 123.18V122.68H136.09C136.85 122.69 138.25 122.55 139.14 121.56C139.71 120.93 140 120.05 140 118.93V47.18H28.52V117.39C28.52 120.9 29.9 122.68 32.62 122.68C33.03 122.68 34.56 122.68 34.98 122.68V123.18H34.97ZM21 54.77V122.72L27.51 115.75V47.93L21 54.77ZM27.53 33.42L22.21 39.07C21.57 39.75 21.21 40.64 21.19 41.58L21.02 53.3L27.52 46.48V33.77C27.52 33.65 27.52 33.54 27.53 33.42ZM28.52 46.18H140.01V42.78C140.01 39.91 138.5 38.45 135.54 38.45H87.57C85.98 38.45 84.5 37.66 83.62 36.34L80.51 31.67C79.81 30.63 78.65 30 77.39 30H32.43C30.53 30 28.52 31.32 28.52 33.77V46.19V46.18Z" fill="#111111"/>
<path d="M84.1408 98.51L70.8008 84.76L71.5208 84.06L84.0008 96.93V66.5H85.0008V96.93L97.4708 84.06L98.1908 84.76L84.8508 98.51L84.5008 98.17L84.1408 98.51Z" fill="#111111"/>
<path d="M97.8302 103.67H71.1602V104.67H97.8302V103.67Z" fill="black"/>
</svg>
