<?xml version="1.0" encoding="UTF-8"?>
<svg id="_Слой_1" data-name="Слой 1" xmlns="http://www.w3.org/2000/svg" version="1.1" viewBox="0 0 160 160">
  <defs>
    <style>
      .cls-1 {
        fill: #000;
      }

      .cls-1, .cls-2 {
        stroke-width: 0px;
      }

      .cls-2 {
        fill: #111;
      }
    </style>
  </defs>
  <path class="cls-2" d="M121.8,12.5v.5h.5v-.5h-.5ZM121.8,20.4v.5h.5v-.5h-.5ZM51.2,73.6h1c4.9-33.8,33.9-59.8,69-60.1.2,0,.3,0,.5,0v-1c-35.9,0-65.6,26.5-70.5,61.1ZM121.2,13v7.5h1v-7.5h-1ZM121.2,20c-31.5.2-57.6,23.4-62.5,53.6h1c4.8-29.7,30.5-52.4,61.5-52.6.2,0,.3,0,.5,0v-1c-.2,0-.3,0-.5,0Z"/>
  <path class="cls-2" d="M121.8,19.9v.5h.5v-.5h-.5ZM121.8,27.9v.5h.5v-.5h-.5ZM121.2,20c-31.5.2-57.6,23.4-62.5,53.6h1c4.8-29.7,30.5-52.4,61.5-52.6.2,0,.3,0,.5,0v-1c-.2,0-.3,0-.5,0ZM121.2,20.4v-.5c-31.5.2-57.6,23.4-62.5,53.6h1c4.8-29.7,30.5-52.4,61.5-52.6v6.9h1v-7.5h-1ZM121.2,27.4c-27.4.2-50.2,20.1-54.9,46.2h1c4.8-25.5,27-44.9,53.9-45.2.2,0,.3,0,.5,0v-1c-.2,0-.3,0-.5,0Z"/>
  <path class="cls-2" d="M121.8,27.4v.5h.5v-.5h-.5ZM121.8,35.3v.5h.5v-.5h-.5ZM121.2,27.4c-27.4.2-50.2,20.1-54.9,46.2h1c4.8-25.5,27-44.9,53.9-45.2.2,0,.3,0,.5,0v-1c-.2,0-.3,0-.5,0ZM121.2,27.9v-.5c-27.4.2-50.2,20.1-54.9,46.2h1c4.8-25.5,27-44.9,53.9-45.2v6.9h1v-7.4h-1ZM121.2,34.8c-23.3.2-42.7,16.8-47.3,38.7h1c4.6-21.4,23.6-37.5,46.3-37.7.2,0,.3,0,.5,0v-1c-.2,0-.3,0-.5,0Z"/>
  <path class="cls-2" d="M121.8,34.8v.5h.5v-.5h-.5ZM121.8,42.8v.5h.5v-.5h-.5ZM121.2,34.8c-23.3.2-42.7,16.8-47.3,38.7h1c4.6-21.4,23.6-37.5,46.3-37.7.2,0,.3,0,.5,0v-1c-.2,0-.3,0-.5,0ZM121.2,35.3v-.5c-23.3.2-42.7,16.8-47.3,38.7h1c4.6-21.4,23.6-37.5,46.3-37.7v6.9h1v-7.5h-1ZM121.2,42.3c-20.2.2-37,14.9-40.3,34.2l.8,1.2c2.9-19.3,19.4-34.2,39.5-34.5h.5v-1h-.5Z"/>
  <path class="cls-2" d="M121.8,42.3v.5h.5v-.5h-.5ZM121.8,50.2v.5h.5v-.5h-.5ZM121.2,42.3c-20.2.2-37,14.9-40.3,34.2l.8,1.2c2.9-19.3,19.4-34.2,39.5-34.5h.5v-1h-.5ZM121.2,42.8v-.5c-20.2.2-37,14.9-40.3,34.2l.8,1.2c2.9-19.3,19.4-34.2,39.5-34.5v6.9h1v-7.4h-1ZM121.2,49.7c-17.2.2-31.3,13.2-33.3,30h1c2-16.2,15.6-28.7,32.3-29,.2,0,.3,0,.5,0v-1c-.2,0-.3,0-.5,0Z"/>
  <path class="cls-2" d="M121.8,57.2v.5h.5v-.5h-.5ZM121.8,65.1v.5h.5v-.5h-.5ZM121.2,57.2c-13.1.2-23.8,9.9-25.8,22.5h1c1.9-12,12.2-21.3,24.7-21.5.2,0,.3,0,.5,0v-1c-.2,0-.3,0-.5,0ZM121.2,57.7v7.4h1v-7.4h-1ZM95.5,79.7h1c1.9-12,12.2-21.3,24.7-21.5v-1c-13.1.2-23.8,9.9-25.8,22.5ZM121.8,65.1v-.5c-.2,0-.3,0-.5,0-8.7.3-15.9,6.7-17.7,15.1h1c1.8-8,8.8-14,17.2-14.1v-.5h0Z"/>
  <path class="cls-2" d="M121.8,49.7v.5h.5v-.5h-.5ZM121.8,57.7v.5h.5v-.5h-.5ZM121.2,49.7c-17.2.2-31.3,13.2-33.3,30h1c2-16.2,15.6-28.7,32.3-29,.2,0,.3,0,.5,0v-1c-.2,0-.3,0-.5,0ZM121.2,50.2v-.5c-17.2.2-31.3,13.2-33.3,30h1c2-16.2,15.6-28.7,32.3-29v6.9h1v-7.5h-1ZM121.2,57.2c-13.1.2-23.8,9.9-25.8,22.5h1c1.9-12,12.2-21.3,24.7-21.5.2,0,.3,0,.5,0v-1c-.2,0-.3,0-.5,0Z"/>
  <path class="cls-2" d="M115.6,147.7H39.4c-3.6,0-3.9-3.2-3.9-4.2v-51.7h.5-.5s.1-9,.1-9c0-1.2.5-2.3,1.3-3.2l4.6-4.9.7.7-4.6,4.9c-.6.7-1,1.6-1,2.5v7.7c-.1,0,4.5-4.8,4.5-4.8l.4.3h.5v51.3c0,3.7,2.1,3.7,2.8,3.7h1.7v.5-.5h73.4c.5,0,1.5,0,2.1-.8l.4.3-.4-.3c.4-.4.6-1,.6-1.8v-52.5h1v52.5c0,1-.3,1.8-.8,2.5l-3.3,4.7c-.9,1.3-2.3,2-3.9,2ZM42.4,146.7h73.2c1.2,0,2.4-.6,3.1-1.6l2.2-3.1c-.3,0-.6,0-.9,0h-3.7s-69.5,0-69.5,0l-4.4,4.6ZM36.5,142.4v1.1c0,1.2.4,3.2,2.9,3.2h1.6l4.4-4.6h-.5c-2.4,0-3.8-1.6-3.8-4.5l-4.5,4.8ZM36.5,92v48.9l4.5-4.8v-48.8l-4.5,4.7Z"/>
  <path class="cls-2" d="M123.6,86.5H41v-9.9c0-.7.2-1.4.6-1.9.7-1,1.8-1.7,3.1-1.7h32c1.6,0,3.1.8,3.9,2.1l1.5,2.3c.7,1.1,1.9,1.7,3.2,1.7h34.2c2.7,0,4.1,1.4,4.1,4v3.3ZM42,85.5h80.7v-2.3c0-2-1-3-3.1-3h-34.2c-1.6,0-3.1-.8-3.9-2.1l-1.6-2.4c-.7-1-1.9-1.7-3.1-1.7h-32c-1,0-1.8.5-2.3,1.2-.3.4-.4.9-.4,1.4v8.9Z"/>
  <rect class="cls-1" x="80.8" y="100" width="1" height="26.5"/>
  <rect class="cls-1" x="68" y="112.8" width="26.5" height="1"/>
</svg>