<svg width="160" height="160" viewBox="0 0 160 160" fill="none" xmlns="http://www.w3.org/2000/svg">
<path d="M55.51 114C35.93 114 20 98.52 20 79.5C20 60.48 35.93 45 55.51 45C64.62 45 72.94 48.35 79.24 53.86C79.48 53.64 79.73 53.41 79.99 53.19C73.51 47.48 64.93 44 55.51 44C35.38 44 19 59.93 19 79.5C19 99.07 35.38 115 55.51 115C64.93 115 73.51 111.52 79.99 105.81C79.73 105.59 79.48 105.36 79.24 105.14C72.94 110.65 64.62 114 55.51 114Z" fill="#111111"/>
<path d="M141 79.5C141 99.11 124.65 115 104.49 115C95.0605 115 86.46 111.53 79.99 105.81C79.73 105.59 79.48 105.36 79.24 105.14C72.3 98.67 67.9805 89.58 67.9805 79.5C67.9805 69.42 72.3 60.33 79.24 53.86C79.48 53.64 79.73 53.41 79.99 53.19C86.46 47.47 95.0605 44 104.49 44C124.65 44 141 59.89 141 79.5Z" fill="#111111"/>
</svg>
