<svg width="12" height="12" viewBox="0 0 12 12" fill="none" xmlns="http://www.w3.org/2000/svg">
<path fill-rule="evenodd" clip-rule="evenodd" d="M9 1H8V4H4V8H1V9H4V12H12V4H9V1ZM5 5V11H11V5H5Z" fill="#333333"/>
<path fill-rule="evenodd" clip-rule="evenodd" d="M0 2.5V1.5H0.5V2.5H0ZM0 1H0.5V0.5H1V0H0V1ZM2.5 0H1.5V0.5H2.5V0ZM0 11V12H1V11.5H0.5V11H0ZM12 1V0H11V0.5H11.5V1H12ZM3.5 0V0.5H4.5V0H3.5ZM5.5 0V0.5H6.5V0H5.5ZM7.5 0V0.5H8.5V0H7.5ZM9.5 0V0.5H10.5V0H9.5ZM12 2H11.5V3H12V2ZM2.5 12V11.5H1.5V12H2.5ZM0 10.5H0.5V9.5H0V10.5ZM0 8.5H0.5V7.5H0V8.5ZM0 6.5H0.5V5.5H0V6.5ZM0 4.5H0.5V3.5H0V4.5Z" fill="#333333"/>
</svg>
