<svg width="12" height="12" viewBox="0 0 12 12" fill="none" xmlns="http://www.w3.org/2000/svg">
<path fill-rule="evenodd" clip-rule="evenodd" d="M2.5 12H1.5V11.5H2.5V12ZM0.5 12H0V11.5H0.5V12ZM0 9.5V10.5H0.5V9.5H0ZM0 8.5H0.5L0.500001 7.5H9.53674e-07L0 8.5ZM9.53674e-07 6.5H0.500001V5.5H9.53674e-07V6.5ZM9.53674e-07 4.5H0.500001V3.5H9.53674e-07V4.5ZM9.53674e-07 2.5H0.500001V1.5H9.53674e-07V2.5ZM1.90735e-06 0.5H0.500002V1.19209e-07L1.90735e-06 0V0.5ZM1.5 2.38419e-07V0.5L2.5 0.5V3.57628e-07L1.5 2.38419e-07ZM3.5 4.76837e-07V0.5L4.5 0.500001V5.96046e-07L3.5 4.76837e-07ZM5.5 7.15256e-07V0.500001L6.5 0.500001V8.34465e-07L5.5 7.15256e-07ZM7.5 9.53674e-07V0.500001L8.5 0.500001V1.07288e-06L7.5 9.53674e-07ZM9.5 1.19209e-06V0.500001L10.5 0.500001V1.43051e-06L9.5 1.19209e-06ZM11.5 1.54972e-06V0.500001L12 0.500002V1.54972e-06H11.5ZM12 1.5H11.5V2.5L12 2.5V1.5ZM12 3.5L11.5 3.5V4.5H12V3.5ZM12 5.5H11.5V6.5H12V5.5ZM12 7.5H11.5V8.5H12V7.5ZM12 9.5H11.5V10.5H12V9.5ZM12 11.5H11.5V12H12V11.5ZM10.5 12V11.5H9.5V12H10.5ZM8.5 12V11.5H7.5V12H8.5ZM6.5 12V11.5H5.5V12H6.5ZM4.5 12V11.5L3.5 11.5V12L4.5 12Z" fill="black"/>
<path fill-rule="evenodd" clip-rule="evenodd" d="M5 5V3L3 3V5H5ZM6 2L2 2L2 6H6V2Z" fill="black"/>
<path fill-rule="evenodd" clip-rule="evenodd" d="M5 8V6H3V8H5ZM6 5L2 5L2 9H6V5Z" fill="black"/>
<path fill-rule="evenodd" clip-rule="evenodd" d="M8 5V3L6 3V5H8ZM9 2L5 2V6H9V2Z" fill="black"/>
</svg>
