<svg width="12" height="12" viewBox="0 0 12 12" fill="none" xmlns="http://www.w3.org/2000/svg">
<path fill-rule="evenodd" clip-rule="evenodd" d="M-0.000122551 11.0001L11.9999 11.0001L11.9999 12.0001L-0.000122595 12.0001L-0.000122551 11.0001ZM2.99988 8.00012L2.99988 9.00012L3.99988 9.00012L3.99988 8.50012L3.49988 8.50012L3.49988 8.00012L2.99988 8.00012ZM4.49988 9.00012L5.49988 9.00012L5.49988 8.00012L4.49988 8.00012L4.49988 9.00012ZM6.49988 9.00012L7.49988 9.00012L7.49988 8.00012L6.49988 8.00012L6.49988 9.00012ZM7.99988 9.00012L8.99988 9.00012L8.99988 8.00012L8.49988 8.00012L8.49988 8.50012L7.99988 8.50012L7.99988 9.00012ZM8.99988 7.50012L8.99988 6.50012L7.99988 6.50012L7.99988 7.50012L8.99988 7.50012ZM8.99988 5.50012L8.99988 4.50012L7.99988 4.50012L7.99988 5.50012L8.99988 5.50012ZM8.99988 4.00012L8.99988 3.00012L7.99988 3.00012L7.99988 3.50012L8.49988 3.50012L8.49988 4.00012L8.99988 4.00012ZM7.49988 3.00012L6.49988 3.00012L6.49988 4.00012L7.49988 4.00012L7.49988 3.00012ZM5.49988 3.00012L4.49988 3.00012L4.49988 4.00012L5.49988 4.00012L5.49988 3.00012ZM3.99988 3.00012L2.99988 3.00012L2.99988 4.00012L3.49988 4.00012L3.49988 3.50012L3.99988 3.50012L3.99988 3.00012ZM2.99988 4.50012L2.99988 5.50012L3.99988 5.50012L3.99988 4.50012L2.99988 4.50012ZM2.99988 6.50012L2.99988 7.50012L3.99988 7.50012L3.99988 6.50012L2.99988 6.50012Z" fill="black"/>
<path d="M-0.000122595 12.0001L-0.000122551 11.0001L11.9999 11.0001L11.9999 12.0001L-0.000122595 12.0001Z" fill="black"/>
<path d="M-0.000122114 1.00012L-0.00012207 0.000121546L11.9999 0.00012207L11.9999 1.00012L-0.000122114 1.00012Z" fill="black"/>
</svg>
