<svg width="12" height="12" viewBox="0 0 12 12" fill="none" xmlns="http://www.w3.org/2000/svg">
<path fill-rule="evenodd" clip-rule="evenodd" d="M-0.00091544 11L11.9991 11L11.9991 12L-0.000915527 12L-0.00091544 11ZM2.99908 8L2.99908 9L3.99908 9L3.99908 8.5L3.49908 8.5L3.49908 8L2.99908 8ZM4.49908 9L5.49908 9L5.49908 8L4.49908 8L4.49908 9ZM6.49908 9L7.49908 9L7.49908 8L6.49908 8L6.49908 9ZM7.99908 9L8.99908 9L8.99908 8L8.49908 8L8.49908 8.5L7.99908 8.5L7.99908 9ZM8.99908 7.5L8.99908 6.5L7.99908 6.5L7.99908 7.5L8.99908 7.5ZM8.99908 5.5L8.99908 4.5L7.99908 4.5L7.99908 5.5L8.99908 5.5ZM8.99908 4L8.99908 3L7.99908 3L7.99908 3.5L8.49908 3.5L8.49908 4L8.99908 4ZM7.49908 3L6.49908 3L6.49909 4L7.49908 4L7.49908 3ZM5.49908 3L4.49908 3L4.49908 4L5.49908 4L5.49908 3ZM3.99908 3L2.99908 3L2.99908 4L3.49908 4L3.49908 3.5L3.99908 3.5L3.99908 3ZM2.99908 4.5L2.99908 5.5L3.99908 5.5L3.99908 4.5L2.99908 4.5ZM2.99908 6.5L2.99908 7.5L3.99908 7.5L3.99908 6.5L2.99908 6.5Z" fill="black"/>
<path d="M-0.000915527 12L-0.00091544 11L11.9991 11L11.9991 12L-0.000915527 12Z" fill="black"/>
<path d="M9.61651e-07 0.999999L1.04907e-06 -1.04907e-06L12 -9.53674e-07L12 0.999999L9.61651e-07 0.999999Z" fill="black"/>
</svg>
