<svg width="12" height="12" viewBox="0 0 12 12" fill="none" xmlns="http://www.w3.org/2000/svg">
<path fill-rule="evenodd" clip-rule="evenodd" d="M12 0V1H0V0H12Z" fill="#111111"/>
<path fill-rule="evenodd" clip-rule="evenodd" d="M2.5 12H1.5V11.5H2.5V12ZM0.5 12H0V11.5H0.5V12ZM0 9.5V10.5H0.5V9.5H0ZM0 8.5H0.5L0.500001 7.5H9.53674e-07L0 8.5ZM9.53674e-07 6.5H0.500001V5.5H9.53674e-07V6.5ZM9.53674e-07 4.5H0.500001V3.5H9.53674e-07V4.5ZM9.53674e-07 2.5H0.500001V1.5H9.53674e-07V2.5ZM12 1.5H11.5V2.5L12 2.5V1.5ZM12 3.5L11.5 3.5V4.5H12V3.5ZM12 5.5H11.5V6.5H12V5.5ZM12 7.5H11.5V8.5H12V7.5ZM12 9.5H11.5V10.5H12V9.5ZM12 11.5H11.5V12H12V11.5ZM10.5 12V11.5H9.5V12H10.5ZM8.5 12V11.5H7.5V12H8.5ZM6.5 12V11.5H5.5V12H6.5ZM4.5 12V11.5L3.5 11.5V12L4.5 12Z" fill="#111111"/>
</svg>
