<svg width="12" height="12" viewBox="0 0 12 12" fill="none" xmlns="http://www.w3.org/2000/svg">
<path d="M10.5639 2.03305C9.09391 2.58305 7.54891 2.85305 6.00391 2.85305C4.45891 2.85305 2.91391 2.57805 1.44391 2.03305C1.38891 2.01305 1.33391 2.00305 1.28891 2.00305C1.11891 2.00305 1.00391 2.11805 1.00391 2.31805L1.00391 9.68805C1.00391 9.88805 1.11891 10.003 1.28891 10.003C1.33891 10.003 1.38891 9.99305 1.44391 9.97305C2.91391 9.42305 4.45891 9.14805 6.00391 9.14805C7.54891 9.14805 9.09391 9.42305 10.5639 9.96805C10.6189 9.99305 10.6739 10.003 10.7189 10.003C10.8839 10.003 11.0039 9.88805 11.0039 9.68805L11.0039 2.31305C11.0039 2.11805 10.8839 1.99805 10.7189 1.99805C10.6689 2.00305 10.6189 2.01305 10.5639 2.03305ZM10.0039 8.73305C8.70391 8.34805 7.36391 8.15305 6.00391 8.15305C4.64391 8.15305 3.30391 8.34805 2.00391 8.73305L2.00391 3.27805C3.30391 3.66305 4.64391 3.85805 6.00391 3.85805C7.36391 3.85805 8.70391 3.66305 10.0039 3.27805L10.0039 8.73305Z" fill="#111111"/>
</svg>
