<svg width="12" height="12" viewBox="0 0 12 12" fill="none" xmlns="http://www.w3.org/2000/svg">
<path fill-rule="evenodd" clip-rule="evenodd" d="M1 5C1 2.79086 2.79086 1 5 1C6.6222 1 8.01886 1.96566 8.6465 3.35351C10.0343 3.98114 11 5.3778 11 7C11 9.20914 9.20914 11 7 11C5.3778 11 3.98114 10.0343 3.35351 8.6465C1.96566 8.01886 1 6.6222 1 5ZM3.00723 7.24256C2.38929 6.69305 2 5.89199 2 5C2 3.34315 3.34315 2 5 2C5.89199 2 6.69305 2.38929 7.24256 3.00723C7.71376 3.53712 8 4.23513 8 5C8 6.65685 6.65685 8 5 8C4.23513 8 3.53712 7.71376 3.00723 7.24256Z" fill="#111111"/>
</svg>
