<svg width="12" height="12" viewBox="0 0 12 12" fill="none" xmlns="http://www.w3.org/2000/svg">
<path fill-rule="evenodd" clip-rule="evenodd" d="M6 1C3.24 1 1 3.24 1 6C1 8.76 3.24 11 6 11C8.76 11 11 8.76 11 6C11 3.24 8.76 1 6 1ZM5.5 9.965C3.525 9.72 2 8.04 2 6C2 5.69 2.04 5.395 2.105 5.105L4.5 7.5V8C4.5 8.55 4.95 9 5.5 9V9.965ZM8 8C8.45 8 8.82 8.29 8.95 8.695C9.6 7.985 10 7.04 10 6C10 4.325 8.965 2.89 7.5 2.295V2.5C7.5 3.05 7.05 3.5 6.5 3.5H5.5V4.5C5.5 4.775 5.275 5 5 5H4V6H7C7.275 6 7.5 6.225 7.5 6.5V8H8Z" fill="#111111"/>
</svg>
