<svg width="12" height="12" viewBox="0 0 12 12" fill="none" xmlns="http://www.w3.org/2000/svg">
<path d="M10.9013 5.0625C10.9651 5.39681 11 5.74686 11 6.11245C11 8.96876 9.04869 11 6.10215 11C3.28326 11 1 8.76245 1 6C1 3.23755 3.28326 1 6.10215 1C7.47983 1 8.6308 1.49683 9.51428 2.3031L8.07586 3.71255V3.70933C7.54023 3.20929 6.86106 2.9531 6.10215 2.9531C4.41852 2.9531 3.05048 4.34683 3.05048 5.99693C3.05048 7.64669 4.41849 9.04379 6.10215 9.04379C7.62964 9.04379 8.66909 8.18748 8.88307 7.01255H6.10215V5.0625H10.9013Z" fill="#111111"/>
</svg>
