<svg width="12" height="12" viewBox="0 0 12 12" fill="none" xmlns="http://www.w3.org/2000/svg">
<path d="M5.40001 9.60003H6.60001V8.40002H5.40001V9.60003ZM6.00001 2.40002C4.67401 2.40002 3.60001 3.47402 3.60001 4.80002H4.80001C4.80001 4.14002 5.34001 3.60002 6.00001 3.60002C6.66001 3.60002 7.20001 4.14002 7.20001 4.80002C7.20001 6.00002 5.40001 5.85002 5.40001 7.80002H6.60001C6.60001 6.45002 8.40001 6.30002 8.40001 4.80002C8.40001 3.47402 7.32601 2.40002 6.00001 2.40002Z" fill="#111111"/>
<path fill-rule="evenodd" clip-rule="evenodd" d="M6 11C8.76142 11 11 8.76142 11 6C11 3.23858 8.76142 1 6 1C3.23858 1 1 3.23858 1 6C1 8.76142 3.23858 11 6 11ZM6 12C9.31371 12 12 9.31371 12 6C12 2.68629 9.31371 0 6 0C2.68629 0 0 2.68629 0 6C0 9.31371 2.68629 12 6 12Z" fill="#111111"/>
</svg>
