<svg width="12" height="12" viewBox="0 0 12 12" fill="none" xmlns="http://www.w3.org/2000/svg">
<path fill-rule="evenodd" clip-rule="evenodd" d="M6 2.25C6.725 1.7 7.775 1.5 8.75 1.5C9.685 1.5 10.755 1.69 11.5 2.25V9.55C11.5 9.68 11.33 9.88 11.125 9.775C10.425 9.4 9.575 9.25 8.75 9.25C7.9 9.25 6.675 9.575 6 10C5.275 9.45 4.225 9.25 3.25 9.25C2.525 9.25 1.55 9.475 0.875 9.8C0.875 9.8 0.871624 9.80054 0.867357 9.80141C0.813432 9.81238 0.5 9.87617 0.5 9.575V2.25C1.225 1.7 2.275 1.5 3.25 1.5C4.225 1.5 5.275 1.7 6 2.25ZM1.5 8.5C2.05 8.325 2.65 8.25 3.25 8.25C3.8838 8.25 4.83268 8.47491 5.5 8.74303V2.99303C4.83268 2.72491 3.8838 2.5 3.25 2.5C2.65 2.5 2.05 2.575 1.5 2.75V8.5ZM8.75 8.25C9.35 8.25 9.95 8.325 10.5 8.5V2.75C9.95 2.575 9.35 2.5 8.75 2.5C8.1162 2.5 7.16732 2.72491 6.5 2.99303V8.74303C7.16732 8.47491 8.1162 8.25 8.75 8.25Z" fill="#111111"/>
</svg>
