<svg width="12" height="12" viewBox="0 0 12 12" fill="none" xmlns="http://www.w3.org/2000/svg">
<g clip-path="url(#clip0_417_6020)">
<path d="M2.39616 2.10196C2.75064 2.40249 2.88568 2.38481 3.55524 2.33767L9.86829 1.94286C10.0033 1.94286 9.89079 1.80143 9.84578 1.77786L8.79923 0.982341C8.59667 0.817345 8.33223 0.634671 7.8202 0.67592L1.70972 1.14145C1.48465 1.16502 1.43964 1.28287 1.52967 1.37716L2.39616 2.10196ZM2.77315 3.63996V10.5934C2.77315 10.9646 2.9532 11.106 3.35269 11.0825L10.2903 10.6641C10.6898 10.6405 10.7348 10.3812 10.7348 10.0807V3.17444C10.7348 2.87391 10.6223 2.70891 10.3803 2.73248L3.13325 3.17444C2.86317 3.19801 2.77315 3.33943 2.77315 3.63996ZM9.62072 4.0171C9.66573 4.22924 9.62072 4.43548 9.41816 4.45905L9.08619 4.52977V9.66233C8.79361 9.82733 8.52916 9.92161 8.30409 9.92161C7.94962 9.92161 7.85959 9.80376 7.58951 9.45609L5.40077 5.86152V9.33823L6.09284 9.50323C6.09284 9.50323 6.09284 9.92161 5.53581 9.92161L3.99974 10.0159C3.95473 9.92161 3.99974 9.69179 4.15729 9.64465L4.55678 9.5268V4.93047L3.99974 4.88333C3.95473 4.67119 4.06726 4.37066 4.37673 4.34709L6.02532 4.22924L8.29847 7.87094V4.64762L7.71893 4.57691C7.67391 4.31763 7.85396 4.13495 8.0734 4.11138L9.62072 4.0171ZM1.19207 0.516816L7.55013 0.0277196C8.33223 -0.0429932 8.52916 0.0041492 9.0243 0.375391L11.0555 1.86625C11.3931 2.12553 11.5 2.19035 11.5 2.4732V10.6641C11.5 11.1768 11.3199 11.4832 10.6954 11.5303L3.3133 11.9959C2.84629 12.0194 2.62123 11.9487 2.37366 11.6246L0.876982 9.59162C0.606905 9.22038 0.5 8.93752 0.5 8.61342V1.33001C0.5 0.911629 0.680051 0.563958 1.19207 0.516816Z" fill="#111111"/>
</g>
<defs>
<clipPath id="clip0_417_6020">
<rect width="12" height="12" fill="white"/>
</clipPath>
</defs>
</svg>
