<svg width="12" height="12" viewBox="0 0 12 12" fill="none" xmlns="http://www.w3.org/2000/svg">
<g clip-path="url(#clip0_417_66826)">
<path d="M1.83333 11C1.59259 11 1.39352 10.9221 1.23611 10.7663C1.0787 10.6104 1 10.4133 1 10.175V1.925C1 1.68667 1.0787 1.48958 1.23611 1.33375C1.39352 1.17792 1.59259 1.1 1.83333 1.1H4.63889C4.7037 0.779167 4.86343 0.515625 5.11806 0.309375C5.37269 0.103125 5.66667 0 6 0C6.33333 0 6.62732 0.103125 6.88194 0.309375C7.13657 0.515625 7.2963 0.779167 7.36111 1.1H10.1667C10.4074 1.1 10.6065 1.17792 10.7639 1.33375C10.9213 1.48958 11 1.68667 11 1.925V10.175C11 10.4133 10.9213 10.6104 10.7639 10.7663C10.6065 10.9221 10.4074 11 10.1667 11H1.83333ZM2 10H10V2.00001H9V3.00001H3V2.00001H2V10ZM6 1.92501C6.15741 1.92501 6.28935 1.87229 6.39583 1.76688C6.50232 1.66146 6.55556 1.53083 6.55556 1.375C6.55556 1.21917 6.50232 1.08854 6.39583 0.983125C6.28935 0.877708 6.15741 0.825 6 0.825C5.84259 0.825 5.71065 0.877708 5.60417 0.983125C5.49769 1.08854 5.44444 1.21917 5.44444 1.375C5.44444 1.53083 5.49769 1.66146 5.60417 1.76688C5.71065 1.87229 5.84259 1.92501 6 1.92501Z" fill="#111111"/>
</g>
<defs>
<clipPath id="clip0_417_66826">
<rect width="12" height="12" fill="white"/>
</clipPath>
</defs>
</svg>
