<svg width="12" height="12" viewBox="0 0 12 12" fill="none" xmlns="http://www.w3.org/2000/svg">
<g clip-path="url(#clip0_417_26136)">
<path d="M3.78173 11.0081C4.04806 11.0793 4.32187 10.9212 4.39314 10.6542C4.46441 10.3879 4.30624 10.1141 4.0393 10.0428C2.94464 9.74963 2.07318 9.04069 1.54808 8.13112C1.02358 7.22275 0.846027 6.11315 1.13922 5.01846C1.43242 3.92381 2.14136 3.05234 3.05093 2.52724C3.9593 2.00274 5.0689 1.82519 6.16359 2.11838C7.25825 2.41158 8.12971 3.12052 8.65481 4.03009C9.17931 4.93846 9.35686 6.04806 9.06367 7.14275C8.9924 7.40908 9.15057 7.68289 9.4175 7.75416C9.68383 7.82543 9.95765 7.66726 10.0289 7.40032C10.3934 6.04059 10.1715 4.66088 9.51816 3.52922C8.86549 2.39892 7.78138 1.51749 6.42102 1.15227C5.06128 0.78781 3.68157 1.00974 2.54992 1.66303C1.41962 2.3157 0.538186 3.39981 0.172969 4.76017C-0.191495 6.1199 0.0304328 7.49961 0.683728 8.63127C1.3364 9.76157 2.42137 10.6429 3.78173 11.0081Z" fill="#111111"/>
<path d="M11.8182 6.0511C12.0307 5.87605 12.0613 5.56222 11.8863 5.34967C11.7113 5.13712 11.3974 5.10649 11.1849 5.28153L9.61445 6.57374L8.0698 5.27927C7.89475 5.06671 7.58092 5.03608 7.36837 5.21112C7.15582 5.38616 7.12519 5.7 7.30023 5.91256L9.13433 7.55903C9.14246 7.5709 9.15121 7.58216 9.15996 7.59341C9.33564 7.80659 9.65071 7.83722 9.86389 7.66155L9.86264 7.6603L11.8182 6.0511Z" fill="#111111"/>
</g>
<defs>
<clipPath id="clip0_417_26136">
<rect width="12" height="12" fill="white"/>
</clipPath>
</defs>
</svg>
