<svg width="12" height="12" viewBox="0 0 12 12" fill="none" xmlns="http://www.w3.org/2000/svg">
<path d="M8.14694 7.28931H7.69525L7.53516 7.13493C8.09548 6.48313 8.43282 5.63694 8.43282 4.71641C8.43282 2.66381 6.76901 1 4.71641 1C2.66381 1 1 2.66381 1 4.71641C1 6.76901 2.66381 8.43282 4.71641 8.43282C5.63694 8.43282 6.48313 8.09548 7.13493 7.53516L7.28931 7.69525V8.14694L10.1481 11L11 10.1481L8.14694 7.28931ZM4.71641 7.28931C3.29274 7.28931 2.14351 6.14008 2.14351 4.71641C2.14351 3.29274 3.29274 2.14351 4.71641 2.14351C6.14008 2.14351 7.28931 3.29274 7.28931 4.71641C7.28931 6.14008 6.14008 7.28931 4.71641 7.28931Z" fill="#111111"/>
</svg>
