<svg width="12" height="12" viewBox="0 0 12 12" fill="none" xmlns="http://www.w3.org/2000/svg">
<g clip-path="url(#clip0_417_46698)">
<path d="M4.16546 0L0.493925 9.53674e-07C0.225501 9.53674e-07 0.00789452 0.217102 0.00740147 0.485512L0 4.15634L0.973035 4.15881L0.979942 0.972883H4.16605L4.16546 0Z" fill="#111111"/>
<path d="M4.46469 5.14682L5.15302 4.45902L0.838198 0.142545L0.14987 0.830343L4.46469 5.14682Z" fill="#111111"/>
<path d="M12 7.8421H11.027L11.027 11.027L7.84137 11.027V12L11.5134 12C11.7823 12 11.9999 11.7819 11.9999 11.5135L12 7.8421Z" fill="#111111"/>
<path d="M7.30728 6.6213L6.61944 7.3091L11.1696 11.8565L11.8574 11.1687L7.30728 6.6213Z" fill="#111111"/>
</g>
<defs>
<clipPath id="clip0_417_46698">
<rect width="12" height="12" fill="white" transform="matrix(1 0 0 -1 0 12)"/>
</clipPath>
</defs>
</svg>
