<svg width="12" height="12" viewBox="0 0 12 12" fill="none" xmlns="http://www.w3.org/2000/svg">
<path d="M10.6464 9.94065L8.58716 10.9379C8.50233 10.9789 8.41161 10.9993 8.3215 10.9999C8.15844 11.0011 7.99738 10.9376 7.8769 10.8165L1.13585 4.63464C0.954536 4.46836 0.954745 4.18124 1.1363 4.01524L1.68693 3.51177C1.76604 3.43939 1.86639 3.40278 1.96704 3.40287C2.0554 3.40286 2.14402 3.431 2.21872 3.48799L3.93558 4.79798L5.50957 5.99895L8.50152 8.28184L10.3365 9.68195C10.584 9.87079 10.9296 9.72668 10.9906 9.44077C10.9967 9.41207 11 9.38194 11 9.35058V9.37462C11 9.61595 10.8625 9.83596 10.6464 9.94065Z" fill="#111111"/>
<path fill-rule="evenodd" clip-rule="evenodd" d="M8.58871 10.938C8.50338 10.9793 8.41211 10.9996 8.3215 10.9999C8.24137 11.001 8.16163 10.9865 8.08688 10.9573C8.0082 10.9264 7.93503 10.8792 7.87272 10.8165L3.93645 7.20458L2.22405 8.51195C2.15144 8.56739 2.06566 8.59556 1.97976 8.59705C1.96102 8.59762 1.94225 8.59692 1.92361 8.59496C1.83791 8.586 1.75464 8.55027 1.68693 8.48832L1.1363 7.98484C0.954745 7.81884 0.954536 7.53172 1.13585 7.36545L2.62372 6.00002L1.13585 4.63464C0.954536 4.46836 0.954745 4.18124 1.1363 4.01524L1.68693 3.51177C1.76604 3.43939 1.86639 3.40278 1.96704 3.40287C2.05716 3.40167 2.14785 3.42981 2.22405 3.48799L3.93651 4.79541L7.87272 1.18355C7.89609 1.16004 7.92099 1.13869 7.94713 1.11958C8.05384 1.04155 8.18132 1.00061 8.31039 1.00006C8.40463 0.998733 8.49989 1.01892 8.58871 1.06191L10.6463 2.05774C10.8623 2.16229 10.9998 2.38208 11 2.62328V2.62391L11 2.62547V2.64952L11 2.64798V9.37607C11 9.61751 10.8625 9.8376 10.6463 9.94224L8.58871 10.938ZM7.91351 1.15111C7.9016 1.1614 7.89002 1.1722 7.87879 1.1835L3.9398 4.79792L3.93753 4.79619L3.93558 4.79798L5.50957 5.99895L8.49696 3.71816V3.72172L8.50152 3.71824V3.71926L8.50303 3.7181V8.28184L8.50152 8.28068V8.28184L10.3365 9.68195C10.584 9.87079 10.9296 9.72668 10.9906 9.44077C10.9928 9.41944 10.9939 9.39787 10.9939 9.37612V2.62397C10.9939 2.60222 10.9928 2.58065 10.9906 2.55932C10.9296 2.27341 10.584 2.12929 10.3365 2.31813L8.50152 3.71824V1.44372C8.50152 1.13264 8.14671 0.969023 7.91351 1.15111ZM5.51424 5.99997L8.49696 3.72274V8.2772L5.51424 5.99997Z" fill="#111111"/>
<path d="M8.50303 3.7181V8.28184L8.50152 8.28068V8.28184L10.3365 9.68195C10.584 9.87079 10.9296 9.72668 10.9906 9.44077C10.9928 9.41944 10.9939 9.39787 10.9939 9.37612V2.62397C10.9939 2.60222 10.9928 2.58065 10.9906 2.55932C10.9296 2.27341 10.584 2.12929 10.3365 2.31813L8.50152 3.71824V3.71926L8.50303 3.7181Z" fill="#111111"/>
<path d="M7.87879 1.1835L3.9398 4.79792L3.93753 4.79619L3.93558 4.79798L5.50957 5.99895L8.49696 3.71816V3.72172L8.50152 3.71824V1.44372C8.50152 1.13264 8.14671 0.969023 7.91351 1.15111C7.9016 1.1614 7.89002 1.1722 7.87879 1.1835Z" fill="#111111"/>
</svg>
