<svg width="12" height="12" viewBox="0 0 12 12" fill="none" xmlns="http://www.w3.org/2000/svg">
<path fill-rule="evenodd" clip-rule="evenodd" d="M0 5.24538e-07L1 4.80824e-07L1 12H5.24538e-07L0 5.24538e-07Z" fill="black"/>
<path fill-rule="evenodd" clip-rule="evenodd" d="M12 9.5V10.5H11.5V9.5H12ZM12 11.5V12H11.5V11.5H12ZM9.5 12H10.5V11.5H9.5V12ZM8.5 12V11.5L7.5 11.5V12L8.5 12ZM6.5 12V11.5H5.5V12H6.5ZM4.5 12V11.5H3.5V12H4.5ZM2.5 12V11.5H1.5V12H2.5ZM1.5 4.58975e-07V0.5L2.5 0.5L2.5 4.15261e-07L1.5 4.58975e-07ZM3.5 3.71547e-07L3.5 0.5H4.5V3.2784e-07L3.5 3.71547e-07ZM5.5 2.84126e-07V0.5L6.5 0.5V2.40412e-07L5.5 2.84126e-07ZM7.5 1.96706e-07V0.5H8.5V1.52992e-07L7.5 1.96706e-07ZM9.5 1.09278e-07V0.5L10.5 0.5V6.55709e-08L9.5 1.09278e-07ZM11.5 2.1857e-08V0.5H12V0L11.5 2.1857e-08ZM12 1.5H11.5V2.5H12V1.5ZM12 3.5H11.5V4.5H12V3.5ZM12 5.5H11.5V6.5H12V5.5ZM12 7.5H11.5L11.5 8.5H12L12 7.5Z" fill="black"/>
</svg>
