<svg width="12" height="12" viewBox="0 0 12 12" fill="none" xmlns="http://www.w3.org/2000/svg">
<path fill-rule="evenodd" clip-rule="evenodd" d="M1.04907e-06 12L9.61649e-07 11L12 11V12L1.04907e-06 12Z" fill="black"/>
<path fill-rule="evenodd" clip-rule="evenodd" d="M9.5 1.12054e-06L10.5 1.03312e-06V0.500001L9.5 0.500001V1.12054e-06ZM11.5 9.457e-07L12 9.01986e-07V0.500001L11.5 0.500001V9.457e-07ZM12 2.5V1.5H11.5V2.5H12ZM12 3.5H11.5L11.5 4.5H12L12 3.5ZM12 5.5H11.5V6.5H12V5.5ZM12 7.5H11.5V8.5H12V7.5ZM12 9.5H11.5V10.5H12V9.5ZM9.17938e-07 10.5L0.500001 10.5L0.500001 9.5H8.30514e-07L9.17938e-07 10.5ZM7.43094e-07 8.5H0.500001L0.500001 7.5H6.55669e-07L7.43094e-07 8.5ZM5.68249e-07 6.5H0.500001L0.5 5.5H4.80824e-07L5.68249e-07 6.5ZM3.93404e-07 4.5H0.5L0.5 3.5H3.05979e-07L3.93404e-07 4.5ZM2.18555e-07 2.5H0.5L0.5 1.5H1.31135e-07L2.18555e-07 2.5ZM4.37103e-08 0.5L0.5 0.5L0.5 0L0 4.3714e-08L4.37103e-08 0.5ZM1.5 8.66254e-07V0.500001L2.5 0.500001V7.78826e-07L1.5 8.66254e-07ZM3.5 6.91405e-07V0.500001L4.5 0.500001V6.03985e-07L3.5 6.91405e-07ZM5.5 5.16557e-07V0.500001L6.5 0.5V4.29136e-07L5.5 5.16557e-07ZM7.5 3.41715e-07V0.5L8.5 0.500001V1.20797e-06L7.5 3.41715e-07Z" fill="black"/>
</svg>
