<svg width="12" height="12" viewBox="0 0 12 12" fill="none" xmlns="http://www.w3.org/2000/svg">
<path d="M9.82309 6.48958C9.84451 6.33333 9.85522 6.17188 9.85522 6C9.85522 5.83333 9.84451 5.66667 9.81773 5.51042L10.9047 4.6875C11.0011 4.61458 11.0278 4.47396 10.9689 4.36979L9.94089 2.64062C9.87663 2.52604 9.74277 2.48958 9.62497 2.52604L8.34526 3.02604C8.07753 2.82812 7.79375 2.66146 7.47783 2.53646L7.28507 1.21354C7.26365 1.08854 7.15656 1 7.02806 1H4.97194C4.84344 1 4.7417 1.08854 4.72028 1.21354L4.52752 2.53646C4.21161 2.66146 3.92247 2.83333 3.6601 3.02604L2.38038 2.52604C2.26258 2.48437 2.12872 2.52604 2.06447 2.64062L1.04177 4.36979C0.977512 4.47917 0.998929 4.61458 1.10602 4.6875L2.19297 5.51042C2.1662 5.66667 2.14478 5.83854 2.14478 6C2.14478 6.16146 2.15549 6.33333 2.18227 6.48958L1.09531 7.3125C0.998929 7.38542 0.972157 7.52604 1.03106 7.63021L2.05911 9.35938C2.12337 9.47396 2.25723 9.51042 2.37503 9.47396L3.65474 8.97396C3.92247 9.17187 4.20625 9.33854 4.52217 9.46354L4.71493 10.7865C4.7417 10.9115 4.84344 11 4.97194 11H7.02806C7.15656 11 7.26365 10.9115 7.27972 10.7865L7.47248 9.46354C7.78839 9.33854 8.07753 9.17187 8.3399 8.97396L9.61962 9.47396C9.73742 9.51562 9.87128 9.47396 9.93553 9.35938L10.9636 7.63021C11.0278 7.51562 11.0011 7.38542 10.8993 7.3125L9.82309 6.48958ZM6 7.875C4.93982 7.875 4.07239 7.03125 4.07239 6C4.07239 4.96875 4.93982 4.125 6 4.125C7.06018 4.125 7.92761 4.96875 7.92761 6C7.92761 7.03125 7.06018 7.875 6 7.875Z" fill="black"/>
</svg>
