<svg width="12" height="12" viewBox="0 0 12 12" fill="none" xmlns="http://www.w3.org/2000/svg">
<path d="M4.00155 12C5.10533 12 6.00115 11.104 6.00115 10V8H4.00155C2.89777 8 2.00195 8.896 2.00195 10C2.00195 11.104 2.89777 12 4.00155 12Z" fill="black"/>
<path d="M2.00195 6C2.00195 4.896 2.89777 4 4.00155 4H6.00115V8H4.00155C2.89777 8 2.00195 7.104 2.00195 6Z" fill="black"/>
<path d="M2 2C2 0.896 2.89582 0 3.9996 0H5.9992V4H3.9996C2.89582 4 2 3.104 2 2Z" fill="black"/>
<path d="M6 3.05176e-05H7.9996C9.10338 3.05176e-05 9.9992 0.89603 9.9992 2.00003C9.9992 3.10403 9.10338 4.00003 7.9996 4.00003H6V3.05176e-05Z" fill="black"/>
<path d="M9.9992 5.99902C9.9992 7.10302 9.10338 7.99902 7.9996 7.99902C6.89582 7.99902 6 7.10302 6 5.99902C6 4.89502 6.89582 3.99902 7.9996 3.99902C9.10338 3.99902 9.9992 4.89502 9.9992 5.99902Z" fill="black"/>
</svg>
