<svg width="12" height="12" viewBox="0 0 12 12" fill="none" xmlns="http://www.w3.org/2000/svg">
<path d="M8.6968 4.16431L8.69241 4.16244C8.6899 4.1615 8.6874 4.16056 8.6852 4.15837C8.68161 4.15451 8.67895 4.14988 8.67743 4.14483C8.67591 4.13979 8.67557 4.13446 8.67643 4.12926L8.91862 2.6502L10.0544 3.785L8.87319 4.28699C8.86991 4.28832 8.86639 4.28896 8.86285 4.28887H8.85815C8.85658 4.28793 8.85502 4.28668 8.85188 4.28355C8.80793 4.23466 8.75536 4.19425 8.6968 4.16431ZM10.3442 4.07418L11.5585 5.28723C11.8108 5.53947 11.937 5.66529 11.9831 5.81113C11.99 5.83272 11.9956 5.85432 12 5.87654L9.09783 4.64878C9.09627 4.64814 9.0947 4.64751 9.09313 4.6469C9.08154 4.64221 9.06807 4.63689 9.06807 4.625C9.06807 4.6131 9.08185 4.60747 9.09344 4.60278L9.0972 4.60121L10.3442 4.07418ZM11.9505 6.26586C11.8878 6.38354 11.7656 6.50559 11.5589 6.71246L10.1897 8.0798L8.41889 7.71144L8.40949 7.70956C8.39383 7.70706 8.37722 7.70424 8.37722 7.69016C8.3705 7.61719 8.34881 7.54638 8.3135 7.48215C8.2782 7.41792 8.23003 7.36163 8.17201 7.31679C8.1648 7.3096 8.16668 7.29833 8.16887 7.288C8.16887 7.28644 8.16887 7.28487 8.1695 7.28362L8.50255 5.24122L8.5038 5.23434C8.50568 5.21869 8.5085 5.20054 8.5226 5.20054C8.59397 5.19167 8.66286 5.1687 8.72526 5.13297C8.78765 5.09724 8.84231 5.04946 8.88603 4.99241C8.88885 4.98928 8.89073 4.98584 8.89449 4.98396C8.90452 4.97927 8.91643 4.98396 8.92676 4.98835L11.9502 6.26586H11.9505ZM9.87483 8.39433L7.6234 10.6433L8.00877 8.27728L8.0094 8.27415C8.00971 8.27102 8.01034 8.26789 8.01128 8.26507C8.01441 8.25756 8.02256 8.25443 8.03039 8.2513L8.03415 8.24974C8.11853 8.21378 8.19316 8.15832 8.2519 8.08794C8.25942 8.07917 8.26851 8.07072 8.2801 8.06916C8.28311 8.06867 8.28617 8.06867 8.28918 8.06916L9.87452 8.39464L9.87483 8.39433ZM7.14686 11.1193L6.89308 11.3728L4.08741 7.32243C4.0864 7.32095 4.08535 7.31949 4.08428 7.31805C4.07989 7.3121 4.07519 7.30615 4.07613 7.29927C4.07645 7.29426 4.07958 7.28988 4.08303 7.28612L4.08616 7.28206C4.09462 7.26954 4.10183 7.25702 4.10966 7.24356L4.11592 7.23261L4.11686 7.23167C4.12125 7.22416 4.12532 7.21696 4.13284 7.21289C4.13942 7.20976 4.14851 7.21101 4.15571 7.21258L7.26404 7.8529C7.27273 7.85425 7.28093 7.85781 7.28785 7.86323C7.29192 7.8673 7.29286 7.87168 7.29381 7.87669C7.31549 7.95863 7.35584 8.03446 7.41171 8.09825C7.46758 8.16204 7.53746 8.21207 7.61589 8.24442C7.62466 8.2488 7.6209 8.2585 7.61683 8.26883C7.61479 8.27336 7.61322 8.27807 7.61213 8.28291C7.57296 8.52077 7.2371 10.5669 7.14686 11.1193ZM6.61675 11.6485C6.4297 11.8335 6.31942 11.9314 6.19472 11.9709C6.07177 12.0097 5.93982 12.0097 5.81687 11.9709C5.67087 11.9246 5.54461 11.7987 5.29239 11.5465L2.47482 8.73202L3.21078 7.59189C3.21422 7.58626 3.21767 7.58125 3.22331 7.57718C3.23114 7.57155 3.24242 7.57405 3.25182 7.57718C3.42074 7.62809 3.60211 7.61891 3.76502 7.5512C3.77348 7.54807 3.78194 7.54588 3.78852 7.55183C3.79181 7.55483 3.79475 7.55819 3.79729 7.56184L6.61675 11.6488V11.6485ZM2.20318 8.46068L1.55683 7.81503L2.83324 7.2711C2.8365 7.26968 2.84002 7.26894 2.84358 7.26891C2.85423 7.26891 2.8605 7.27955 2.86614 7.28925C2.87897 7.30897 2.89255 7.32818 2.90687 7.34684L2.91094 7.35185C2.9147 7.35717 2.9122 7.36249 2.90844 7.3675L2.20349 8.46068H2.20318ZM1.27078 7.5293L0.453043 6.71246C0.313934 6.57351 0.213049 6.47273 0.142868 6.38604L2.62928 6.90118C2.6324 6.90176 2.63554 6.90228 2.63868 6.90274C2.65403 6.90525 2.67095 6.90806 2.67095 6.92246C2.67095 6.93811 2.65246 6.94531 2.6368 6.95125L2.62959 6.95438L1.27078 7.5293ZM0 5.96604C0.0028336 5.91343 0.0123078 5.86137 0.0281977 5.81113C0.0745673 5.66529 0.200517 5.53947 0.453043 5.28723L1.49949 4.24193C1.98131 4.94042 2.46443 5.63802 2.94885 6.33472C2.95731 6.34598 2.96671 6.3585 2.957 6.36789C2.91126 6.41828 2.86551 6.47336 2.83324 6.53313C2.82974 6.54082 2.82435 6.54749 2.81758 6.55254C2.8135 6.55504 2.80912 6.5541 2.80442 6.55316H2.80379L0 5.96573V5.96604ZM1.77959 3.96214L3.18665 2.55662C3.31887 2.61452 3.80011 2.81763 4.23059 2.99915C4.55643 3.13685 4.85345 3.26204 4.94682 3.30272C4.95622 3.30648 4.96467 3.31024 4.96875 3.31962C4.97125 3.32526 4.97 3.33246 4.96875 3.3384C4.94648 3.43986 4.94979 3.54525 4.97839 3.64511C5.00699 3.74497 5.05999 3.83617 5.13261 3.9105C5.14201 3.91989 5.13261 3.93335 5.12446 3.94493L5.12008 3.9515L3.69139 6.16196C3.68763 6.16822 3.68419 6.17354 3.67792 6.17761C3.6704 6.1823 3.65975 6.18011 3.65098 6.17792C3.59541 6.16338 3.53829 6.1556 3.48085 6.15476C3.42947 6.15476 3.3737 6.16415 3.3173 6.17448H3.31699C3.31072 6.17542 3.30508 6.17667 3.30007 6.17291C3.29453 6.16839 3.28977 6.163 3.28597 6.15695L1.77959 3.96214ZM3.47082 2.27276L5.29239 0.453192C5.54461 0.201257 5.67087 0.0751324 5.81687 0.0291268C5.93982 -0.00970893 6.07177 -0.00970893 6.19472 0.0291268C6.34072 0.0751324 6.46699 0.201257 6.7192 0.453192L7.11397 0.847526L5.81844 2.85174C5.81523 2.85758 5.81086 2.86269 5.80559 2.86677C5.79776 2.87209 5.78679 2.8699 5.7774 2.86677C5.67525 2.8358 5.5671 2.83017 5.46228 2.85034C5.35747 2.87052 5.25915 2.9159 5.17584 2.98256C5.16739 2.99133 5.15485 2.98632 5.1442 2.98162C4.97501 2.90808 3.65912 2.35257 3.47082 2.27276ZM7.38905 1.12231L8.58526 2.3172L8.29702 4.10047V4.10516C8.29676 4.10923 8.29591 4.11323 8.29451 4.11706C8.29138 4.12331 8.28511 4.12457 8.27884 4.12644C8.21722 4.14509 8.15917 4.17397 8.10715 4.21188C8.10492 4.21348 8.10282 4.21526 8.10089 4.2172C8.09744 4.22096 8.09399 4.2244 8.08835 4.22503C8.08376 4.22517 8.07919 4.22443 8.07488 4.22284L6.25206 3.44919L6.24861 3.44763C6.23702 3.44293 6.22323 3.4373 6.22323 3.42541C6.21252 3.32394 6.17934 3.22612 6.12611 3.13904C6.11733 3.12465 6.10762 3.10963 6.11514 3.09492L7.38905 1.12231ZM6.15712 3.81567L7.8659 4.53862C7.8753 4.543 7.88564 4.54707 7.88972 4.55677C7.89135 4.5626 7.89135 4.56877 7.88972 4.57461C7.8847 4.59965 7.88032 4.62813 7.88032 4.65692V4.7048C7.88032 4.71669 7.8681 4.7217 7.85682 4.7264L7.85337 4.72765C7.58267 4.84313 4.05295 6.34661 4.04762 6.34661C4.0423 6.34661 4.03666 6.34661 4.03133 6.34129C4.02193 6.3319 4.03133 6.31875 4.03979 6.30686C4.04129 6.3048 4.04275 6.30271 4.04418 6.3006L5.44842 4.12864L5.45093 4.12488C5.45907 4.11174 5.46847 4.09703 5.48351 4.09703L5.49761 4.09922C5.52957 4.1036 5.55777 4.10767 5.58628 4.10767C5.79933 4.10767 5.99671 4.00408 6.11577 3.82694C6.1186 3.82221 6.1222 3.81798 6.12642 3.81442C6.13488 3.80816 6.14741 3.81129 6.15712 3.81567ZM4.2002 6.69024L8.04762 5.05125C8.04762 5.05125 8.05326 5.05125 8.05859 5.05657C8.07958 5.07754 8.09744 5.09162 8.11467 5.10477L8.12313 5.11009C8.13096 5.11447 8.1388 5.11948 8.13942 5.12761C8.13942 5.13074 8.13942 5.13262 8.1388 5.13544L7.8092 7.15781L7.80794 7.16595C7.80575 7.18159 7.80356 7.19943 7.78883 7.19943C7.70096 7.20536 7.61586 7.2326 7.5409 7.27879C7.46594 7.32498 7.40339 7.38873 7.35866 7.46451L7.35709 7.46702C7.35271 7.47422 7.34863 7.4811 7.34143 7.48486C7.33485 7.48799 7.32639 7.48673 7.3195 7.48517L4.25127 6.85298C4.24814 6.85236 4.20365 6.69055 4.2002 6.69024Z" fill="black"/>
</svg>
