<svg width="12" height="12" viewBox="0 0 12 12" fill="none" xmlns="http://www.w3.org/2000/svg">
<path d="M12 5.50126C12 4.68299 11.0045 3.90753 9.47819 3.42664C9.83041 1.82536 9.67387 0.551385 8.9841 0.143511C8.82511 0.047837 8.63922 0.0025177 8.4362 0.0025177V0.563973C8.54872 0.563973 8.63922 0.586633 8.71504 0.629435C9.0477 0.825818 9.19201 1.57359 9.0795 2.53536C9.05259 2.77203 9.00856 3.02129 8.95475 3.27558C8.47534 3.15473 7.9519 3.06157 7.40155 3.00114C7.07134 2.53536 6.7289 2.11238 6.38402 1.74227C7.18141 0.9794 7.92988 0.561456 8.43865 0.561456V0C7.766 0 6.88545 0.493477 5.99511 1.34951C5.10477 0.498512 4.22422 0.010071 3.55157 0.010071V0.571527C4.05789 0.571527 4.80881 0.986954 5.6062 1.74479C5.26376 2.1149 4.92132 2.53536 4.59601 3.00114C4.04321 3.06157 3.51977 3.15473 3.04036 3.2781C2.9841 3.02632 2.94252 2.7821 2.91317 2.54795C2.79821 1.58618 2.94007 0.838407 3.27028 0.639506C3.34366 0.594186 3.43905 0.574044 3.55157 0.574044V0.0125887C3.34611 0.0125887 3.16021 0.0579079 2.99878 0.153582C2.31146 0.561456 2.15736 1.83291 2.51203 3.42916C0.990624 3.91257 0 4.68551 0 5.50126C0 6.31952 0.995515 7.09499 2.52181 7.57587C2.16959 9.17716 2.32613 10.4511 3.0159 10.859C3.17489 10.9547 3.36078 11 3.56625 11C4.23889 11 5.11945 10.5065 6.00978 9.65049C6.90012 10.5015 7.78068 10.9899 8.45332 10.9899C8.65878 10.9899 8.84468 10.9446 9.00612 10.8489C9.69344 10.4411 9.84753 9.1696 9.49287 7.57336C11.0094 7.09247 12 6.31701 12 5.50126ZM8.81533 3.82193C8.72483 4.14672 8.61231 4.48157 8.48512 4.81643C8.38483 4.61501 8.27966 4.4136 8.1647 4.21218C8.05218 4.01076 7.93233 3.81437 7.81248 3.62303C8.15981 3.6759 8.4949 3.74136 8.81533 3.82193ZM7.69507 6.50332C7.50428 6.84321 7.3086 7.16548 7.10559 7.46509C6.74113 7.49783 6.37179 7.51545 6 7.51545C5.63066 7.51545 5.26131 7.49782 4.89931 7.46761C4.69629 7.168 4.49817 6.84825 4.30738 6.51087C4.12148 6.18105 3.95271 5.84619 3.79861 5.50881C3.95027 5.17143 4.12148 4.83406 4.30493 4.50423C4.49572 4.16434 4.6914 3.84207 4.89442 3.54246C5.25887 3.50973 5.62821 3.4921 6 3.4921C6.36934 3.4921 6.73869 3.50973 7.10069 3.53994C7.30371 3.83955 7.50183 4.1593 7.69262 4.49668C7.87852 4.8265 8.04729 5.16136 8.20139 5.49874C8.04729 5.83612 7.87852 6.17349 7.69507 6.50332ZM8.48512 6.17601C8.6172 6.51339 8.72972 6.85077 8.82267 7.17807C8.50224 7.25864 8.1647 7.32662 7.81492 7.37949C7.93477 7.18563 8.05463 6.98672 8.16714 6.78279C8.27966 6.58137 8.38483 6.37743 8.48512 6.17601ZM6.00489 8.86244C5.77742 8.62074 5.54994 8.35134 5.32491 8.05676C5.54505 8.06683 5.77008 8.07439 5.99755 8.07439C6.22748 8.07439 6.45495 8.06935 6.67754 8.05676C6.4574 8.35134 6.22992 8.62074 6.00489 8.86244ZM4.18508 7.37949C3.83775 7.32662 3.50265 7.26116 3.18223 7.18059C3.27273 6.8558 3.38524 6.52094 3.51243 6.18608C3.61272 6.3875 3.7179 6.58892 3.83286 6.79034C3.94782 6.99176 4.06523 7.18814 4.18508 7.37949ZM5.99266 2.14008C6.22014 2.38178 6.44762 2.65118 6.67265 2.94575C6.45251 2.93568 6.22748 2.92813 6 2.92813C5.77008 2.92813 5.5426 2.93317 5.32002 2.94575C5.54016 2.65118 5.76763 2.38178 5.99266 2.14008ZM4.18263 3.62303C4.06278 3.81689 3.94293 4.01579 3.83041 4.21973C3.7179 4.42115 3.61272 4.62257 3.51243 4.82399C3.38035 4.48661 3.26784 4.14923 3.17489 3.82193C3.49531 3.74388 3.83286 3.6759 4.18263 3.62303ZM1.96902 6.77523C1.10314 6.39506 0.543009 5.89654 0.543009 5.50126C0.543009 5.10597 1.10314 4.60494 1.96902 4.22728C2.17937 4.13413 2.40929 4.05104 2.64656 3.97299C2.78598 4.46647 2.96943 4.98009 3.1969 5.50629C2.97187 6.02998 2.79087 6.54108 2.65389 7.03204C2.41174 6.95399 2.18182 6.86839 1.96902 6.77523ZM3.28496 10.3731C2.9523 10.1767 2.80799 9.42893 2.92051 8.46715C2.94741 8.23049 2.99144 7.98123 3.04525 7.72694C3.52466 7.84779 4.04811 7.94095 4.59845 8.00137C4.92866 8.46715 5.2711 8.89013 5.61598 9.26024C4.81859 10.0231 4.07012 10.4411 3.56135 10.4411C3.45128 10.4385 3.35834 10.4159 3.28496 10.3731ZM9.08683 8.45457C9.20179 9.41634 9.05993 10.1641 8.72972 10.363C8.65634 10.4083 8.56094 10.4285 8.44843 10.4285C7.94211 10.4285 7.1912 10.013 6.3938 9.25521C6.73624 8.8851 7.07868 8.46464 7.404 7.99886C7.95679 7.93843 8.48023 7.84527 8.95964 7.7219C9.0159 7.9762 9.05993 8.22042 9.08683 8.45457ZM10.0285 6.77523C9.81818 6.86839 9.58826 6.95148 9.351 7.02953C9.21158 6.53605 9.02813 6.02243 8.80065 5.49622C9.02568 4.97253 9.20669 4.46143 9.34366 3.97047C9.58581 4.04852 9.81574 4.13413 10.031 4.22728C10.8969 4.60746 11.457 5.10597 11.457 5.50126C11.4545 5.89654 10.8944 6.39757 10.0285 6.77523Z" fill="black"/>
<path d="M5.99754 6.65188C6.61489 6.65188 7.11536 6.13673 7.11536 5.50127C7.11536 4.86581 6.61489 4.35067 5.99754 4.35067C5.38019 4.35067 4.87973 4.86581 4.87973 5.50127C4.87973 6.13673 5.38019 6.65188 5.99754 6.65188Z" fill="black"/>
</svg>
