<svg width="12" height="12" viewBox="0 0 12 12" fill="none" xmlns="http://www.w3.org/2000/svg">
<path fill-rule="evenodd" clip-rule="evenodd" d="M8.10276 0.0807357C9.01095 0.275283 9.81646 0.810408 10.3628 1.58215C10.6269 1.94918 10.815 2.36807 10.9156 2.81292C11.0161 3.25778 11.027 3.71914 10.9475 4.16848C10.8702 4.59883 10.7067 5.00789 10.4674 5.36963C10.817 6.03274 10.9347 6.79936 10.8008 7.54113C10.7195 7.98421 10.5483 8.40464 10.2983 8.77493C10.0483 9.14521 9.72527 9.45699 9.3502 9.6899L6.55073 11.4715C5.75035 11.9543 4.80423 12.1138 3.89604 11.919C2.98785 11.7241 2.18239 11.1888 1.63602 10.417C1.37231 10.0499 1.18449 9.63103 1.08415 9.18627C0.983809 8.74152 0.97308 8.28031 1.05263 7.83112C1.1299 7.40084 1.29324 6.9918 1.53226 6.62997C1.18347 5.9672 1.06582 5.20141 1.19889 4.46019C1.27999 4.01704 1.45114 3.59653 1.70112 3.22623C1.95111 2.85592 2.27428 2.54418 2.64947 2.31142L5.44852 0.529432C6.24857 0.0461099 7.19458 -0.113812 8.10276 0.0807357ZM4.00647 10.1596C4.40084 10.3051 4.82875 10.3258 5.23475 10.219H5.23745C5.42358 10.1701 5.60137 10.0925 5.76472 9.98873L8.35737 8.34228C8.56618 8.21249 8.746 8.03907 8.88513 7.83332C9.02426 7.62756 9.11958 7.39408 9.1649 7.14806C9.20928 6.89845 9.20326 6.64217 9.14721 6.39504C9.09116 6.14791 8.98627 5.91519 8.83903 5.71128C8.59216 5.36347 8.24908 5.09972 7.85428 4.9542C7.45948 4.80869 7.03115 4.78813 6.62481 4.89518C6.43868 4.94408 6.26089 5.02173 6.09755 5.12547L5.10718 5.75369C5.05756 5.78468 5.00377 5.80805 4.94753 5.82305C4.82507 5.85519 4.69602 5.84891 4.57707 5.80503C4.45812 5.76115 4.35475 5.68169 4.28033 5.57691C4.2363 5.51536 4.20519 5.44513 4.18896 5.37063C4.17273 5.29614 4.17172 5.21901 4.18601 5.1441C4.19966 5.06988 4.22844 4.99945 4.27048 4.93744C4.31251 4.87542 4.36685 4.8232 4.42993 4.78421L7.02838 3.1433C7.0776 3.11195 7.13117 3.08843 7.18726 3.07354C7.3097 3.04125 7.43878 3.0475 7.55771 3.09147C7.67664 3.13544 7.77991 3.2151 7.85407 3.32007C7.93301 3.43082 7.97034 3.56705 7.95922 3.70374L7.94955 3.79768L8.04426 3.82701C8.40818 3.93552 8.75163 4.10624 9.06014 4.33197L9.19311 4.4259L9.24221 4.27727C9.26847 4.19834 9.28902 4.11753 9.30367 4.03549C9.34783 3.78575 9.34152 3.52937 9.28514 3.28223C9.22875 3.03509 9.12349 2.80245 8.97587 2.59871C8.72914 2.25073 8.38608 1.98685 7.99123 1.84132C7.59638 1.69579 7.16799 1.67534 6.76166 1.78261C6.57559 1.8317 6.39782 1.90933 6.23439 2.0129L3.64135 3.65935C3.43278 3.78915 3.25312 3.96242 3.11402 4.16793C2.97491 4.37345 2.87945 4.60663 2.83383 4.85238C2.78855 5.10185 2.79371 5.35819 2.84896 5.60553C2.90421 5.85288 3.0084 6.08596 3.15506 6.29035C3.40178 6.63824 3.74476 6.90209 4.13951 7.04768C4.53426 7.19327 4.96257 7.21388 5.36888 7.10684C5.55497 7.05763 5.73273 6.97985 5.89615 6.87616L6.89038 6.24834C6.93991 6.21705 6.99372 6.19354 7.05003 6.17858C7.17253 6.14648 7.30161 6.15282 7.42056 6.19677C7.53951 6.24072 7.64286 6.32027 7.71723 6.42511C7.76094 6.48676 7.79185 6.55693 7.80808 6.63131C7.8243 6.70568 7.82548 6.78267 7.81155 6.85753C7.79756 6.93178 7.76856 7.0022 7.72642 7.06425C7.68428 7.1263 7.62992 7.17862 7.56686 7.21782L4.97691 8.86428C4.92759 8.89534 4.87405 8.91871 4.81804 8.93364C4.69405 8.96686 4.56314 8.96052 4.44275 8.91549C4.32237 8.87045 4.21825 8.78884 4.14426 8.68156C4.06556 8.57071 4.02838 8.43452 4.0395 8.29789L4.04917 8.20395L3.95446 8.17502C3.59066 8.06617 3.24727 7.89548 2.93858 7.67006L2.80561 7.57573L2.75651 7.72436C2.73029 7.80331 2.70975 7.88411 2.69505 7.96614C2.65087 8.21588 2.65717 8.47226 2.71355 8.71941C2.76994 8.96655 2.87521 9.19919 3.02285 9.40292C3.26942 9.75045 3.61209 10.014 4.00647 10.1596Z" fill="black"/>
</svg>
