<svg width="12" height="12" viewBox="0 0 12 12" fill="none" xmlns="http://www.w3.org/2000/svg">
<path fill-rule="evenodd" clip-rule="evenodd" d="M2.99999 4.91818C3.39975 3.30606 4.39975 2.5 6.00001 2.5C8.40042 2.5 8.69987 4.31277 9.89974 4.61548C10.6999 4.81717 11.3999 4.51504 11.9997 3.7091C11.5999 5.32087 10.6 6.12682 9.00002 6.12693C6.59952 6.12693 6.30015 4.31415 5.10028 4.01145C4.30015 3.80977 3.60017 4.11189 3.00034 4.91783L2.99999 4.91818ZM0 8.54511C0.400414 6.93299 1.40041 6.12693 2.99999 6.12693C5.40041 6.12693 5.69986 7.9397 6.89973 8.24241C7.69986 8.4441 8.39984 8.14197 8.99967 7.33603C8.59999 8.94814 7.59999 9.7542 5.99968 9.7542C3.59926 9.7542 3.29981 7.94143 2.09994 7.63871C1.2998 7.43703 0.599816 7.73917 0 8.54511Z" fill="black"/>
</svg>
