<svg width="32" height="32" viewBox="0 0 32 32" fill="none" xmlns="http://www.w3.org/2000/svg">
<g clip-path="url(#clip0_4147_3112)">
<path fill-rule="evenodd" clip-rule="evenodd" d="M16.0002 11.6608C13.7422 11.6608 11.9118 13.4912 11.9118 15.7491H10.4118C10.4118 12.6628 12.9138 10.1608 16.0002 10.1608C19.0865 10.1608 21.5885 12.6628 21.5885 15.7491H20.0885C20.0885 13.4912 18.2581 11.6608 16.0002 11.6608Z" fill="#111111"/>
<path fill-rule="evenodd" clip-rule="evenodd" d="M15.9996 1.5C8.12976 1.5 1.75 7.87977 1.75 15.7496H0.25C0.249998 7.05134 7.30134 1.51694e-06 15.9996 0C24.6979 -1.51694e-06 31.7492 7.05134 31.7492 15.7496H30.2492C30.2492 7.87977 23.8694 1.5 15.9996 1.5Z" fill="#111111"/>
<path fill-rule="evenodd" clip-rule="evenodd" d="M16 6.5C10.8914 6.5 6.75 10.6414 6.75 15.75H5.25C5.25 9.81294 10.0629 5 16 5C21.9371 5 26.75 9.81294 26.75 15.75H25.25C25.25 10.6414 21.1086 6.5 16 6.5Z" fill="#111111"/>
<path fill-rule="evenodd" clip-rule="evenodd" d="M16.0002 19.8392C13.7422 19.8392 11.9118 18.0088 11.9118 15.7509H10.4118C10.4118 18.8372 12.9138 21.3392 16.0002 21.3392C19.0865 21.3392 21.5885 18.8372 21.5885 15.7509H20.0885C20.0885 18.0088 18.2581 19.8392 16.0002 19.8392Z" fill="#111111"/>
<path fill-rule="evenodd" clip-rule="evenodd" d="M15.9996 30C8.12976 30 1.75 23.6202 1.75 15.7504H0.25C0.249998 24.4487 7.30134 31.5 15.9996 31.5C24.6979 31.5 31.7492 24.4487 31.7492 15.7504H30.2492C30.2492 23.6202 23.8694 30 15.9996 30Z" fill="#111111"/>
<path fill-rule="evenodd" clip-rule="evenodd" d="M16 25C10.8914 25 6.75 20.8586 6.75 15.75H5.25C5.25 21.6871 10.0629 26.5 16 26.5C21.9371 26.5 26.75 21.6871 26.75 15.75H25.25C25.25 20.8586 21.1086 25 16 25Z" fill="#111111"/>
</g>
<defs>
<clipPath id="clip0_4147_3112">
<rect width="32" height="32" fill="white"/>
</clipPath>
</defs>
</svg>
