<svg width="32" height="32" viewBox="0 0 32 32" fill="none" xmlns="http://www.w3.org/2000/svg">
<g clip-path="url(#clip0_6862_11887)">
<path fill-rule="evenodd" clip-rule="evenodd" d="M20.7205 0.719774C19.2301 0.252103 17.6443 0 15.9996 0C7.30134 0 0.25 7.05134 0.25 15.7496H1.75C1.75 7.87977 8.12976 1.5 15.9996 1.5C17.3342 1.5 18.626 1.68348 19.8511 2.02659C20.0953 1.55993 20.3873 1.12217 20.7205 0.719774ZM26.3948 12.9993C25.8361 12.9916 25.2922 12.9228 24.7694 12.7994C25.0811 13.726 25.25 14.7183 25.25 15.75H26.75C26.75 14.7992 26.6266 13.8773 26.3948 12.9993ZM19.0004 5.42429C18.0481 5.14807 17.0413 5 16 5C10.0629 5 5.25 9.81294 5.25 15.75H6.75C6.75 10.6414 10.8914 6.5 16 6.5C17.1103 6.5 18.1749 6.69562 19.1613 7.05428C19.0556 6.55282 19 6.0329 19 5.5C19 5.47474 19.0001 5.4495 19.0004 5.42429ZM29.8115 12.2312C30.2843 11.9982 30.729 11.7168 31.1391 11.3935C31.5364 12.777 31.7492 14.2384 31.7492 15.7496H30.2492C30.2492 14.5353 30.0973 13.3565 29.8115 12.2312ZM16.0002 11.6608C13.7422 11.6608 11.9118 13.4912 11.9118 15.7491H10.4118C10.4118 12.6628 12.9138 10.1608 16.0002 10.1608C19.0865 10.1608 21.5885 12.6628 21.5885 15.7491H20.0885C20.0885 13.4912 18.2581 11.6608 16.0002 11.6608Z" fill="white"/>
<path fill-rule="evenodd" clip-rule="evenodd" d="M16.0002 19.8392C13.7422 19.8392 11.9118 18.0088 11.9118 15.7509H10.4118C10.4118 18.8372 12.9138 21.3392 16.0002 21.3392C19.0865 21.3392 21.5885 18.8372 21.5885 15.7509H20.0885C20.0885 18.0088 18.2581 19.8392 16.0002 19.8392Z" fill="white"/>
<path fill-rule="evenodd" clip-rule="evenodd" d="M15.9996 30C8.12976 30 1.75 23.6202 1.75 15.7504H0.25C0.249998 24.4487 7.30134 31.5 15.9996 31.5C24.6979 31.5 31.7492 24.4487 31.7492 15.7504H30.2492C30.2492 23.6202 23.8694 30 15.9996 30Z" fill="white"/>
<path fill-rule="evenodd" clip-rule="evenodd" d="M16 25C10.8914 25 6.75 20.8586 6.75 15.75H5.25C5.25 21.6871 10.0629 26.5 16 26.5C21.9371 26.5 26.75 21.6871 26.75 15.75H25.25C25.25 20.8586 21.1086 25 16 25Z" fill="white"/>
<circle cx="26.5" cy="5.5" r="5.5" fill="white"/>
</g>
<defs>
<clipPath id="clip0_6862_11887">
<rect width="32" height="32" fill="white"/>
</clipPath>
</defs>
</svg>
