<svg width="12" height="13" viewBox="0 0 12 13" fill="none" xmlns="http://www.w3.org/2000/svg">
<path fill-rule="evenodd" clip-rule="evenodd" d="M0 2.5V1.5H0.5V2.5H0ZM0 0.5V0L0.5 0V0.5L0 0.5ZM2.5 0L1.5 0V0.5L2.5 0.5V0ZM3.5 0V0.5L4.5 0.500001V9.53674e-07L3.5 0ZM5.5 9.53674e-07V0.500001L6.5 0.500001V9.53674e-07L5.5 9.53674e-07ZM7.5 9.53674e-07V0.500001H8.5V9.53674e-07L7.5 9.53674e-07ZM9.5 9.53674e-07V0.500001H10.5V9.53674e-07L9.5 9.53674e-07ZM11.5 1.90735e-06V0.500002H12V1.90735e-06L11.5 1.90735e-06ZM12 1.5H11.5V2.5H12V1.5ZM12 3.5H11.5L11.5 4.5H12L12 3.5ZM12 5.5H11.5V6.5H12V5.5ZM12 7.5H11.5V8.5H12V7.5ZM12 9.5H11.5L11.5 10.5H12L12 9.5ZM12 11.5H11.5V12H12V11.5ZM10.5 12V11.5H9.5V12H10.5ZM2.5 12V11.5H1.5V12H2.5ZM0.499998 12V11.5H-1.90735e-06V12H0.499998ZM-9.53674e-07 10.5H0.499999V9.5H-9.53674e-07V10.5ZM-9.53674e-07 8.5H0.499999V7.5H-9.53674e-07V8.5ZM-9.53674e-07 6.5H0.499999V5.5H-9.53674e-07V6.5ZM-9.53674e-07 4.5H0.499999L0.5 3.5H0L-9.53674e-07 4.5Z" fill="black"/>
<path fill-rule="evenodd" clip-rule="evenodd" d="M9 4V3L3 3V4L9 4ZM10 2L2 2V5L10 5L10 2Z" fill="black"/>
<path fill-rule="evenodd" clip-rule="evenodd" d="M9 8V7L3 7V8L9 8ZM10 6L2 6V9H10L10 6Z" fill="black"/>
<path fill-rule="evenodd" clip-rule="evenodd" d="M9 12V11H3V12H9ZM10 10H2V13H10L10 10Z" fill="black"/>
</svg>
