<svg width="12" height="12" viewBox="0 0 12 12" fill="none" xmlns="http://www.w3.org/2000/svg">
<path fill-rule="evenodd" clip-rule="evenodd" d="M0 2.5V1.5H0.5V2.5H0ZM0 0.5V0L0.5 0V0.5L0 0.5ZM2.5 0L1.5 0V0.5L2.5 0.5V0ZM3.5 0V0.5L4.5 0.500001V9.53674e-07L3.5 0ZM5.5 9.53674e-07V0.500001L6.5 0.500001V9.53674e-07L5.5 9.53674e-07ZM7.5 9.53674e-07V0.500001H8.5V9.53674e-07L7.5 9.53674e-07ZM9.5 9.53674e-07V0.500001H10.5V9.53674e-07L9.5 9.53674e-07ZM11.5 1.90735e-06V0.500002H12V1.90735e-06L11.5 1.90735e-06ZM12 1.5H11.5L11.5 2.5H12L12 1.5ZM12 3.5H11.5V4.5H12V3.5ZM12 5.5H11.5L11.5 6.5H12L12 5.5ZM12 7.5H11.5L11.5 8.5H12V7.5ZM12 9.5H11.5L11.5 10.5H12L12 9.5ZM12 11.5H11.5V12H12V11.5ZM10.5 12V11.5H9.5L9.5 12H10.5ZM8.5 12L8.5 11.5H7.5V12H8.5ZM6.5 12V11.5H5.5V12H6.5ZM4.5 12V11.5H3.5V12H4.5ZM2.5 12V11.5H1.5V12H2.5ZM0.499998 12V11.5H-1.90735e-06V12H0.499998ZM-9.53674e-07 10.5H0.499999V9.5H-9.53674e-07V10.5ZM-9.53674e-07 8.5H0.499999V7.5H-9.53674e-07V8.5ZM-9.53674e-07 6.5H0.499999V5.5H-9.53674e-07V6.5ZM-9.53674e-07 4.5H0.499999L0.5 3.5H0L-9.53674e-07 4.5Z" fill="black"/>
<path fill-rule="evenodd" clip-rule="evenodd" d="M3 9H4L4 3H3V9ZM5 10L5 2L2 2V10H5Z" fill="black"/>
<path fill-rule="evenodd" clip-rule="evenodd" d="M8 9H9L9 3L8 3L8 9ZM10 10L10 2L7 2L7 10H10Z" fill="black"/>
</svg>
