<svg width="12" height="12" viewBox="0 0 12 12" fill="none" xmlns="http://www.w3.org/2000/svg">
<path fill-rule="evenodd" clip-rule="evenodd" d="M1.90735e-06 2.5V1.5H0.500002V2.5H1.90735e-06ZM1.90735e-06 0.5V0L0.500002 0V0.5H1.90735e-06ZM2.5 0L1.5 0V0.5H2.5V0ZM3.5 0V0.5L4.5 0.500001V9.53674e-07L3.5 0ZM5.5 9.53674e-07V0.500001H6.5V9.53674e-07H5.5ZM7.5 9.53674e-07V0.500001H8.5V9.53674e-07H7.5ZM9.5 9.53674e-07V0.500001H10.5V9.53674e-07H9.5ZM11.5 1.90735e-06V0.500002H12V1.90735e-06H11.5ZM12 1.5H11.5V2.5H12V1.5ZM12 3.5H11.5L11.5 4.5H12L12 3.5ZM12 5.5H11.5V6.5H12V5.5ZM12 7.5H11.5V8.5H12V7.5ZM12 9.5H11.5L11.5 10.5H12L12 9.5ZM12 11.5H11.5V12H12V11.5ZM10.5 12V11.5H9.5V12H10.5ZM8.5 12V11.5H7.5V12H8.5ZM6.5 12V11.5H5.5V12H6.5ZM4.5 12V11.5H3.5V12H4.5ZM2.5 12V11.5H1.5V12H2.5ZM0.5 12V11.5H0L0 12H0.5ZM9.53674e-07 10.5H0.500001V9.5H9.53674e-07V10.5ZM9.53674e-07 8.5H0.500001V7.5H9.53674e-07V8.5ZM9.53674e-07 6.5H0.500001V5.5H9.53674e-07V6.5ZM9.53674e-07 4.5H0.500001L0.500002 3.5H1.90735e-06L9.53674e-07 4.5Z" fill="black"/>
<path fill-rule="evenodd" clip-rule="evenodd" d="M9 9V8H3V9H9ZM10 7H2V10H10V7Z" fill="black"/>
<path fill-rule="evenodd" clip-rule="evenodd" d="M9 4V3H3V4H9ZM10 2H2V5H10V2Z" fill="black"/>
</svg>
