<svg width="12" height="12" viewBox="0 0 12 12" fill="none" xmlns="http://www.w3.org/2000/svg">
<path fill-rule="evenodd" clip-rule="evenodd" d="M1 4.3714e-08L1 12H0L5.24537e-07 0L1 4.3714e-08ZM4 3H3L3 4H3.5L3.5 3.5H4V3ZM3 4.5V5.5H4V4.5H3ZM3 6.5L3 7.5H4L4 6.5H3ZM3 8V9H4V8.5H3.5V8H3ZM4.5 9H5.5L5.5 8H4.5L4.5 9ZM6.5 9H7.5L7.5 8H6.5L6.5 9ZM8 9H9V8H8.5V8.5H8V9ZM9 7.5V6.5L8 6.5V7.5L9 7.5ZM9 5.5V4.5L8 4.5V5.5L9 5.5ZM9 4V3L8 3V3.5L8.5 3.5V4H9ZM7.5 3L6.5 3V4H7.5V3ZM5.5 3H4.5V4L5.5 4V3Z" fill="black"/>
</svg>
