<svg width="12" height="12" viewBox="0 0 12 12" fill="none" xmlns="http://www.w3.org/2000/svg">
<path fill-rule="evenodd" clip-rule="evenodd" d="M6.14645 1.14645C6.34171 0.951184 6.65829 0.951184 6.85355 1.14645L9 3L8.29289 3.70711L7 2.70711V6H10.2929L9.29289 4.70711L10 4L11.8536 6.14645C12.0488 6.34171 12.0488 6.65829 11.8536 6.85355L10 9L9.29289 8.29289L10.2929 7H7V10.2929L8.29289 9.29289L9 10L6.85355 11.8536C6.65829 12.0488 6.34171 12.0488 6.14645 11.8536L3.93934 10L4.64645 9.29289L6 10.2929V7H2.70711L3.70711 8.29289L3 9L1.14645 6.85355C0.951184 6.65829 0.951184 6.34171 1.14645 6.14645L3 4L3.70711 4.70711L2.70711 6H6V2.70711L4.64645 3.70711L3.93934 3L6.14645 1.14645Z" fill="black"/>
</svg>
