<svg width="12" height="12" viewBox="0 0 12 12" fill="none" xmlns="http://www.w3.org/2000/svg">
<path fill-rule="evenodd" clip-rule="evenodd" d="M0 1.5V2.5H1V1.5H0ZM0.5 1H0V0H1V0.5H0.5V1ZM1.5 0H2.5V1H1.5V0ZM0 12V11H0.5V11.5H1V12H0ZM11.5 11H12V12H11V11.5H11.5V11ZM12 0V1H11.5V0.5H11V0H12ZM4.5 1H3.5V0H4.5V1ZM6.5 1H5.5V0H6.5V1ZM8.5 1H7.5V0H8.5V1ZM10.5 1H9.5V0H10.5V1ZM11 1.5H12V2.5H11V1.5ZM11 3.5H12V4.5H11V3.5ZM11 5.5H12V6.5H11V5.5ZM11 7.5H12V8.5H11V7.5ZM11 9.5H12V10.5H11V9.5ZM7.5 11H8.5V12H7.5V11ZM5.5 11H6.5V12H5.5V11ZM10.5 11V12H9.5V11H10.5ZM4.5 11V12H3.5V11H4.5ZM2.5 11V12H1.5V11H2.5ZM1 9.5V10.5H0V9.5H1ZM1 7.5V8.5H0V7.5H1ZM1 5.5V6.5H0V5.5H1ZM1 3.5V4.5H0V3.5H1ZM3 4V3H9V4H3Z" fill="black"/>
</svg>
