<svg width="12" height="12" viewBox="0 0 12 12" fill="none" xmlns="http://www.w3.org/2000/svg">
<path fill-rule="evenodd" clip-rule="evenodd" d="M12 10.5V9.5H11V10.5H12ZM11.5 11H12V12H11V11.5H11.5V11ZM10.5 12H9.5V11H10.5V12ZM12 0V1L11.5 1V0.5H11V0L12 0ZM0.5 1L0 1V0L1 0L1 0.5L0.5 0.5V1ZM0 12V11H0.5L0.5 11.5H1L1 12H0ZM7.5 11H8.5V12H7.5V11ZM5.5 11H6.5V12H5.5V11ZM3.5 11H4.5V12H3.5V11ZM1.5 11H2.5V12H1.5V11ZM1 10.5H0V9.5H1V10.5ZM1 8.5H0V7.5H1L1 8.5ZM1 6.5H0V5.5H1V6.5ZM1 4.5H0V3.5H1V4.5ZM1 2.5H0V1.5H1V2.5ZM4.5 1L3.5 1V0L4.5 0V1ZM6.5 1H5.5V0L6.5 0V1ZM1.5 1V0L2.5 0V1H1.5ZM7.5 1V0L8.5 0V1H7.5ZM9.5 1V0L10.5 0V1H9.5ZM11 2.5V1.5H12V2.5H11ZM11 4.5V3.5H12V4.5H11ZM11 6.5V5.5H12V6.5H11ZM11 8.5V7.5H12V8.5H11ZM9 8V9H3V8L9 8Z" fill="black"/>
</svg>
