<svg width="12" height="12" viewBox="0 0 12 12" fill="none" xmlns="http://www.w3.org/2000/svg">
<path d="M1 7H11V6H1V7ZM1 2V4H11V2L1 2Z" fill="black"/>
<path d="M3.5 10H2.5V9H3.5V10Z" fill="black"/>
<path d="M6.5 10H5.5V9H6.5V10Z" fill="black"/>
<path d="M8 10H7V9.5V9H8V10Z" fill="black"/>
<path d="M9.5 10H8.5V9H9.5V10Z" fill="black"/>
<path d="M3.5 10H2.5V9H3.5V10Z" fill="black"/>
<path d="M6.5 10H5.5V9H6.5V10Z" fill="black"/>
<path d="M8 10H7V9.5V9H8V10Z" fill="black"/>
<path d="M9.5 10H8.5V9H9.5V10Z" fill="black"/>
<path d="M11 10H10V9H11V10Z" fill="black"/>
<path d="M11 10H10V9H11V10Z" fill="black"/>
<path d="M2 10H1V9H2L2 10Z" fill="black"/>
<path d="M5 10H4V9H5V10Z" fill="black"/>
<path d="M5 10H4V9H5V10Z" fill="black"/>
</svg>
