<svg width="12" height="12" viewBox="0 0 12 12" fill="none" xmlns="http://www.w3.org/2000/svg">
<path fill-rule="evenodd" clip-rule="evenodd" d="M5.5 4C6.32843 4 7 3.32843 7 2.5C7 1.67157 6.32843 1 5.5 1C4.67157 1 4 1.67157 4 2.5C4 3.32843 4.67157 4 5.5 4ZM5.5 11C6.32843 11 7 10.3284 7 9.5C7 8.67157 6.32843 8 5.5 8C4.67157 8 4 8.67157 4 9.5C4 10.3284 4.67157 11 5.5 11ZM5.5 5C6.88071 5 8 3.88071 8 2.5C8 1.11929 6.88071 0 5.5 0C4.11929 0 3 1.11929 3 2.5C3 3.88071 4.11929 5 5.5 5ZM5.5 12C6.88071 12 8 10.8807 8 9.5C8 8.11929 6.88071 7 5.5 7C4.11929 7 3 8.11929 3 9.5C3 10.8807 4.11929 12 5.5 12Z" fill="black"/>
</svg>
