<svg width="12" height="12" viewBox="0 0 12 12" fill="none" xmlns="http://www.w3.org/2000/svg">
<path d="M6.88716 5.11364V0H6.00778C5.97665 0.194805 5.9118 0.357955 5.81323 0.489448C5.71466 0.620942 5.59274 0.728085 5.44747 0.810877C5.30739 0.888799 5.14656 0.944805 4.96498 0.978896C4.78859 1.00812 4.60441 1.02029 4.41245 1.01542V1.79708H5.7821V5.11364H6.88716Z" fill="black"/>
<path d="M4.12451 8.85146H5.18288C5.18288 8.7151 5.19585 8.57873 5.22179 8.44237C5.25292 8.30114 5.3022 8.17451 5.36965 8.0625C5.43709 7.94562 5.52529 7.85308 5.63424 7.7849C5.74838 7.71185 5.88586 7.67532 6.04669 7.67532C6.28534 7.67532 6.4799 7.74594 6.63035 7.88718C6.78599 8.02354 6.86381 8.21591 6.86381 8.46429C6.86381 8.62013 6.8249 8.75893 6.74708 8.88068C6.67445 9.00244 6.58106 9.11201 6.46693 9.20942C6.35798 9.30682 6.23606 9.39692 6.10117 9.47971C5.96628 9.55763 5.83917 9.63555 5.71984 9.71347C5.48638 9.86445 5.26329 10.013 5.05058 10.1591C4.84306 10.3052 4.66148 10.4659 4.50584 10.6412C4.35019 10.8117 4.22568 11.0065 4.1323 11.2257C4.0441 11.4448 4 11.7029 4 12H8V11.1088H5.42412C5.55901 10.9334 5.71466 10.78 5.89105 10.6485C6.06744 10.517 6.24903 10.3953 6.4358 10.2833C6.62257 10.1664 6.80674 10.0495 6.98833 9.93263C7.1751 9.81575 7.34112 9.68669 7.48638 9.54545C7.63165 9.39935 7.74838 9.23377 7.83658 9.0487C7.92477 8.86364 7.96887 8.64205 7.96887 8.38393C7.96887 8.13555 7.91699 7.91153 7.81323 7.71185C7.71466 7.51217 7.57977 7.34416 7.40856 7.20779C7.23735 7.07143 7.03761 6.96672 6.80934 6.89367C6.58625 6.82062 6.35019 6.78409 6.10117 6.78409C5.77432 6.78409 5.48379 6.83766 5.22957 6.9448C4.98054 7.04708 4.77302 7.19318 4.607 7.38312C4.44099 7.56818 4.31647 7.78734 4.23346 8.04058C4.15045 8.28896 4.11414 8.55925 4.12451 8.85146Z" fill="black"/>
</svg>
