<svg width="12" height="12" viewBox="0 0 12 12" fill="none" xmlns="http://www.w3.org/2000/svg">
<path d="M4.11786 1.42127C4.1326 1.14742 4.19398 0.920128 4.30203 0.739389C4.41007 0.558649 4.54758 0.41351 4.71455 0.303971C4.88152 0.194432 5.06814 0.117755 5.2744 0.073939C5.48557 0.0246465 5.69675 0 5.90792 0C6.09945 0 6.29343 0.0164309 6.48987 0.0492926C6.68631 0.0766773 6.86556 0.134186 7.02762 0.221817C7.18969 0.309448 7.32228 0.432679 7.42541 0.591511C7.52855 0.744866 7.58011 0.950251 7.58011 1.20767V3.41762C7.58011 3.60931 7.58993 3.79279 7.60958 3.96805C7.62922 4.14331 7.6636 4.27476 7.71271 4.36239H6.65193C6.63229 4.29667 6.6151 4.23094 6.60037 4.16522C6.59055 4.09402 6.58318 4.02282 6.57827 3.95162C6.4113 4.14331 6.21486 4.2775 5.98895 4.35418C5.76304 4.43085 5.53223 4.46919 5.2965 4.46919C5.11479 4.46919 4.94537 4.44455 4.78821 4.39525C4.63106 4.34596 4.49355 4.26928 4.37569 4.16522C4.25783 4.06116 4.16452 3.92971 4.09576 3.77088C4.03192 3.61205 4 3.42309 4 3.20402C4 2.96303 4.03683 2.76586 4.1105 2.61251C4.18907 2.45367 4.28729 2.3277 4.40516 2.2346C4.52793 2.14149 4.66544 2.07303 4.81768 2.02921C4.97483 1.97992 5.13198 1.94158 5.28913 1.91419C5.44629 1.88681 5.60098 1.8649 5.75322 1.84847C5.90546 1.83204 6.04052 1.80739 6.15838 1.77453C6.27624 1.74167 6.36955 1.69512 6.43831 1.63487C6.50706 1.56915 6.53898 1.47604 6.53407 1.35555C6.53407 1.22958 6.51443 1.13099 6.47514 1.05979C6.44076 0.983113 6.39165 0.925605 6.32781 0.887266C6.26888 0.84345 6.19767 0.816066 6.11418 0.805112C6.0356 0.788681 5.94966 0.780466 5.85635 0.780466C5.65009 0.780466 5.48803 0.829758 5.37017 0.928344C5.2523 1.02693 5.18355 1.19124 5.1639 1.42127H4.11786ZM6.53407 2.28389C6.48987 2.3277 6.43339 2.3633 6.36464 2.39069C6.3008 2.4126 6.22959 2.43177 6.15101 2.4482C6.07735 2.46463 5.99877 2.47832 5.91529 2.48927C5.8318 2.50023 5.74831 2.51392 5.66482 2.53035C5.58625 2.54678 5.50767 2.56869 5.4291 2.59608C5.35543 2.62346 5.28913 2.6618 5.2302 2.71109C5.17618 2.75491 5.13198 2.81241 5.09761 2.88362C5.06323 2.95482 5.04604 3.04519 5.04604 3.15472C5.04604 3.25879 5.06323 3.34642 5.09761 3.41762C5.13198 3.48882 5.17864 3.54633 5.23757 3.59014C5.2965 3.62848 5.36525 3.65586 5.44383 3.6723C5.52241 3.68873 5.60344 3.69694 5.68692 3.69694C5.89319 3.69694 6.05279 3.6586 6.16575 3.58193C6.2787 3.50525 6.36219 3.41488 6.41621 3.31082C6.47023 3.20128 6.50215 3.09174 6.51197 2.9822C6.5267 2.87266 6.53407 2.78503 6.53407 2.71931V2.28389Z" fill="black"/>
<path d="M6.95396 9.77362C6.95396 9.94888 6.93677 10.1187 6.90239 10.283C6.86802 10.4473 6.814 10.5924 6.74033 10.7184C6.66667 10.8444 6.57336 10.9457 6.46041 11.0224C6.35236 11.0936 6.21977 11.1292 6.06261 11.1292C5.91037 11.1292 5.77778 11.0936 5.66482 11.0224C5.55187 10.9457 5.45856 10.8444 5.3849 10.7184C5.31123 10.5924 5.25721 10.4473 5.22284 10.283C5.18846 10.1187 5.17127 9.94888 5.17127 9.77362C5.17127 9.59288 5.18846 9.42036 5.22284 9.25605C5.25721 9.09174 5.31123 8.9466 5.3849 8.82063C5.45856 8.69466 5.55187 8.59607 5.66482 8.52487C5.77778 8.4482 5.91037 8.40986 6.06261 8.40986C6.21977 8.40986 6.35236 8.4482 6.46041 8.52487C6.57336 8.59607 6.66667 8.69466 6.74033 8.82063C6.814 8.9466 6.86802 9.09174 6.90239 9.25605C6.93677 9.42036 6.95396 9.59288 6.95396 9.77362ZM4.16206 6.02738V11.8932H5.15654V11.351H5.17127C5.28422 11.5865 5.4512 11.7535 5.67219 11.8521C5.89319 11.9507 6.14365 12 6.42357 12C6.6151 12 6.80417 11.9562 6.99079 11.8686C7.17741 11.7809 7.34438 11.6467 7.49171 11.466C7.64395 11.2853 7.76673 11.0552 7.86004 10.7759C7.95335 10.4911 8 10.1543 8 9.7654C8 9.37654 7.95335 9.04245 7.86004 8.76312C7.76673 8.47832 7.64395 8.24555 7.49171 8.06481C7.34438 7.88407 7.17741 7.74989 6.99079 7.66225C6.80417 7.57462 6.6151 7.53081 6.42357 7.53081C6.18785 7.53081 5.95948 7.58284 5.73849 7.6869C5.52241 7.78549 5.35052 7.94432 5.22284 8.1634H5.2081V6.02738H4.16206Z" fill="black"/>
</svg>
