<svg width="12" height="12" viewBox="0 0 12 12" fill="none" xmlns="http://www.w3.org/2000/svg">
<path d="M2.35203 7.29412L3.20983 4.72549H3.22827L4.0584 7.29412H2.35203ZM2.49038 3L0 10H1.45733L1.97386 8.44118H4.43657L4.93465 10H6.4381L3.97539 3H2.49038Z" fill="black"/>
<path d="M7.93238 5.83333V4.19608H9.28825C9.41738 4.19608 9.54036 4.20915 9.6572 4.23529C9.78018 4.2549 9.88779 4.29412 9.98002 4.35294C10.0723 4.41176 10.146 4.49346 10.2014 4.59804C10.2567 4.70261 10.2844 4.8366 10.2844 5C10.2844 5.29412 10.2014 5.50654 10.0354 5.63726C9.86934 5.76797 9.6572 5.83333 9.39893 5.83333H7.93238ZM6.48426 3V10H9.67564C9.9708 10 10.2567 9.96078 10.5334 9.88235C10.8163 9.80392 11.0653 9.68301 11.2806 9.51961C11.5019 9.35621 11.6772 9.14706 11.8063 8.89216C11.9354 8.63072 12 8.32353 12 7.97059C12 7.53268 11.8985 7.16013 11.6956 6.85294C11.4988 6.53922 11.1975 6.32026 10.7917 6.19608C11.0869 6.04575 11.3082 5.85294 11.4558 5.61765C11.6095 5.38235 11.6864 5.08824 11.6864 4.73529C11.6864 4.4085 11.6341 4.13399 11.5296 3.91176C11.4312 3.68954 11.2898 3.51307 11.1053 3.38235C10.9208 3.2451 10.6995 3.14706 10.4412 3.08824C10.1829 3.02941 9.89701 3 9.58341 3H6.48426ZM7.93238 8.80392V6.88235H9.50962C9.82322 6.88235 10.0753 6.96078 10.266 7.11765C10.4566 7.26797 10.5519 7.52288 10.5519 7.88235C10.5519 8.06536 10.5211 8.21569 10.4597 8.33333C10.4043 8.45098 10.3274 8.54575 10.2291 8.61765C10.1307 8.68301 10.0169 8.73203 9.88779 8.76471C9.75866 8.79085 9.62338 8.80392 9.48195 8.80392H7.93238Z" fill="black"/>
</svg>
