<svg width="12" height="12" viewBox="0 0 12 12" fill="none" xmlns="http://www.w3.org/2000/svg">
<path d="M9.97 10.56C9.42 9.09 9.15 7.545 9.15 6C9.15 4.455 9.425 2.91 9.97 1.44C9.99 1.385 10 1.33 10 1.285C10 1.115 9.885 1 9.685 1H2.315C2.115 1 2 1.115 2 1.285C2 1.335 2.01 1.385 2.03 1.44C2.58 2.91 2.855 4.455 2.855 6C2.855 7.545 2.58 9.09 2.035 10.56C2.01 10.615 2 10.67 2 10.715C2 10.88 2.115 11 2.315 11H9.69C9.885 11 10.005 10.88 10.005 10.715C10 10.665 9.99 10.615 9.97 10.56ZM3.27 10C3.655 8.7 3.85 7.36 3.85 6C3.85 4.64 3.655 3.3 3.27 2H8.725C8.34 3.3 8.145 4.64 8.145 6C8.145 7.36 8.34 8.7 8.725 10H3.27Z" fill="black"/>
</svg>
