<svg width="12" height="12" viewBox="0 0 12 12" fill="none" xmlns="http://www.w3.org/2000/svg">
<g clip-path="url(#clip0_2_238)">
<path d="M3.7817 11.0081C4.04803 11.0793 4.32184 10.9212 4.39311 10.6542C4.46438 10.3879 4.30621 10.1141 4.03927 10.0428C2.94461 9.74963 2.07315 9.0407 1.54805 8.13113C1.02355 7.22276 0.845996 6.11316 1.13919 5.01847C1.43239 3.92381 2.14133 3.05235 3.0509 2.52725C3.95927 2.00274 5.06887 1.82519 6.16356 2.11839C7.25822 2.41159 8.12968 3.12053 8.65478 4.03009C9.17928 4.93846 9.35683 6.04807 9.06364 7.14276C8.99237 7.40908 9.15053 7.6829 9.41747 7.75416C9.6838 7.82543 9.95762 7.66727 10.0289 7.40033C10.3933 6.04059 10.1714 4.66088 9.51812 3.52923C8.86546 2.39893 7.78135 1.51749 6.42099 1.15228C5.06125 0.787814 3.68154 1.00974 2.54989 1.66304C1.41959 2.31571 0.538155 3.39982 0.172939 4.76017C-0.191525 6.11991 0.0304022 7.49962 0.683698 8.63128C1.33637 9.76157 2.42134 10.6429 3.7817 11.0081Z" fill="black"/>
<path d="M11.8181 6.05111C12.0307 5.87605 12.0613 5.56223 11.8863 5.34968C11.7112 5.13712 11.3974 5.10649 11.1848 5.28153L9.61442 6.57374L8.06977 5.27927C7.89472 5.06672 7.58089 5.03609 7.36834 5.21113C7.15579 5.38617 7.12516 5.70001 7.3002 5.91256L9.1343 7.55903C9.14243 7.57091 9.15118 7.58216 9.15993 7.59341C9.33561 7.80659 9.65068 7.83722 9.86386 7.66156L9.86261 7.66031L11.8181 6.05111Z" fill="black"/>
</g>
<defs>
<clipPath id="clip0_2_238">
<rect width="12" height="12" fill="white"/>
</clipPath>
</defs>
</svg>
