<svg width="12" height="12" viewBox="0 0 12 12" fill="none" xmlns="http://www.w3.org/2000/svg">
<path d="M7.84615 0C6.83077 0 5.85577 0.363462 5.16346 1.00962C5.44038 0.963462 5.72308 0.923077 6 0.923077C6.36923 0.923077 6.69808 0.963462 7.06731 1.00962C7.29808 0.963462 7.56923 0.923077 7.84615 0.923077C9.64615 0.923077 11.0769 2.35385 11.0769 4.15385C11.0769 4.43077 11.0365 4.70192 10.9904 4.93269C11.0827 5.25577 11.0769 5.63077 11.0769 6C11.0769 6.27692 11.0365 6.55962 10.9904 6.83654C11.6365 6.14423 12 5.16923 12 4.15385C12 1.84615 10.1538 0 7.84615 0ZM6 1.84615C4.98462 1.84615 4.00962 2.20962 3.31731 2.85577C3.59423 2.80962 3.87692 2.76923 4.15385 2.76923C4.52308 2.76923 4.85192 2.80962 5.22115 2.85577C5.45192 2.80962 5.72308 2.76923 6 2.76923C7.8 2.76923 9.23077 4.2 9.23077 6C9.23077 6.27692 9.19038 6.54808 9.14423 6.77885C9.23654 7.10192 9.23077 7.47692 9.23077 7.84615C9.23077 8.12308 9.19038 8.40577 9.14423 8.68269C9.74423 7.94423 10.1538 7.01538 10.1538 6C10.1538 3.69231 8.30769 1.84615 6 1.84615ZM4.15385 3.69231C1.84615 3.69231 0 5.53846 0 7.84615C0 10.1538 1.84615 12 4.15385 12C6.46154 12 8.30769 10.1538 8.30769 7.84615C8.30769 5.53846 6.46154 3.69231 4.15385 3.69231ZM4.15385 4.61538C5.95385 4.61538 7.38462 6.04615 7.38462 7.84615C7.38462 9.64615 5.95385 11.0769 4.15385 11.0769C2.35385 11.0769 0.923077 9.64615 0.923077 7.84615C0.923077 6.04615 2.35385 4.61538 4.15385 4.61538Z" fill="black"/>
<path fill-rule="evenodd" clip-rule="evenodd" d="M10.8536 1.85164L4.35359 8.35164L3.64648 7.64453L10.1465 1.14453L10.8536 1.85164Z" fill="black"/>
</svg>
