<svg width="160" height="160" viewBox="0 0 160 160" fill="none" xmlns="http://www.w3.org/2000/svg">
<path d="M79.79 124.79C54.98 124.79 34.79 104.6 34.79 79.79C34.79 54.98 54.98 34.79 79.79 34.79C104.6 34.79 124.79 54.98 124.79 79.79C124.79 104.6 104.6 124.79 79.79 124.79ZM79.79 35.79C55.53 35.79 35.79 55.53 35.79 79.79C35.79 104.05 55.53 123.79 79.79 123.79C104.05 123.79 123.79 104.05 123.79 79.79C123.79 55.53 104.05 35.79 79.79 35.79ZM79.79 109.48C63.42 109.48 50.1 96.16 50.1 79.79H51.1C51.1 95.61 63.97 108.48 79.79 108.48C95.61 108.48 108.48 95.61 108.48 79.79H109.48C109.48 96.16 96.16 109.48 79.79 109.48ZM86.48 72.27C85.25 72.27 84.17 71.37 83.42 69.72C82.79 68.33 82.44 66.5 82.44 64.58C82.44 62.66 82.79 60.83 83.42 59.44C84.17 57.8 85.25 56.89 86.48 56.89C87.71 56.89 88.79 57.79 89.54 59.44C90.17 60.83 90.52 62.66 90.52 64.58C90.52 66.5 90.17 68.34 89.54 69.72C88.79 71.36 87.71 72.27 86.48 72.27ZM86.48 57.9C85.38 57.9 84.66 59.13 84.33 59.86C83.76 61.12 83.44 62.8 83.44 64.59C83.44 66.38 83.76 68.06 84.33 69.32C84.66 70.05 85.38 71.28 86.48 71.28C87.58 71.28 88.3 70.05 88.63 69.32C89.2 68.06 89.52 66.38 89.52 64.59C89.52 62.8 89.2 61.12 88.63 59.86C88.3 59.13 87.58 57.9 86.48 57.9ZM73.1 72.27C71.87 72.27 70.79 71.37 70.04 69.72C69.41 68.33 69.06 66.5 69.06 64.58C69.06 62.66 69.41 60.83 70.04 59.44C70.79 57.8 71.87 56.89 73.1 56.89C74.33 56.89 75.41 57.79 76.16 59.44C76.79 60.83 77.14 62.66 77.14 64.58C77.14 66.5 76.79 68.33 76.16 69.72C75.41 71.36 74.33 72.27 73.1 72.27ZM73.1 57.9C72 57.9 71.28 59.13 70.95 59.86C70.38 61.12 70.06 62.8 70.06 64.59C70.06 66.38 70.38 68.06 70.95 69.32C71.28 70.05 72 71.28 73.1 71.28C74.2 71.28 74.92 70.05 75.25 69.32C75.82 68.06 76.14 66.38 76.14 64.59C76.14 62.8 75.82 61.12 75.25 59.86C74.92 59.13 74.2 57.9 73.1 57.9Z" fill="#111111"/>
<path d="M24.9998 39.9899C21.1598 39.9899 17.3198 38.5299 14.3898 35.5999C8.54977 29.7599 8.54977 20.2399 14.3898 14.3899C20.2298 8.53994 29.7498 8.53994 35.5998 14.3899C41.4498 20.2399 41.4498 29.7499 35.5998 35.5999C32.6798 38.5199 28.8298 39.9899 24.9898 39.9899H24.9998ZM24.9998 11.0099C21.4198 11.0099 17.8298 12.3699 15.0998 15.0999C9.63977 20.5599 9.63977 29.4399 15.0998 34.8999C20.5598 40.3599 29.4398 40.3599 34.8998 34.8999C40.3598 29.4399 40.3598 20.5599 34.8998 15.0999C32.1698 12.3699 28.5898 11.0099 24.9998 11.0099ZM24.9998 35.2299C22.3798 35.2299 19.7598 34.2299 17.7698 32.2399L18.4798 31.5299C22.0798 35.1299 27.9298 35.1299 31.5298 31.5299C35.1298 27.9299 35.1298 22.0799 31.5298 18.4799L32.2398 17.7699C36.2298 21.7599 36.2298 28.2499 32.2398 32.2399C30.2498 34.2299 27.6298 35.2299 25.0098 35.2299H24.9998ZM20.9798 25.7199C20.6998 25.7199 20.3998 25.6599 20.0998 25.5499C19.5398 25.3399 18.9398 24.9399 18.4198 24.4199C17.8998 23.8999 17.4998 23.2999 17.2898 22.7399C16.9898 21.9299 17.0898 21.1899 17.5598 20.7099C18.0398 20.2299 18.7798 20.1299 19.5898 20.4399C20.1498 20.6499 20.7498 21.0499 21.2698 21.5699C21.7898 22.0899 22.1898 22.6899 22.3998 23.2499C22.6998 24.0599 22.5998 24.7999 22.1298 25.2799C21.8298 25.5799 21.4398 25.7299 20.9898 25.7299L20.9798 25.7199ZM18.6998 21.2599C18.5398 21.2599 18.3798 21.2999 18.2698 21.4199C18.0098 21.6799 18.1298 22.1399 18.2298 22.3899C18.3898 22.8199 18.7098 23.2899 19.1298 23.7099C19.5498 24.1299 20.0198 24.4499 20.4598 24.6099C20.7098 24.6999 21.1698 24.8199 21.4298 24.5699C21.6898 24.3099 21.5698 23.8499 21.4698 23.5999C21.3098 23.1699 20.9898 22.6999 20.5698 22.2699C20.1498 21.8399 19.6798 21.5299 19.2398 21.3699C19.0998 21.3199 18.8998 21.2599 18.7098 21.2599H18.6998ZM24.1398 22.5699C23.8598 22.5699 23.5598 22.5099 23.2598 22.3999C22.6998 22.1899 22.0998 21.7899 21.5798 21.2699C21.0598 20.7499 20.6598 20.1499 20.4498 19.5899C20.1498 18.7799 20.2498 18.0399 20.7198 17.5599C21.1998 17.0799 21.9398 16.9799 22.7498 17.2899C23.3098 17.4999 23.9098 17.8999 24.4298 18.4199C24.9498 18.9399 25.3498 19.5399 25.5598 20.0999C25.8598 20.9099 25.7598 21.6499 25.2898 22.1299C24.9898 22.4299 24.5998 22.5799 24.1498 22.5799L24.1398 22.5699ZM21.8498 18.1099C21.6898 18.1099 21.5298 18.1499 21.4198 18.2699C21.1598 18.5299 21.2798 18.9899 21.3798 19.2399C21.5398 19.6699 21.8598 20.1399 22.2798 20.5599C22.6998 20.9799 23.1698 21.2999 23.6098 21.4599C23.8598 21.5499 24.3198 21.6699 24.5798 21.4199C24.8398 21.1599 24.7198 20.6999 24.6198 20.4499C24.4598 20.0199 24.1398 19.5499 23.7198 19.1299C23.2998 18.7099 22.8298 18.3899 22.3898 18.2299C22.2498 18.1799 22.0498 18.1199 21.8598 18.1199L21.8498 18.1099Z" fill="#111111"/>
<path d="M25 149.99C21.16 149.99 17.32 148.53 14.39 145.6C11.56 142.77 10 139 10 134.99C10 130.98 11.56 127.22 14.39 124.38C17.22 121.55 20.99 119.99 25 119.99C29.01 119.99 32.77 121.55 35.61 124.38C38.45 127.21 40 130.98 40 134.99C40 139 38.44 142.76 35.61 145.6C32.69 148.52 28.84 149.99 25 149.99ZM25 121C21.26 121 17.75 122.46 15.1 125.1C12.46 127.74 11 131.26 11 135C11 138.74 12.46 142.25 15.1 144.9C20.56 150.36 29.44 150.36 34.9 144.9C37.54 142.26 39 138.74 39 135C39 131.26 37.54 127.75 34.9 125.1C32.26 122.46 28.74 121 25 121ZM21.85 142.89C21.4 142.89 21 142.74 20.71 142.44C20.23 141.96 20.13 141.22 20.44 140.41C20.65 139.84 21.05 139.25 21.57 138.73C22.09 138.21 22.69 137.81 23.25 137.6C24.06 137.3 24.8 137.39 25.28 137.87C25.76 138.35 25.86 139.09 25.55 139.9C25.34 140.46 24.94 141.06 24.42 141.58C23.9 142.1 23.31 142.5 22.74 142.71C22.43 142.83 22.13 142.88 21.85 142.88V142.89ZM24.14 138.43C23.94 138.43 23.74 138.49 23.6 138.54C23.17 138.7 22.7 139.02 22.28 139.44C21.86 139.86 21.54 140.33 21.37 140.77C21.28 141.02 21.16 141.48 21.41 141.74C21.67 142 22.13 141.88 22.38 141.78C22.82 141.62 23.29 141.29 23.7 140.87C24.12 140.45 24.44 139.98 24.61 139.54C24.7 139.29 24.82 138.83 24.57 138.57C24.45 138.45 24.3 138.41 24.14 138.41V138.43ZM32.23 142.23L31.52 141.52C33.26 139.78 34.22 137.46 34.22 134.99C34.22 132.52 33.26 130.21 31.52 128.46C27.92 124.86 22.06 124.86 18.47 128.46L17.76 127.75C21.75 123.76 28.24 123.76 32.23 127.75C34.16 129.68 35.23 132.25 35.23 134.98C35.23 137.71 34.17 140.28 32.23 142.21V142.23ZM18.7 139.74C18.25 139.74 17.85 139.59 17.56 139.29C17.08 138.81 16.98 138.07 17.29 137.26C17.5 136.7 17.9 136.1 18.42 135.58C18.94 135.06 19.54 134.66 20.1 134.45C20.91 134.15 21.65 134.25 22.13 134.73C22.61 135.21 22.71 135.95 22.4 136.76C22.19 137.32 21.79 137.92 21.27 138.44C20.75 138.96 20.15 139.36 19.59 139.57C19.28 139.69 18.98 139.74 18.71 139.74H18.7ZM20.98 135.27C20.78 135.27 20.58 135.33 20.44 135.38C20.01 135.54 19.54 135.86 19.12 136.28C18.7 136.7 18.38 137.17 18.21 137.61C18.12 137.86 18 138.32 18.25 138.58C18.51 138.84 18.97 138.72 19.22 138.63C19.65 138.47 20.12 138.15 20.54 137.72C20.96 137.3 21.28 136.83 21.44 136.4C21.53 136.15 21.65 135.69 21.4 135.43C21.28 135.31 21.13 135.27 20.97 135.27H20.98Z" fill="#111111"/>
<path d="M135 150C130.99 150 127.23 148.44 124.39 145.61C121.56 142.78 120 139.01 120 135C120 130.99 121.56 127.23 124.39 124.39C127.22 121.55 130.99 120 135 120C139.01 120 142.77 121.56 145.61 124.39C151.46 130.24 151.46 139.75 145.61 145.6C142.78 148.43 139.01 149.99 135 149.99V150ZM135 121C131.26 121 127.75 122.46 125.1 125.1C122.45 127.74 121 131.26 121 135C121 138.74 122.46 142.25 125.1 144.9C127.74 147.54 131.26 149 135 149C138.74 149 142.25 147.54 144.9 144.9C150.36 139.44 150.36 130.56 144.9 125.1C142.26 122.46 138.74 121 135 121ZM138.15 142.89C137.87 142.89 137.58 142.83 137.27 142.72C136.7 142.51 136.11 142.1 135.59 141.59C135.07 141.07 134.67 140.47 134.46 139.91C134.16 139.1 134.26 138.36 134.73 137.88C135.21 137.4 135.95 137.3 136.76 137.61C137.32 137.82 137.92 138.22 138.44 138.74C138.96 139.26 139.36 139.86 139.57 140.42C139.87 141.23 139.77 141.97 139.3 142.45C139 142.75 138.61 142.9 138.16 142.9L138.15 142.89ZM135.86 138.43C135.7 138.43 135.54 138.47 135.43 138.59C135.17 138.85 135.29 139.31 135.38 139.56C135.54 139.99 135.87 140.47 136.29 140.89C136.71 141.31 137.18 141.63 137.62 141.8C137.87 141.89 138.33 142.01 138.59 141.75C138.85 141.49 138.73 141.03 138.63 140.78C138.47 140.35 138.15 139.88 137.72 139.46C137.29 139.04 136.83 138.72 136.4 138.56C136.26 138.51 136.06 138.45 135.86 138.45V138.43ZM127.77 142.23C123.78 138.24 123.78 131.75 127.77 127.76C129.7 125.83 132.27 124.76 135 124.76C137.73 124.76 140.3 125.82 142.23 127.76L141.52 128.47C139.78 126.73 137.46 125.77 134.99 125.77C132.52 125.77 130.21 126.73 128.46 128.47C124.86 132.07 124.86 137.92 128.46 141.52L127.75 142.23H127.77ZM141.3 139.74C141.02 139.74 140.72 139.68 140.41 139.57C139.85 139.36 139.25 138.96 138.73 138.44C138.21 137.92 137.81 137.32 137.6 136.76C137.3 135.95 137.4 135.21 137.87 134.73C138.35 134.25 139.09 134.15 139.9 134.46C140.46 134.67 141.06 135.07 141.58 135.59C142.1 136.11 142.5 136.71 142.71 137.27C143.01 138.08 142.92 138.82 142.44 139.3C142.15 139.6 141.75 139.75 141.3 139.75V139.74ZM138.58 135.43C138.32 135.69 138.44 136.15 138.54 136.4C138.7 136.83 139.02 137.3 139.44 137.73C139.86 138.15 140.33 138.47 140.76 138.63C141.01 138.73 141.47 138.84 141.73 138.59C141.99 138.34 141.87 137.87 141.77 137.62C141.61 137.19 141.29 136.72 140.87 136.29C140.45 135.87 139.98 135.55 139.54 135.39C139.29 135.3 138.83 135.18 138.57 135.43H138.58Z" fill="#111111"/>
<path d="M135 40C130.99 40 127.23 38.44 124.39 35.61C121.55 32.78 120 29.01 120 25C120 20.99 121.56 17.23 124.39 14.39C127.22 11.55 130.99 10 135 10C139.01 10 142.77 11.56 145.61 14.39C148.45 17.22 150 20.99 150 25C150 29.01 148.44 32.77 145.61 35.61C142.78 38.45 139.01 40 135 40ZM135 11C131.26 11 127.75 12.46 125.1 15.1C122.46 17.74 121 21.26 121 25C121 28.74 122.46 32.26 125.1 34.9C127.74 37.54 131.26 39 135 39C138.74 39 142.25 37.54 144.9 34.9C147.54 32.26 149 28.74 149 25C149 21.26 147.54 17.75 144.9 15.1C142.26 12.46 138.74 11 135 11ZM135 35.22C132.38 35.22 129.76 34.22 127.77 32.23C125.84 30.3 124.77 27.73 124.77 25C124.77 22.27 125.83 19.7 127.77 17.77L128.48 18.48C126.74 20.22 125.78 22.54 125.78 25.01C125.78 27.48 126.74 29.79 128.48 31.54C132.08 35.14 137.93 35.14 141.53 31.54L142.24 32.25C140.25 34.24 137.63 35.24 135.01 35.24L135 35.22ZM139.02 25.72C138.57 25.72 138.17 25.57 137.88 25.27C137.4 24.79 137.3 24.05 137.61 23.24C137.82 22.68 138.22 22.08 138.74 21.56C139.26 21.04 139.86 20.64 140.42 20.43C141.23 20.13 141.97 20.23 142.45 20.7C142.93 21.18 143.03 21.92 142.73 22.73C142.52 23.29 142.12 23.89 141.6 24.41C141.08 24.93 140.48 25.33 139.92 25.54C139.61 25.66 139.31 25.71 139.04 25.71L139.02 25.72ZM141.3 21.26C141.1 21.26 140.9 21.32 140.76 21.37C140.33 21.53 139.86 21.85 139.44 22.27C139.02 22.69 138.7 23.16 138.53 23.59C138.44 23.84 138.32 24.3 138.58 24.56C138.84 24.82 139.3 24.7 139.55 24.6C139.98 24.44 140.45 24.12 140.88 23.69C141.3 23.27 141.62 22.8 141.78 22.37C141.87 22.12 141.99 21.66 141.74 21.4C141.62 21.28 141.47 21.24 141.31 21.24L141.3 21.26ZM135.87 22.57C135.42 22.57 135.02 22.42 134.73 22.12C134.25 21.64 134.15 20.9 134.46 20.09C134.67 19.52 135.08 18.93 135.59 18.41C136.11 17.89 136.71 17.49 137.27 17.28C138.08 16.98 138.82 17.08 139.3 17.55C139.78 18.03 139.88 18.77 139.57 19.58C139.36 20.14 138.96 20.74 138.44 21.26C137.92 21.78 137.32 22.18 136.76 22.39C136.45 22.51 136.15 22.56 135.88 22.56L135.87 22.57ZM135.43 21.42C135.69 21.68 136.15 21.56 136.4 21.46C136.83 21.3 137.3 20.98 137.73 20.56C138.16 20.14 138.47 19.67 138.63 19.24C138.72 18.99 138.84 18.53 138.59 18.27C138.33 18.01 137.87 18.13 137.62 18.23C137.19 18.39 136.72 18.71 136.29 19.13C135.86 19.55 135.55 20.02 135.38 20.46C135.29 20.71 135.17 21.17 135.42 21.43L135.43 21.42Z" fill="#111111"/>
</svg>
