<svg width="160" height="160" viewBox="0 0 160 160" fill="none" xmlns="http://www.w3.org/2000/svg">
<path d="M80 140C46.92 140 20 113.08 20 80C20 46.92 46.92 20 80 20C113.08 20 140 46.92 140 80C140 113.08 113.08 140 80 140ZM80 21C47.47 21 21 47.47 21 80C21 112.53 47.47 139 80 139C112.53 139 139 112.53 139 80C139 47.47 112.53 21 80 21Z" fill="#111111"/>
<path d="M76.89 95.52H75.89V94.96C75.94 90.62 76.6 87.18 77.85 84.72C79.15 82.12 81.54 79.41 84.94 76.65C86.31 75.55 87.3 74.72 87.87 74.18C88.44 73.64 89.19 72.84 90.1 71.8C90.97 70.76 91.58 69.67 91.91 68.58L91.35 68.44L91.91 68.57C92.3 67.39 92.5 66.07 92.5 64.63C92.5 61.59 91.47 59.21 89.36 57.35C89.36 57.35 89.35 57.34 89.34 57.33C87.29 55.44 84.49 54.48 81 54.48C76.82 54.48 73.52 55.74 71.19 58.23C68.85 60.68 67.61 63.96 67.5 67.97L66.5 67.94C66.62 63.67 67.95 60.17 70.46 57.54C72.98 54.84 76.52 53.47 81 53.47C84.77 53.47 87.81 54.52 90.04 56.6C92.33 58.62 93.5 61.32 93.5 64.62C93.5 66.16 93.29 67.59 92.87 68.85C92.51 70.06 91.83 71.27 90.87 72.42C89.93 73.49 89.16 74.31 88.57 74.87C87.98 75.43 86.97 76.28 85.58 77.4C82.29 80.06 80 82.66 78.76 85.14C77.58 87.46 76.95 90.75 76.9 94.93V95.48L76.89 95.52Z" fill="#111111"/>
<path d="M76.5598 107.17C74.4898 107.17 72.7998 105.48 72.7998 103.41C72.7998 101.34 74.4898 99.6499 76.5598 99.6499C78.6298 99.6499 80.3198 101.34 80.3198 103.41C80.3198 105.48 78.6298 107.17 76.5598 107.17ZM76.5598 100.66C75.0398 100.66 73.7998 101.9 73.7998 103.42C73.7998 104.94 75.0398 106.18 76.5598 106.18C78.0798 106.18 79.3198 104.94 79.3198 103.42C79.3198 101.9 78.0798 100.66 76.5598 100.66Z" fill="#111111"/>
</svg>
