<svg width="160" height="160" viewBox="0 0 160 160" fill="none" xmlns="http://www.w3.org/2000/svg">
<path fill-rule="evenodd" clip-rule="evenodd" d="M61.8701 19.36C61.8701 20.32 62.6501 21.1 63.6001 21.1C64.5601 21.1 65.3301 20.32 65.3301 19.36C65.3301 18.4 64.5601 17.62 63.6001 17.62C62.6401 17.62 61.8701 18.4 61.8701 19.36ZM62.8701 19.36C62.8701 18.95 63.2001 18.62 63.6001 18.62C64.0001 18.62 64.3301 18.95 64.3301 19.36C64.3301 19.77 64.0001 20.1 63.6001 20.1C63.2001 20.1 62.8701 19.77 62.8701 19.36Z" fill="#111111"/>
<path fill-rule="evenodd" clip-rule="evenodd" d="M68.7798 21.1C67.8298 21.1 67.0498 20.32 67.0498 19.36C67.0498 18.4 67.8198 17.62 68.7798 17.62C69.7398 17.62 70.5098 18.4 70.5098 19.36C70.5098 20.32 69.7398 21.1 68.7798 21.1ZM68.7798 18.62C68.3798 18.62 68.0498 18.95 68.0498 19.36C68.0498 19.77 68.3798 20.1 68.7798 20.1C69.1798 20.1 69.5098 19.77 69.5098 19.36C69.5098 18.95 69.1798 18.62 68.7798 18.62Z" fill="#111111"/>
<path fill-rule="evenodd" clip-rule="evenodd" d="M72.2402 19.36C72.2402 20.32 73.0202 21.1 73.9702 21.1C74.9302 21.1 75.7002 20.32 75.7002 19.36C75.7002 18.4 74.9302 17.62 73.9702 17.62C73.0102 17.62 72.2402 18.4 72.2402 19.36ZM73.2402 19.36C73.2402 18.95 73.5702 18.62 73.9702 18.62C74.3702 18.62 74.7002 18.95 74.7002 19.36C74.7002 19.77 74.3702 20.1 73.9702 20.1C73.5702 20.1 73.2402 19.77 73.2402 19.36Z" fill="#111111"/>
<path d="M116.034 19.3612L114.656 20.7466L115.365 21.4517L116.739 20.0702L118.121 21.4591L118.83 20.7539L117.444 19.3611L118.82 17.9772L118.111 17.2721L116.739 18.6522L115.374 17.28L114.665 17.9852L116.034 19.3612Z" fill="#111111"/>
<path d="M93.405 32.0907L84.4268 59.5923L85.3774 59.9026L94.3557 32.4011L93.405 32.0907Z" fill="#111111"/>
<path d="M73.8496 46.68L80.8896 55.59L81.6796 54.97L75.1296 46.68L81.6796 38.4L80.8896 37.78L73.8496 46.68Z" fill="#111111"/>
<path d="M97.8796 55.59L97.0996 54.97L103.65 46.68L97.0996 38.4L97.8796 37.78L104.92 46.68L97.8796 55.59Z" fill="#111111"/>
<path fill-rule="evenodd" clip-rule="evenodd" d="M45.4199 33.72C45.7099 33.92 46.0499 34.03 46.3999 34.03C46.4999 34.03 46.6099 34.02 46.7099 34C47.6499 33.83 48.2699 32.92 48.0999 31.98C48.0099 31.52 47.7599 31.12 47.3799 30.86C46.9999 30.6 46.5399 30.5 46.0899 30.58C45.1499 30.75 44.5299 31.66 44.6999 32.6C44.7899 33.06 45.0399 33.46 45.4199 33.72ZM46.2699 31.57C46.3099 31.56 46.3999 31.56 46.3999 31.56C46.5399 31.56 46.6899 31.6 46.8099 31.69C46.9699 31.81 47.0699 31.98 47.1099 32.17C47.1899 32.56 46.9199 32.95 46.5299 33.02C46.3399 33.05 46.1499 33.01 45.9899 32.9C45.8299 32.78 45.7299 32.61 45.6899 32.42C45.6099 32.03 45.8799 31.64 46.2699 31.57Z" fill="#111111"/>
<path fill-rule="evenodd" clip-rule="evenodd" d="M124.71 17.43C124.71 14.57 123.1 13 120.17 13H58.7402C57.3237 13 56.0428 13.6579 55.3065 14.7739L49.7395 20.69C49.0895 21.39 48.7095 22.31 48.6895 23.27L48.6518 25.4142L40.4895 26.9C39.0995 27.15 37.9595 28.02 37.4295 29.25L32.9995 36.08C32.4795 36.9 32.2795 37.88 32.4395 38.82L33.7795 47.03L34.2695 46.95L33.7795 47.04L35.5544 56.763C35.0576 57.0658 34.6299 57.4759 34.3098 57.96L34.2619 58.0292L28.3 64.36C27.58 65.13 27.18 66.11 27.17 67.15L27 78.59V141.09C27 142.25 27.33 146.03 31.63 146.03H124.42L124.43 146.04C125.78 146.04 127.05 145.39 127.82 144.29L132.3 137.93L132.291 137.924C132.924 137.199 133.24 136.234 133.24 135.04V71.1801H133.23V68.25C133.23 65.19 131.5 63.51 128.37 63.51H124.71V17.43ZM55.6602 24.23L123.71 24.23V17.43C123.71 15.12 122.55 14 120.17 14H58.7402C57.6402 14 56.6602 14.51 56.1102 15.37C55.8102 15.84 55.6602 16.38 55.6602 16.97V24.23ZM123.7 63.51V25.23L55.6602 25.23V56.1L77.4298 56.1C77.4297 56.1 77.4299 56.1 77.4298 56.1C77.57 56.1 77.7095 56.1071 77.8474 56.1211C79.0668 56.2449 80.1784 56.9068 80.8702 57.94L83.6502 62.11C84.2222 62.9779 85.1833 63.4956 86.217 63.5097C86.2312 63.5099 86.2455 63.51 86.2598 63.51M48.54 56.1V37.8591L39.6395 39.48L42.6667 56.1H48.54ZM41.6537 56.1L38.7995 40.46L34.7995 47.03L36.5014 56.3294C36.9607 56.1797 37.4532 56.1 37.9598 56.1H41.6537ZM86.2702 64.51C86.2703 64.51 86.2701 64.51 86.2702 64.51H128.38C130.98 64.51 132.24 65.73 132.24 68.25V71.17H34.5898V60.34C34.5898 59.71 34.7398 59.14 34.9898 58.73L35.0998 58.6C35.3998 58.12 35.8198 57.73 36.3398 57.48C36.8198 57.23 37.3798 57.1 37.9598 57.1H77.4298C77.4297 57.1 77.4299 57.1 77.4298 57.1C77.5375 57.1 77.6448 57.1057 77.7508 57.1168C78.6688 57.2134 79.511 57.7201 80.0398 58.5L82.8198 62.67C83.5418 63.7482 84.7208 64.422 86.0108 64.502C86.0967 64.5073 86.1834 64.51 86.2702 64.51ZM40.6695 27.88L48.634 26.4302L48.5466 31.4027L48.54 31.41V31.7735L48.5197 32.9298L48.54 32.907V36.8464L39.4595 38.5L38.1595 31.36C38.0595 30.82 38.0995 30.3 38.2795 29.81L38.3395 29.67C38.7295 28.74 39.5995 28.07 40.6695 27.88ZM50.4695 21.37L54.6595 16.92V24.54L49.5595 30.26L49.6895 23.29C49.6995 22.57 49.9795 21.89 50.4695 21.37ZM54.66 56.0999H49.54V31.79L54.66 26.04V56.0999ZM33.8395 36.62L37.1595 31.51V31.55L38.5195 38.99L34.5395 45.53L33.4195 38.65C33.3095 37.95 33.4495 37.23 33.8395 36.62ZM33.5898 60.34V71.4775L28.03 77.31L28.18 67.16C28.18 66.39 28.5 65.62 29.03 65.05L33.5918 60.206C33.5905 60.2505 33.5898 60.2951 33.5898 60.34ZM33.5898 72.9247L28.01 78.79V138.2L33.5898 132.23V72.9247ZM33.5898 133.691L28 139.67V141.09C28 142.56 28.47 145.03 31.63 145.03H33.56L39.0237 139.27H38.1198C35.2 139.27 33.5901 137.29 33.5898 133.691ZM40.4083 139.27H128.87V139.28C129.352 139.28 129.81 139.225 130.234 139.119L127 143.71C126.42 144.54 125.46 145.04 124.43 145.04H34.94L40.4083 139.27ZM34.5898 133.68V72.1701H132.24V135.03C132.24 135.99 131.99 136.75 131.51 137.29C130.73 138.14 129.52 138.26 128.87 138.26H38.1198C35.7798 138.26 34.5898 136.72 34.5898 133.68Z" fill="#111111"/>
</svg>
