<svg width="160" height="160" viewBox="0 0 160 160" fill="none" xmlns="http://www.w3.org/2000/svg">
<path d="M55.7102 87.9799C51.6802 87.9799 48.4102 84.6999 48.4102 80.6799C48.4102 76.6599 51.6902 73.3799 55.7102 73.3799C59.7302 73.3799 63.0102 76.6599 63.0102 80.6799C63.0102 84.6999 59.7302 87.9799 55.7102 87.9799ZM55.7102 74.3799C52.2302 74.3799 49.4102 77.2099 49.4102 80.6799C49.4102 84.1499 52.2402 86.9799 55.7102 86.9799C59.1802 86.9799 62.0102 84.1499 62.0102 80.6799C62.0102 77.2099 59.1802 74.3799 55.7102 74.3799Z" fill="#111111"/>
<path d="M80.2502 87.9799C76.2202 87.9799 72.9502 84.6999 72.9502 80.6799C72.9502 76.6599 76.2302 73.3799 80.2502 73.3799C84.2702 73.3799 87.5502 76.6599 87.5502 80.6799C87.5502 84.6999 84.2702 87.9799 80.2502 87.9799ZM80.2502 74.3799C76.7702 74.3799 73.9502 77.2099 73.9502 80.6799C73.9502 84.1499 76.7802 86.9799 80.2502 86.9799C83.7202 86.9799 86.5502 84.1499 86.5502 80.6799C86.5502 77.2099 83.7202 74.3799 80.2502 74.3799Z" fill="#111111"/>
<path d="M104.8 87.9799C100.77 87.9799 97.5 84.6999 97.5 80.6799C97.5 76.6599 100.78 73.3799 104.8 73.3799C108.82 73.3799 112.1 76.6599 112.1 80.6799C112.1 84.6999 108.82 87.9799 104.8 87.9799ZM104.8 74.3799C101.32 74.3799 98.5 77.2099 98.5 80.6799C98.5 84.1499 101.33 86.9799 104.8 86.9799C108.27 86.9799 111.1 84.1499 111.1 80.6799C111.1 77.2099 108.27 74.3799 104.8 74.3799Z" fill="#111111"/>
<path d="M80.25 140.5C69.14 140.5 58.28 137.45 48.84 131.67L23.06 139.3L29.46 112.68C23.27 103 20 91.79 20 80.25C20 47.03 47.03 20 80.25 20C113.47 20 140.5 47.03 140.5 80.25C140.5 113.47 113.47 140.5 80.25 140.5ZM48.98 130.59L49.17 130.71C58.5 136.46 69.24 139.51 80.25 139.51C112.92 139.51 139.5 112.93 139.5 80.26C139.5 47.59 112.92 21 80.25 21C47.58 21 21 47.58 21 80.25C21 91.67 24.26 102.76 30.42 112.32L30.54 112.5L24.44 137.86L48.98 130.59Z" fill="#111111"/>
</svg>
