<svg width="12" height="12" viewBox="0 0 12 12" fill="none" xmlns="http://www.w3.org/2000/svg">
<path fill-rule="evenodd" clip-rule="evenodd" d="M8.91 3H10C10.555 3 11 3.445 11 4V9.5C11 10.055 10.555 10.5 10 10.5H2C1.445 10.5 1 10.055 1 9.5L1.005 4C1.005 3.445 1.445 3 2 3H3.09C3.035 2.845 3 2.675 3 2.5C3 1.67 3.67 1 4.5 1C5.025 1 5.48 1.27 5.75 1.67L6 2.01L6.25 1.675C6.52 1.27 6.975 1 7.5 1C8.33 1 9 1.67 9 2.5C9 2.675 8.965 2.845 8.91 3ZM8 2.5C8 2.225 7.775 2 7.5 2C7.225 2 7 2.225 7 2.5C7 2.775 7.225 3 7.5 3C7.775 3 8 2.775 8 2.5ZM5 2.5C5 2.225 4.775 2 4.5 2C4.225 2 4 2.225 4 2.5C4 2.775 4.225 3 4.5 3C4.775 3 5 2.775 5 2.5ZM2 9.5H10V4H7.46L8.5 5.415L7.69 6L6.5 4.38L6 3.7L5.5 4.38L4.31 6L3.5 5.415L4.54 4H2V9.5Z" fill="black"/>
</svg>
