<svg width="12" height="12" viewBox="0 0 12 12" fill="none" xmlns="http://www.w3.org/2000/svg">
<path d="M3.13003 4H3.95744L3.31604 8H2.35394L1.9691 5.3899L1.57785 8H0.622158L0 4H0.833821L1.14169 6.84444L1.55219 4H2.40525L2.78368 6.82828L3.13003 4Z" fill="black"/>
<path d="M7.15131 4H7.97872L7.33732 8H6.37522L5.99038 5.3899L5.59913 8H4.64344L4.02128 4H4.8551L5.16297 6.84444L5.57347 4H6.42653L6.80496 6.82828L7.15131 4Z" fill="black"/>
<path d="M11.1726 4H12L11.3586 8H10.3965L10.0117 5.3899L9.62041 8H8.66472L8.04256 4H8.87638L9.18425 6.84444L9.59475 4H10.4478L10.8262 6.82828L11.1726 4Z" fill="black"/>
</svg>
