<svg width="384" height="86" viewBox="0 0 384 86" fill="none" xmlns="http://www.w3.org/2000/svg">
<g clip-path="url(#clip0_3915_2298)">
<path d="M51.6878 84.1593L1.85124 55.4025L5.08381 49.8798L16.7703 56.6231L16.8818 56.4327C13.717 52.5685 11.969 48.4178 11.6376 43.9806C11.3433 39.4799 12.5933 35.0635 15.3873 30.7314L21.472 34.2424C19.7456 36.8977 18.6828 39.5963 18.2838 42.3383C17.8204 45.0431 17.9105 47.6851 18.5541 50.2644C19.2349 52.7803 20.442 55.1327 22.1754 57.3218C23.8445 59.4738 25.9989 61.3114 28.6388 62.8347L55.199 78.1605L51.6878 84.1593Z" fill="#111111"/>
<path d="M351.372 4L306.146 43.6839L309.252 50.6445L359.244 44.062L359.334 44.2638L320.728 76.3682L323.833 83.3288L384 77.1362L380.984 70.3774L329.905 76.7103L329.815 76.5085L369.283 44.1493L366.088 36.987L315.279 43.925L315.189 43.7233L354.387 10.7588L351.372 4Z" fill="#111111"/>
<path d="M46.0048 66.3169L50.0781 60.6561C46.3439 57.8539 44.4467 54.7186 44.3867 51.2502C44.266 47.7392 45.4988 44.1866 48.085 40.5925C49.2919 38.9152 50.5642 37.4642 51.9019 36.2395C53.2221 34.9122 54.634 33.965 56.1375 33.3977C57.6842 32.7705 59.3098 32.6044 61.0144 32.8995C62.7013 33.0922 64.5151 33.8697 66.4557 35.2322C67.7291 36.1263 68.6308 37.0299 69.1605 37.9428C69.7333 38.7958 70.0468 39.6921 70.1009 40.6318C70.0943 41.5288 69.8587 42.4905 69.3941 43.5168C68.9295 44.543 68.3268 45.6977 67.586 46.9809C65.7515 50.2914 63.969 53.5932 62.2383 56.8863C60.49 60.077 59.239 63.211 58.4851 66.2883C57.7743 69.3057 57.8416 72.1932 58.687 74.9507C59.4718 77.6657 61.5015 80.1728 64.7762 82.472C67.1413 84.1325 69.4833 85.1908 71.8022 85.6468C74.1037 86.0003 76.3262 85.8927 78.4698 85.324C80.5958 84.6527 82.5695 83.5589 84.3909 82.0426C86.316 80.509 88.0544 78.6639 89.6062 76.5074C91.2441 74.2311 92.4327 72.1353 93.172 70.2199C93.9545 68.2446 94.4041 66.3512 94.5209 64.5398C94.6808 62.6685 94.5511 60.8191 94.1317 58.9918C93.6947 57.062 93.0846 55.0558 92.3013 52.973L92.4306 52.7933C93.6434 53.6448 94.8084 54.3726 95.9255 54.9766C97.0251 55.4782 98.1112 55.7448 99.1837 55.7765C100.256 55.8082 101.307 55.5538 102.334 55.0132C103.345 54.3702 104.367 53.3298 105.402 51.8922C105.962 51.1134 106.384 50.4632 106.669 49.9414C106.996 49.3597 107.336 48.6968 107.689 47.9527L102.868 44.5678C102.722 45.2772 102.413 45.9614 101.939 46.6203C100.344 48.8367 98.3941 49.1359 96.0897 47.518L71.1657 30.0186C68.0123 27.8045 65.099 26.5254 62.4257 26.1813C59.6917 25.7945 57.197 26.0266 54.9417 26.8776C52.6863 27.7285 50.6439 29.0446 48.8146 30.8258C46.9245 32.5644 45.2467 34.4521 43.7812 36.4887C41.8415 39.1843 40.3775 41.8532 39.3891 44.4953C38.4006 47.1375 37.9397 49.7442 38.0063 52.3156C38.116 54.8271 38.8266 57.2646 40.1381 59.6281C41.4496 61.9916 43.4052 64.2212 46.0048 66.3169ZM74.6424 40.9802L82.1013 46.2172C84.4057 47.8352 86.1443 49.7321 87.317 51.9079C88.5328 54.0239 89.2387 56.2777 89.4346 58.6694C89.6735 61.0012 89.4154 63.3896 88.66 65.8347C87.9046 68.2798 86.7511 70.5806 85.1993 72.7371C84.2511 74.0549 83.1121 75.1938 81.7824 76.1537C80.4527 77.1136 79.0489 77.796 77.5709 78.2009C76.0322 78.5633 74.5016 78.6607 72.979 78.4934C71.4389 78.2235 69.9411 77.5776 68.4857 76.5558C66.1813 74.9378 64.8968 73.0442 64.6322 70.8748C64.3501 68.6029 64.6299 66.1845 65.4714 63.6196C66.313 61.0547 67.4874 58.4078 68.9945 55.6791C70.4841 52.8478 71.8788 50.0851 73.1784 47.391C73.6175 46.5271 74.0518 45.4796 74.4814 44.2484C74.9109 43.0171 74.9215 41.9877 74.513 41.1599L74.6424 40.9802Z" fill="#111111"/>
<path d="M95.1617 12.0835L99.5028 22.3919L105.985 19.7522L101.644 9.44374L95.1617 12.0835ZM103.672 32.2921L125.85 84.9571L132.333 82.3174L121.243 55.9849L110.154 29.6524L103.672 32.2921Z" fill="#111111"/>
<path d="M151.815 15.5759L127.874 67.2658L134.221 70.2665L148.187 40.1141C149.429 37.6081 150.915 35.4612 152.644 33.6735C154.47 31.8507 156.411 30.4888 158.466 29.5879C160.619 28.6519 162.87 28.2103 165.22 28.263C167.668 28.2806 170.168 28.8928 172.721 30.0994C175.273 31.3061 177.203 32.707 178.511 34.3022C179.887 35.9292 180.753 37.6821 181.111 39.5608C181.469 41.4396 181.401 43.4426 180.907 45.5698C180.444 47.6302 179.702 49.7624 178.681 51.9662L163.742 84.2223L170.089 87.2231L185.493 53.9652C186.916 50.8932 187.897 47.9788 188.437 45.2221C188.977 42.4653 188.895 39.9029 188.19 37.5347C187.517 35.0998 186.154 32.8274 184.102 30.7175C182.117 28.6394 179.311 26.743 175.684 25.0283C171.989 23.2819 168.149 22.6467 164.162 23.1227C160.206 23.5319 156.897 25.0202 154.234 27.5874L154.033 27.4921L158.162 18.5766L151.815 15.5759Z" fill="#111111"/>
<path d="M279.134 12.8847C282.458 13.1554 285.31 14.091 287.692 15.6916C290.073 17.2921 291.97 19.2974 293.383 21.7074C294.87 24.1235 295.883 26.8341 296.421 29.8392C297.041 32.7769 297.211 35.752 296.93 38.7644C296.65 41.7769 295.93 44.7165 294.77 47.5833C293.691 50.3826 292.196 52.852 290.285 54.9913C288.448 57.1367 286.209 58.8051 283.568 59.9966C280.927 61.1881 277.945 61.6485 274.621 61.3778C271.297 61.1072 268.445 60.1716 266.064 58.571C263.683 56.9705 261.748 54.9622 260.262 52.5462C258.849 50.1361 257.833 47.4623 257.213 44.5246C256.674 41.5194 256.545 38.5106 256.825 35.4982C257.106 32.4857 257.785 29.5798 258.864 26.7805C260.024 23.9137 261.523 21.4076 263.359 19.2623C265.27 17.1229 267.546 15.4575 270.187 14.266C272.828 13.0745 275.811 12.6141 279.134 12.8847ZM279.678 7.04354C275.32 6.68865 271.368 7.18108 267.82 8.52082C264.346 9.86658 261.337 11.8055 258.795 14.3376C256.252 16.8696 254.219 19.9244 252.695 23.5019C251.178 27.0059 250.228 30.8152 249.846 34.9298C249.463 39.0443 249.691 42.9866 250.531 46.7565C251.377 50.453 252.819 53.7538 254.856 56.6588C256.892 59.5638 259.497 61.9599 262.67 63.847C265.924 65.6667 269.73 66.7539 274.088 67.1088C278.445 67.4637 282.358 67.0051 285.825 65.7328C289.373 64.393 292.418 62.4571 294.961 59.925C297.503 57.3929 299.533 54.3749 301.05 50.8709C302.574 47.2934 303.527 43.4474 303.91 39.3328C304.293 35.2183 304.061 31.3128 303.214 27.6163C302.375 23.8463 300.936 20.5088 298.9 17.6038C296.863 14.6988 294.221 12.2997 290.974 10.4066C287.801 8.51944 284.036 7.39843 279.678 7.04354Z" fill="#111111"/>
<path d="M188.054 3.01213L198.197 81.0827L204.612 80.2285L203.22 69.5129L203.441 69.4834C205.575 73.2038 208.585 75.8803 212.473 77.5132C216.434 79.1362 220.737 79.6385 225.383 79.0199C229.733 78.4406 233.394 77.1745 236.366 75.2215C239.402 73.1858 241.814 70.677 243.601 67.6951C245.38 64.6404 246.553 61.2584 247.121 57.549C247.68 53.7668 247.699 49.8711 247.178 45.8619C246.657 41.8527 245.649 38.1309 244.152 34.6965C242.646 31.1892 240.649 28.2293 238.16 25.817C235.662 23.3317 232.687 21.5032 229.234 20.3315C225.855 19.1501 221.991 18.849 217.64 19.4282C215.576 19.7032 213.544 20.2332 211.546 21.0184C209.548 21.8036 207.735 22.8607 206.107 24.1898C204.47 25.4459 203.051 26.9327 201.849 28.65C200.72 30.3576 199.92 32.281 199.448 34.4202L199.227 34.4497L195.022 2.08428L188.054 3.01213ZM240.21 46.7898C240.589 49.7056 240.599 52.6704 240.241 55.6844C239.946 58.6157 239.172 61.3143 237.917 63.7802C236.736 66.2363 235.06 68.3504 232.89 70.1225C230.711 71.8217 227.962 72.8923 224.644 73.3341C220.957 73.825 217.734 73.5498 214.973 72.5084C212.277 71.3844 209.971 69.8005 208.055 67.7567C206.213 65.7032 204.738 63.304 203.632 60.5593C202.589 57.7319 201.879 54.8603 201.5 51.9445C201.121 49.0287 201.079 46.1051 201.373 43.1738C201.731 40.1599 202.538 37.4199 203.793 34.954C205.121 32.4782 206.949 30.3809 209.276 28.6621C211.668 26.8605 214.707 25.7143 218.393 25.2234C221.711 24.7816 224.645 25.1325 227.194 26.2762C229.733 27.347 231.887 28.9141 233.655 30.9775C235.497 33.031 236.939 35.4715 237.982 38.299C239.089 41.0437 239.831 43.874 240.21 46.7898Z" fill="#111111"/>
</g>
<defs>
<clipPath id="clip0_3915_2298">
<rect width="384" height="86" fill="white"/>
</clipPath>
</defs>
</svg>
