<svg width="79" height="79" viewBox="0 0 79 79" fill="none" xmlns="http://www.w3.org/2000/svg">
<path d="M65.11 79H8.05C3.61 79 0 75.36 0 70.88V17.17C0 16.39 0.06 15.7 0.2 15.07C0.27 14.73 0.36 14.39 0.5 13.99C0.88 12.96 1.53 11.94 2.45 10.95L9.91 3.01C10.27 2.53 10.68 2.09 11.14 1.7C12.41 0.64 14.04 0 15.81 0H71.66C75.71 0 79 3.33 79 7.41V62.96C79 64.86 78.29 66.59 77.12 67.9L71.07 76.29C69.53 78.03 67.36 79 65.11 79ZM8.96 78H65.11C67.08 78 68.97 77.15 70.29 75.66L74.53 69.77C73.64 70.15 72.67 70.37 71.64 70.37H16.71L8.96 78ZM1 71.07C1.1 74.74 3.96 77.73 7.55 77.98L15.36 70.28C11.77 69.76 8.93 66.85 8.51 63.19L0.99 71.07H1ZM8.63 5.82L3.17 11.63C2.34 12.52 1.76 13.42 1.43 14.33C1.31 14.67 1.23 14.97 1.17 15.27C1.05 15.84 0.99 16.46 0.99 17.17V69.62L8.45 61.8V7.41C8.45 6.86 8.51 6.33 8.62 5.82H8.63ZM10.67 3.65C9.91 4.71 9.46 6.01 9.46 7.41V62.23C9.46 66.16 12.62 69.35 16.51 69.35H72.01C73.72 69.26 75.26 68.47 76.35 67.26L77.11 66.21C77.68 65.26 78 64.14 78 62.94V7.41C78 3.87 75.15 1 71.66 1H15.81C14.3 1 12.91 1.54 11.82 2.43L10.67 3.65Z" fill="black"/>
<path d="M42.93 39.02V38.95C42.93 38.22 43.01 37.65 43.16 37.21C43.3 36.78 43.51 36.43 43.78 36.16C44.05 35.9 44.37 35.65 44.74 35.42C44.96 35.28 45.17 35.12 45.34 34.94C45.72 34.54 45.93 34.01 45.92 33.46C45.92 33.12 45.84 32.78 45.66 32.49C45.49 32.22 45.24 32 44.96 31.86C44.66 31.71 44.32 31.63 43.98 31.64C43.67 31.64 43.37 31.7 43.08 31.83C42.79 31.96 42.53 32.17 42.35 32.44C42.16 32.72 42.04 33.08 42.01 33.53H40.57C40.58 32.94 40.76 32.37 41.07 31.87C41.38 31.41 41.78 31.06 42.29 30.81C42.8 30.57 43.36 30.44 43.98 30.44C44.65 30.44 45.23 30.57 45.73 30.84C46.23 31.11 46.61 31.47 46.88 31.94C47.16 32.42 47.3 32.97 47.29 33.53C47.29 33.95 47.23 34.33 47.1 34.67C46.97 35.01 46.79 35.31 46.55 35.58C46.3 35.86 46.01 36.1 45.69 36.29C45.39 36.47 45.12 36.69 44.88 36.95C44.67 37.19 44.52 37.47 44.44 37.77C44.34 38.16 44.29 38.55 44.29 38.95V39.02H42.92H42.93ZM43.67 42.39C43.53 42.39 43.4 42.36 43.28 42.31C43.15 42.26 43.04 42.18 42.95 42.08C42.85 41.99 42.77 41.87 42.72 41.75C42.67 41.63 42.64 41.49 42.64 41.36C42.64 41.22 42.66 41.09 42.72 40.97C42.77 40.85 42.85 40.73 42.95 40.64C43.04 40.54 43.16 40.47 43.28 40.41C43.4 40.36 43.54 40.33 43.67 40.33C43.95 40.33 44.2 40.43 44.4 40.63C44.5 40.72 44.58 40.84 44.63 40.96C44.68 41.08 44.71 41.22 44.71 41.35C44.71 41.53 44.66 41.71 44.57 41.86C44.48 42.01 44.35 42.14 44.2 42.24C44.04 42.33 43.87 42.38 43.69 42.38L43.67 42.39Z" fill="#111111"/>
</svg>
