<svg width="79" height="79" viewBox="0 0 79 79" fill="none" xmlns="http://www.w3.org/2000/svg">
<path d="M65.11 79H8.05C3.61 79 0 75.36 0 70.88V17.17C0 16.39 0.06 15.7 0.2 15.07C0.27 14.73 0.36 14.39 0.5 13.99C0.88 12.96 1.53 11.94 2.45 10.95L9.91 3.01C10.27 2.53 10.68 2.09 11.14 1.7C12.41 0.64 14.04 0 15.81 0H71.66C75.71 0 79 3.33 79 7.41V62.96C79 64.86 78.29 66.59 77.12 67.9L71.07 76.29C69.53 78.03 67.36 79 65.11 79ZM8.96 78H65.11C67.08 78 68.97 77.15 70.29 75.66L74.53 69.77C73.64 70.15 72.67 70.37 71.64 70.37H16.71L8.96 78ZM1 71.07C1.1 74.74 3.96 77.73 7.55 77.98L15.36 70.28C11.77 69.76 8.93 66.85 8.51 63.19L0.99 71.07H1ZM8.63 5.82L3.17 11.63C2.34 12.52 1.76 13.42 1.43 14.33C1.31 14.67 1.23 14.97 1.17 15.27C1.05 15.84 0.99 16.46 0.99 17.17V69.62L8.45 61.8V7.41C8.45 6.86 8.51 6.33 8.62 5.82H8.63ZM10.67 3.65C9.91 4.71 9.46 6.01 9.46 7.41V62.23C9.46 66.16 12.62 69.35 16.51 69.35H72.01C73.72 69.26 75.26 68.47 76.35 67.26L77.11 66.21C77.68 65.26 78 64.14 78 62.94V7.41C78 3.87 75.15 1 71.66 1H15.81C14.3 1 12.91 1.54 11.82 2.43L10.67 3.65Z" fill="black"/>
<path d="M48.88 34.23H47.46C47.31 33.48 46.89 32.82 46.26 32.38C45.96 32.17 45.63 32.01 45.28 31.9C44.92 31.79 44.54 31.74 44.16 31.74C43.45 31.74 42.81 31.92 42.23 32.28C41.66 32.64 41.2 33.16 40.86 33.86C40.52 34.56 40.36 35.41 40.36 36.42C40.36 37.43 40.53 38.28 40.86 38.98C41.2 39.68 41.65 40.2 42.23 40.56C42.81 40.92 43.48 41.1 44.16 41.1C44.55 41.1 44.92 41.05 45.28 40.94C45.64 40.83 45.96 40.68 46.26 40.47C46.88 40.03 47.31 39.36 47.46 38.62H48.88C48.79 39.19 48.59 39.73 48.3 40.22C48.02 40.69 47.67 41.09 47.25 41.42C46.83 41.75 46.36 42 45.84 42.17C45.3 42.34 44.74 42.43 44.18 42.43C43.24 42.45 42.31 42.19 41.52 41.7C40.72 41.19 40.09 40.47 39.68 39.62C39.23 38.72 39.01 37.66 39.01 36.43C39.01 35.2 39.23 34.13 39.68 33.23C40.08 32.38 40.72 31.66 41.52 31.15C42.3 30.66 43.19 30.42 44.18 30.42C44.77 30.42 45.32 30.51 45.84 30.68C46.36 30.85 46.83 31.1 47.25 31.43C47.67 31.76 48.02 32.16 48.3 32.63C48.58 33.1 48.78 33.63 48.88 34.23Z" fill="#111111"/>
</svg>
