<svg width="165" height="181" viewBox="0 0 165 181" fill="none" xmlns="http://www.w3.org/2000/svg">
<path d="M8.85 181C6.77 181 0 180.31 0 171.5C0 171.08 0 168.65 0 168.22V135V40L0.33 22.08C0.37 19.96 1.19 17.95 2.64 16.41L14.57 3.74C16.01 1.46 18.6 0 21.67 0H155.67C161.77 0 165 3.14 165 9.07V159.24C165 161.56 164.38 163.43 163.15 164.81L154.3 177.39C152.71 179.65 150.11 181 147.35 181H8.85ZM14.36 180H147.34C149.78 180 152.07 178.81 153.47 176.82L160.7 166.54C159.53 167.05 158.16 167.32 156.66 167.32L147.66 167.3H26.41L14.37 180.01L14.36 180ZM1 168.42C1 169.14 1 171.13 1 171.5C1 174.05 1.77 180 8.85 180H12.98L25.02 167.29C23.92 167.29 22.48 167.29 21.99 167.29C16.33 167.29 13.33 163.57 13.33 156.52V155.23L0.99 168.43L1 168.42ZM1 135.19V166.96L13.34 153.76V120.85L1 135.19ZM26.19 166.79V166.29H147.67L156.67 166.31C159.1 166.31 161.13 165.55 162.38 164.16C163.45 162.97 164 161.31 164 159.24V120H14.34V156.51C14.34 162.99 16.92 166.28 22 166.28C22.72 166.28 25.45 166.28 26.19 166.28V166.79ZM1 40.19V133.65L13.34 119.31V26.31L1 40.19ZM14.34 119H164V25.5H14.34V119ZM13.52 6.3L3.37 17.09C2.09 18.45 1.37 20.23 1.33 22.09L1.03 38.65L13.34 24.8V8.07C13.34 7.46 13.4 6.86 13.52 6.3ZM14.34 24.5H164V9.07C164 3.71 161.2 1 155.67 1H21.67C17.49 1 14.34 4.04 14.34 8.07V24.5Z" fill="#111111"/>
<path fill-rule="evenodd" clip-rule="evenodd" d="M110.44 82.47C108.85 80.78 106.66 79.91 104.02 79.78L104.07 78.78C106.9 78.92 109.36 79.86 111.17 81.78C112.98 83.7 114.07 86.54 114.31 90.38C114.53 94.12 115.14 96.87 116.3 98.71C116.98 99.79 117.87 100.57 119.03 101.05C119.18 101.07 119.33 101.09 119.48 101.1V101.21C119.92 101.36 120.41 101.47 120.94 101.53L121.7 101.59L121.64 102.59C121.37 102.58 121.11 102.55 120.85 102.52L103.08 101.01C97.31 100.72 92.92 95.48 93.19 89.37L94.19 89.42C93.94 95.04 97.98 99.75 103.14 100.01H103.16L108.89 100.5C107.68 100.16 106.47 99.75 105.32 99.26C103.39 98.43 101.6 97.36 100.32 95.95C97.7 93.05 97.28 90.45 96.93 88.26C96.92 88.19 96.91 88.13 96.9 88.06L97.89 87.91C97.89 87.97 97.91 88.03 97.92 88.09C98.26 90.25 98.64 92.6 101.06 95.27C102.21 96.53 103.85 97.53 105.71 98.33C107.57 99.12 109.62 99.7 111.55 100.12C112.07 100.23 112.58 100.34 113.08 100.43C104.95 96.91 101.25 89.11 99.8 85.47L100.73 85.1C102.21 88.82 105.96 96.61 114.22 99.81C113.49 99.12 112.92 98.33 112.45 97.46C111.84 96.34 111.39 95.07 110.94 93.74C110.84 93.44 110.74 93.15 110.64 92.84C110.29 91.77 109.93 90.66 109.47 89.5C107.48 84.41 103.71 83.37 102.41 83.45L102.35 82.45C104.09 82.35 108.25 83.66 110.4 89.14C110.86 90.32 111.24 91.47 111.59 92.55C111.69 92.85 111.78 93.14 111.88 93.43C112.32 94.76 112.75 95.94 113.32 96.98C113.88 98.01 114.57 98.89 115.52 99.6C115.66 99.71 115.81 99.81 115.97 99.91C115.79 99.69 115.63 99.46 115.47 99.21C114.17 97.15 113.55 94.19 113.33 90.41C113.11 86.73 112.06 84.14 110.47 82.44L110.44 82.47Z" fill="#111111"/>
<path d="M93.58 89.04L61.6 47.79C62.75 45.47 66.31 41.95 68.53 40.95V40.97L69.05 41.52L103.7 79.2L103.68 79.42C103.15 84.54 98.64 88.95 93.84 89.04H93.58ZM88.99 81.49L94.06 88.03C98.22 87.8 102.07 84 102.65 79.54L97.14 73.55C96.1 77.5 92.75 80.76 88.99 81.49ZM63.2 48.22L88.29 80.59C92.1 80.13 95.55 76.72 96.32 72.65L68.81 42.74C67.57 45.14 65.54 47.12 63.2 48.22ZM67.79 42.53C66.21 43.62 64.32 45.49 63.19 47.1C65.08 46.11 66.72 44.48 67.79 42.53Z" fill="#111111"/>
<path d="M36.81 152.09C34.49 152.09 32.66 151.28 31.31 149.67C29.98 148.05 29.32 145.91 29.32 143.24C29.32 140.57 30 138.41 31.36 136.76C32.72 135.11 34.56 134.29 36.88 134.29C38.58 134.29 39.98 134.73 41.1 135.61C42.22 136.49 42.95 137.73 43.28 139.33H42.03C41.79 138.13 41.21 137.17 40.3 136.45C39.4 135.73 38.26 135.37 36.87 135.37C34.85 135.37 33.3 136.11 32.21 137.6C31.14 139.07 30.6 140.95 30.6 143.24C30.6 145.53 31.13 147.39 32.18 148.83C33.25 150.27 34.79 150.99 36.79 150.99C38.42 150.99 39.73 150.49 40.7 149.48C41.69 148.47 42.27 147.17 42.43 145.57H43.61C43.45 147.35 42.92 148.77 42.03 149.84C40.78 151.34 39.04 152.1 36.8 152.1L36.81 152.09ZM51.5 152.09C49.42 152.09 47.8 151.56 46.65 150.51C45.51 149.45 44.9 148.07 44.8 146.36H46.07C46.13 147.8 46.65 148.94 47.61 149.77C48.59 150.59 49.87 150.99 51.47 150.99C52.81 150.99 53.92 150.65 54.78 149.96C55.64 149.27 56.08 148.34 56.08 147.15C56.08 145.96 55.71 145.11 54.98 144.63C54.24 144.13 52.81 143.69 50.68 143.29C48.9 142.97 47.58 142.48 46.72 141.83C45.86 141.17 45.42 140.17 45.42 138.83C45.42 137.49 45.94 136.4 46.98 135.57C48.04 134.72 49.41 134.3 51.11 134.3C52.81 134.3 54.15 134.74 55.14 135.62C56.15 136.48 56.72 137.64 56.84 139.08H55.59C55.48 137.91 55.01 137.01 54.2 136.37C53.38 135.73 52.36 135.41 51.13 135.41C49.75 135.41 48.67 135.73 47.87 136.37C47.09 136.99 46.69 137.81 46.69 138.82C46.69 139.83 47.03 140.57 47.72 141.05C48.42 141.51 49.66 141.91 51.44 142.23C52.21 142.37 52.85 142.52 53.36 142.66C53.87 142.79 54.4 142.98 54.94 143.24C55.5 143.48 55.94 143.76 56.26 144.08C56.58 144.4 56.84 144.82 57.05 145.33C57.26 145.83 57.36 146.41 57.36 147.08C57.36 148.55 56.82 149.76 55.73 150.7C54.66 151.64 53.24 152.12 51.48 152.12L51.5 152.09ZM65.56 152.09C63.48 152.09 61.86 151.56 60.71 150.51C59.57 149.45 58.96 148.07 58.86 146.36H60.13C60.19 147.8 60.71 148.94 61.67 149.77C62.65 150.59 63.93 150.99 65.53 150.99C66.87 150.99 67.98 150.65 68.84 149.96C69.7 149.27 70.14 148.34 70.14 147.15C70.14 145.96 69.77 145.11 69.04 144.63C68.3 144.13 66.87 143.69 64.74 143.29C62.96 142.97 61.64 142.48 60.78 141.83C59.92 141.17 59.48 140.17 59.48 138.83C59.48 137.49 60 136.4 61.04 135.57C62.1 134.72 63.47 134.3 65.17 134.3C66.87 134.3 68.21 134.74 69.2 135.62C70.21 136.48 70.78 137.64 70.9 139.08H69.65C69.54 137.91 69.07 137.01 68.26 136.37C67.44 135.73 66.42 135.41 65.19 135.41C63.81 135.41 62.73 135.73 61.93 136.37C61.15 136.99 60.75 137.81 60.75 138.82C60.75 139.83 61.09 140.57 61.78 141.05C62.48 141.51 63.72 141.91 65.5 142.23C66.27 142.37 66.91 142.52 67.42 142.66C67.93 142.79 68.46 142.98 69 143.24C69.56 143.48 70 143.76 70.32 144.08C70.64 144.4 70.9 144.82 71.11 145.33C71.32 145.83 71.42 146.41 71.42 147.08C71.42 148.55 70.88 149.76 69.79 150.7C68.72 151.64 67.3 152.12 65.54 152.12L65.56 152.09Z" fill="#111111"/>
<path d="M32.27 17.07C30.19 17.07 28.5 15.37 28.5 13.28C28.5 11.19 30.19 9.49 32.27 9.49C34.35 9.49 36.04 11.19 36.04 13.28C36.04 15.37 34.35 17.07 32.27 17.07ZM32.27 10.5C30.74 10.5 29.5 11.75 29.5 13.29C29.5 14.83 30.74 16.08 32.27 16.08C33.8 16.08 35.04 14.83 35.04 13.29C35.04 11.75 33.8 10.5 32.27 10.5Z" fill="#111111"/>
<path d="M43.57 17.07C41.49 17.07 39.8 15.37 39.8 13.28C39.8 11.19 41.49 9.49 43.57 9.49C45.65 9.49 47.34 11.19 47.34 13.28C47.34 15.37 45.65 17.07 43.57 17.07ZM43.57 10.5C42.04 10.5 40.8 11.75 40.8 13.29C40.8 14.83 42.04 16.08 43.57 16.08C45.1 16.08 46.34 14.83 46.34 13.29C46.34 11.75 45.1 10.5 43.57 10.5Z" fill="#111111"/>
<path d="M54.88 17.07C52.8 17.07 51.11 15.37 51.11 13.28C51.11 11.19 52.8 9.49 54.88 9.49C56.96 9.49 58.65 11.19 58.65 13.28C58.65 15.37 56.96 17.07 54.88 17.07ZM54.88 10.5C53.35 10.5 52.11 11.75 52.11 13.29C52.11 14.83 53.35 16.08 54.88 16.08C56.41 16.08 57.65 14.83 57.65 13.29C57.65 11.75 56.41 10.5 54.88 10.5Z" fill="#111111"/>
<path d="M151.615 9.14668L144.084 16.7196L144.793 17.4248L152.324 9.85181L151.615 9.14668Z" fill="#111111"/>
<path d="M144.788 9.15505L144.079 9.86031L151.612 17.432L152.321 16.7267L144.788 9.15505Z" fill="#111111"/>
</svg>
