<svg width="79" height="79" viewBox="0 0 79 79" fill="none" xmlns="http://www.w3.org/2000/svg">
<path d="M65.11 79H8.05C3.61 79 0 75.36 0 70.88V17.17C0 16.39 0.06 15.7 0.2 15.07C0.27 14.73 0.36 14.39 0.5 13.99C0.88 12.96 1.53 11.94 2.45 10.95L9.91 3.01C10.27 2.53 10.68 2.09 11.14 1.7C12.41 0.64 14.04 0 15.81 0H71.66C75.71 0 79 3.33 79 7.41V62.96C79 64.86 78.29 66.59 77.12 67.9L71.07 76.29C69.53 78.03 67.36 79 65.11 79ZM8.96 78H65.11C67.08 78 68.97 77.15 70.29 75.66L74.53 69.77C73.64 70.15 72.67 70.37 71.64 70.37H16.71L8.96 78ZM1 71.07C1.1 74.74 3.96 77.73 7.55 77.98L15.36 70.28C11.77 69.76 8.93 66.85 8.51 63.19L0.99 71.07H1ZM8.63 5.82L3.17 11.63C2.34 12.52 1.76 13.42 1.43 14.33C1.31 14.67 1.23 14.97 1.17 15.27C1.05 15.84 0.99 16.46 0.99 17.17V69.62L8.45 61.8V7.41C8.45 6.86 8.51 6.33 8.62 5.82H8.63ZM10.67 3.65C9.91 4.71 9.46 6.01 9.46 7.41V62.23C9.46 66.16 12.62 69.35 16.51 69.35H72.01C73.72 69.26 75.26 68.47 76.35 67.26L77.11 66.21C77.68 65.26 78 64.14 78 62.94V7.41C78 3.87 75.15 1 71.66 1H15.81C14.3 1 12.91 1.54 11.82 2.43L10.67 3.65Z" fill="black"/>
<path d="M39.88 42.27L36.7 30.59H38.13L40.56 40.1H40.67L43.14 30.59H44.73L47.2 40.1H47.31L49.74 30.59H51.17L48 42.27H46.55L43.99 32.96H43.9L41.34 42.27H39.88Z" fill="#111111"/>
</svg>
