<svg width="79" height="79" viewBox="0 0 79 79" fill="none" xmlns="http://www.w3.org/2000/svg">
<g clip-path="url(#clip0_499_5535)">
<path d="M71.6599 69.3597C71.7299 69.3697 71.8099 69.3697 71.8799 69.3597H71.6599ZM0.689941 15.1697L0.849941 15.2097L1.16994 15.2797H1.17994L0.689941 15.1697ZM70.6799 75.9997L71.0399 76.3297L71.0599 76.3097L71.0799 76.2897L70.6799 75.9997ZM10.6999 3.61973L11.7699 2.46973C11.3699 2.79973 10.9999 3.18973 10.6999 3.61973ZM71.6599 69.3597C71.7299 69.3697 71.8099 69.3697 71.8799 69.3597H71.6599ZM76.3699 67.2297C76.6599 66.9197 76.9099 66.5797 77.0999 66.2197L76.3699 67.2297ZM10.6999 3.61973L11.7699 2.46973C11.3699 2.79973 10.9999 3.18973 10.6999 3.61973ZM71.6599 69.3597C71.7299 69.3697 71.8099 69.3697 71.8799 69.3597H71.6599ZM76.3699 67.2297C76.6599 66.9197 76.9099 66.5797 77.0999 66.2197L76.3699 67.2297ZM10.6999 3.61973L11.7699 2.46973C11.3699 2.79973 10.9999 3.18973 10.6999 3.61973ZM71.6599 69.3597C71.7299 69.3697 71.8099 69.3697 71.8799 69.3597H71.6599ZM76.3699 67.2297C76.6599 66.9197 76.9099 66.5797 77.0999 66.2197L76.3699 67.2297ZM10.6999 3.61973L11.7699 2.46973C11.3699 2.79973 10.9999 3.18973 10.6999 3.61973ZM71.6599 69.3597C71.7299 69.3697 71.8099 69.3697 71.8799 69.3597H71.6599ZM76.3699 67.2297C76.6599 66.9197 76.9099 66.5797 77.0999 66.2197L76.3699 67.2297ZM10.6999 3.61973L11.7699 2.46973C11.3699 2.79973 10.9999 3.18973 10.6999 3.61973ZM71.6599 69.3597C71.7299 69.3697 71.8099 69.3697 71.8799 69.3597H71.6599ZM76.3699 67.2297C76.6599 66.9197 76.9099 66.5797 77.0999 66.2197L76.3699 67.2297ZM10.6999 3.61973L11.7699 2.46973C11.3699 2.79973 10.9999 3.18973 10.6999 3.61973ZM71.6599 69.3597C71.7299 69.3697 71.8099 69.3697 71.8799 69.3597H71.6599ZM76.3699 67.2297C76.6599 66.9197 76.9099 66.5797 77.0999 66.2197L76.3699 67.2297ZM10.6999 3.61973L11.7699 2.46973C11.3699 2.79973 10.9999 3.18973 10.6999 3.61973ZM71.6599 69.3597C71.7299 69.3697 71.8099 69.3697 71.8799 69.3597H71.6599ZM76.3699 67.2297C76.6599 66.9197 76.9099 66.5797 77.0999 66.2197L76.3699 67.2297ZM76.3699 67.2297C76.6599 66.9197 76.9099 66.5797 77.0999 66.2197L76.3699 67.2297ZM71.6599 69.3597C71.7299 69.3697 71.8099 69.3697 71.8799 69.3597H71.6599ZM10.6999 3.61973L11.7699 2.46973C11.3699 2.79973 10.9999 3.18973 10.6999 3.61973ZM76.3699 67.2297C76.6599 66.9197 76.9099 66.5797 77.0999 66.2197L76.3699 67.2297ZM71.6599 69.3597C71.7299 69.3697 71.8099 69.3697 71.8799 69.3597H71.6599ZM10.6999 3.61973L11.7699 2.46973C11.3699 2.79973 10.9999 3.18973 10.6999 3.61973ZM76.3699 67.2297C76.6599 66.9197 76.9099 66.5797 77.0999 66.2197L76.3699 67.2297ZM71.6599 69.3597C71.7299 69.3697 71.8099 69.3697 71.8799 69.3597H71.6599ZM10.6999 3.61973L11.7699 2.46973C11.3699 2.79973 10.9999 3.18973 10.6999 3.61973ZM76.3699 67.2297C76.6599 66.9197 76.9099 66.5797 77.0999 66.2197L76.3699 67.2297ZM71.6599 69.3597C71.7299 69.3697 71.8099 69.3697 71.8799 69.3597H71.6599ZM10.6999 3.61973L11.7699 2.46973C11.3699 2.79973 10.9999 3.18973 10.6999 3.61973ZM76.3699 67.2297C76.6599 66.9197 76.9099 66.5797 77.0999 66.2197L76.3699 67.2297ZM71.6599 69.3597C71.7299 69.3697 71.8099 69.3697 71.8799 69.3597H71.6599ZM10.6999 3.61973L11.7699 2.46973C11.3699 2.79973 10.9999 3.18973 10.6999 3.61973ZM76.3699 67.2297C76.6599 66.9197 76.9099 66.5797 77.0999 66.2197L76.3699 67.2297ZM71.6599 69.3597C71.7299 69.3697 71.8099 69.3697 71.8799 69.3597H71.6599ZM10.6999 3.61973L11.7699 2.46973C11.3699 2.79973 10.9999 3.18973 10.6999 3.61973ZM77.1999 67.7897C77.4799 67.4797 77.7199 67.1597 77.9099 66.8097L77.1999 67.7897ZM0.849941 15.2097L1.16994 15.2797H1.17994L0.849941 15.2097ZM10.6999 3.61973L11.7699 2.46973C11.3699 2.79973 10.9999 3.18973 10.6999 3.61973ZM0.689941 15.1697L0.849941 15.2097L1.17994 15.2697L0.689941 15.1697ZM76.3699 67.2297C76.6599 66.9197 76.9099 66.5797 77.0999 66.2197L76.3699 67.2297Z" fill="#111111"/>
<path d="M71.66 0H15.81C14.03 0 12.4 0.64 11.13 1.7L11.11 1.72C10.67 2.09 10.27 2.51 9.93 2.98L2.45 10.95H2.44C1.64 11.82 0.92 12.83 0.5 13.99C0.37 14.34 0.27 14.7 0.19 15.08H0.2C0.05 15.78 0 16.48 0 17.17V70.88C0 75.36 3.6 79 8.05 79H65.11C67.38 79 69.54 78.02 71.04 76.33L70.68 76L71.08 76.29L77.2 67.79L77.91 66.81C78.61 65.69 79 64.37 79 62.96V7.41C79 3.32 75.72 0 71.66 0ZM0.85 15.21L0.69 15.17L1.18 15.27C1.24 14.95 1.33 14.64 1.44 14.33C1.8 13.34 2.42 12.45 3.18 11.64L2.81 11.29L3.18 11.63L8.64 5.82C8.52 6.33 8.46 6.86 8.46 7.41V61.81L1 69.63V17.17C1 16.52 1.05 15.89 1.17 15.28L0.85 15.21ZM7.56 77.97C3.96 77.73 1.09 74.75 1.01 71.06L8.52 63.19C8.94 66.85 11.77 69.77 15.38 70.28L7.56 77.97ZM70.3 75.66L70.27 75.7C68.94 77.17 67.07 78 65.11 78H8.97L16.72 70.36H71.66C72.68 70.37 73.64 70.16 74.52 69.79L70.3 75.66ZM78 62.96C78 64.15 77.68 65.27 77.11 66.22H77.1C76.91 66.58 76.66 66.92 76.37 67.23C75.27 68.49 73.67 69.3 71.88 69.36C71.81 69.37 71.73 69.37 71.66 69.37L16.51 69.36C12.62 69.36 9.46 66.18 9.46 62.24V7.41C9.46 5.99 9.92 4.68 10.7 3.62C11 3.19 11.37 2.8 11.77 2.47H11.79C12.89 1.54 14.29 1 15.81 1H71.66C75.16 1 78 3.86 78 7.41V62.96Z" fill="#111111"/>
<path d="M41.4401 29.4297L45.2101 43.4197H46.4401L42.6701 29.4297H41.4301H41.4401Z" fill="#111111"/>
</g>
<defs>
<clipPath id="clip0_499_5535">
<rect width="79" height="79" fill="white"/>
</clipPath>
</defs>
</svg>
