<svg width="165" height="181" viewBox="0 0 165 181" fill="none" xmlns="http://www.w3.org/2000/svg">
<path d="M8.85 181C6.77 181 0 180.31 0 171.5C0 171.08 0 168.65 0 168.22V135V40L0.33 22.08C0.37 19.96 1.19 17.95 2.64 16.41L14.57 3.74C16.01 1.46 18.6 0 21.67 0H155.67C161.77 0 165 3.14 165 9.07V159.24C165 161.56 164.38 163.43 163.15 164.81L154.3 177.39C152.71 179.65 150.11 181 147.35 181H8.85ZM14.36 180H147.34C149.78 180 152.07 178.81 153.47 176.82L160.7 166.54C159.53 167.05 158.16 167.32 156.66 167.32L147.66 167.3H26.41L14.37 180.01L14.36 180ZM1 168.42C1 169.14 1 171.13 1 171.5C1 174.05 1.77 180 8.85 180H12.98L25.02 167.29C23.92 167.29 22.48 167.29 21.99 167.29C16.33 167.29 13.33 163.57 13.33 156.52V155.23L0.99 168.43L1 168.42ZM1 135.19V166.96L13.34 153.76V120.85L1 135.19ZM26.19 166.79V166.29H147.67L156.67 166.31C159.1 166.31 161.13 165.55 162.38 164.16C163.45 162.97 164 161.31 164 159.24V120H14.34V156.51C14.34 162.99 16.92 166.28 22 166.28C22.72 166.28 25.45 166.28 26.19 166.28V166.79ZM1 40.19V133.65L13.34 119.31V26.31L1 40.19ZM14.34 119H164V25.5H14.34V119ZM13.52 6.3L3.37 17.09C2.09 18.45 1.37 20.23 1.33 22.09L1.03 38.65L13.34 24.8V8.07C13.34 7.46 13.4 6.86 13.52 6.3ZM14.34 24.5H164V9.07C164 3.71 161.2 1 155.67 1H21.67C17.49 1 14.34 4.04 14.34 8.07V24.5Z" fill="#111111"/>
<path d="M29.99 151.78V134.62H31.24V142.13H41.32V134.62H42.57V151.78H41.32V143.19H31.24V151.78H29.99ZM44.47 135.75V134.62H57.43V135.75H51.57V151.78H50.32V135.75H44.46H44.47ZM59.33 151.78V134.62H61.13L67.3 150.08H67.35L73.33 134.62H75.2V151.78H73.98V136.28H73.93C73.63 137.19 73.34 138 73.07 138.7L67.93 151.78H66.68L61.45 138.7L60.59 136.28H60.54V151.78H59.33ZM78.18 151.78V134.62H79.43V150.63H88.67V151.78H78.18Z" fill="#111111"/>
<path d="M32.27 17.07C30.19 17.07 28.5 15.37 28.5 13.28C28.5 11.19 30.19 9.49 32.27 9.49C34.35 9.49 36.04 11.19 36.04 13.28C36.04 15.37 34.35 17.07 32.27 17.07ZM32.27 10.5C30.74 10.5 29.5 11.75 29.5 13.29C29.5 14.83 30.74 16.08 32.27 16.08C33.8 16.08 35.04 14.83 35.04 13.29C35.04 11.75 33.8 10.5 32.27 10.5Z" fill="#111111"/>
<path d="M43.57 17.07C41.49 17.07 39.8 15.37 39.8 13.28C39.8 11.19 41.49 9.49 43.57 9.49C45.65 9.49 47.34 11.19 47.34 13.28C47.34 15.37 45.65 17.07 43.57 17.07ZM43.57 10.5C42.04 10.5 40.8 11.75 40.8 13.29C40.8 14.83 42.04 16.08 43.57 16.08C45.1 16.08 46.34 14.83 46.34 13.29C46.34 11.75 45.1 10.5 43.57 10.5Z" fill="#111111"/>
<path d="M54.88 17.07C52.8 17.07 51.11 15.37 51.11 13.28C51.11 11.19 52.8 9.49 54.88 9.49C56.96 9.49 58.65 11.19 58.65 13.28C58.65 15.37 56.96 17.07 54.88 17.07ZM54.88 10.5C53.35 10.5 52.11 11.75 52.11 13.29C52.11 14.83 53.35 16.08 54.88 16.08C56.41 16.08 57.65 14.83 57.65 13.29C57.65 11.75 56.41 10.5 54.88 10.5Z" fill="#111111"/>
<path d="M151.615 9.14668L144.084 16.7196L144.793 17.4248L152.324 9.85181L151.615 9.14668Z" fill="#111111"/>
<path d="M144.788 9.15505L144.079 9.86031L151.612 17.432L152.321 16.7267L144.788 9.15505Z" fill="#111111"/>
<path d="M97.8476 41.249L78.2377 101.246L79.1882 101.556L98.7981 41.5597L97.8476 41.249Z" fill="#111111"/>
<path d="M70.46 91.96L55.38 72.9L70.46 53.84L71.24 54.46L56.66 72.9L71.24 91.34L70.46 91.96Z" fill="#111111"/>
<path d="M106.59 91.96L105.8 91.34L120.38 72.9L105.8 54.46L106.59 53.84L121.66 72.9L106.59 91.96Z" fill="#111111"/>
</svg>
