<svg width="120" height="120" viewBox="0 0 120 120" fill="none" xmlns="http://www.w3.org/2000/svg">
<path fill-rule="evenodd" clip-rule="evenodd" d="M58 58C59.1045 58 60 57.1045 60 56C60 54.8955 59.1045 54 58 54C56.8955 54 56 54.8955 56 56C56 57.1045 56.8955 58 58 58ZM59.4142 66H68V57.4142L59.4142 66ZM57 67L69 55V67H57ZM50 48V70H72V48H50ZM73 71H49V47H73V71ZM58 59C59.6567 59 61 57.6567 61 56C61 54.3433 59.6567 53 58 53C56.3433 53 55 54.3433 55 56C55 57.6567 56.3433 59 58 59Z" fill="#111111"/>
<path fill-rule="evenodd" clip-rule="evenodd" d="M119 1H1V119H119V1ZM0 0V120H120V0H0Z" fill="#111111"/>
</svg>
