<svg width="165" height="181" viewBox="0 0 165 181" fill="none" xmlns="http://www.w3.org/2000/svg">
<path d="M81.23 44.69C81.3433 44.3767 81.4 44.22 81.4 44.22C81.4 44.22 81.4 44.22 81.38 44.22C81.37 44.22 81.34 44.21 81.31 44.2C81.25 44.18 81.17 44.15 81.07 44.12C80.86 44.05 80.56 43.95 80.18 43.85C79.43 43.64 78.4 43.38 77.27 43.21C76.14 43.04 74.88 42.95 73.7 43.08C72.52 43.21 71.36 43.57 70.46 44.32L71.11 45.08C71.8 44.5 72.74 44.18 73.81 44.07C74.88 43.95 76.04 44.03 77.12 44.19C78.2 44.35 79.19 44.6 79.9 44.8C80.26 44.9 80.55 44.99 80.75 45.06C80.85 45.09 80.93 45.12 80.98 45.14C81.01 45.14 81.03 45.16 81.04 45.16H81.05C81.05 45.16 81.05 45.16 81.22 44.69H81.23ZM70.47 44.31C68.23 46.2 67.61 49.13 67.46 52.42C67.38 54.07 67.42 55.86 67.44 57.7C67.46 59.54 67.48 61.45 67.36 63.36L68.36 63.42C68.48 61.46 68.47 59.52 68.44 57.68C68.42 55.83 68.38 54.08 68.46 52.46C68.62 49.21 69.22 46.67 71.12 45.07L70.48 44.31H70.47ZM67.35 63.36C67.04 68.24 65.04 70.6 63.17 71.77C62.23 72.36 61.3 72.66 60.61 72.81C60.26 72.88 59.98 72.92 59.79 72.94C59.69 72.94 59.62 72.95 59.57 72.96C59.55 72.96 59.53 72.96 59.52 72.96C59.52 72.96 59.52 72.96 59.51 72.96C59.51 72.96 59.51 72.96 59.51 73.46C59.51 73.7933 59.51 73.96 59.51 73.96C59.51 73.96 59.52 73.96 59.53 73.96C59.55 73.96 59.57 73.96 59.61 73.96C59.67 73.96 59.77 73.96 59.88 73.94C60.11 73.92 60.43 73.88 60.82 73.79C61.6 73.62 62.64 73.29 63.7 72.62C65.86 71.27 68.02 68.6 68.34 63.43L67.34 63.37L67.35 63.36ZM81.23 102.31C81.1167 101.997 81.06 101.84 81.06 101.84C81.06 101.84 81.06 101.84 81.05 101.84C81.04 101.84 81.02 101.85 80.99 101.86C80.94 101.88 80.86 101.9 80.76 101.94C80.56 102.01 80.27 102.1 79.91 102.2C79.19 102.41 78.21 102.65 77.13 102.81C76.05 102.97 74.89 103.05 73.82 102.93C72.75 102.81 71.81 102.5 71.12 101.92L70.47 102.68C71.37 103.44 72.52 103.79 73.71 103.92C74.9 104.05 76.15 103.96 77.28 103.79C78.41 103.62 79.44 103.36 80.19 103.15C80.56 103.04 80.87 102.95 81.08 102.88C81.19 102.85 81.27 102.82 81.32 102.8C81.35 102.8 81.37 102.78 81.39 102.78C81.39 102.78 81.4 102.78 81.41 102.78C81.41 102.78 81.41 102.78 81.24 102.31H81.23ZM71.11 101.93C69.21 100.33 68.61 97.79 68.45 94.54C68.37 92.92 68.41 91.18 68.43 89.32C68.45 87.48 68.47 85.54 68.35 83.58L67.35 83.64C67.47 85.56 67.46 87.46 67.43 89.3C67.41 91.14 67.37 92.92 67.45 94.58C67.61 97.87 68.22 100.8 70.46 102.69L71.1 101.93H71.11ZM68.35 83.58C68.03 78.41 65.86 75.71 63.71 74.34C62.65 73.66 61.6 73.31 60.83 73.14C60.44 73.05 60.12 73 59.89 72.98C59.78 72.97 59.68 72.96 59.62 72.96C59.59 72.96 59.56 72.96 59.54 72.96H59.52C59.52 72.96 59.52 72.96 59.52 73.46C59.52 73.7933 59.52 73.96 59.52 73.96C59.52 73.96 59.52 73.96 59.53 73.96C59.54 73.96 59.56 73.96 59.58 73.96C59.63 73.96 59.7 73.96 59.8 73.98C60 74 60.28 74.04 60.63 74.12C61.32 74.28 62.25 74.59 63.19 75.19C65.06 76.38 67.07 78.77 67.37 83.65L68.37 83.59L68.35 83.58Z" fill="#111111"/>
<path d="M97.3 44.69C97.1867 44.3767 97.13 44.22 97.13 44.22C97.13 44.22 97.14 44.22 97.15 44.22C97.17 44.22 97.19 44.21 97.22 44.2C97.28 44.18 97.36 44.15 97.47 44.12C97.69 44.05 97.99 43.95 98.38 43.85C99.14 43.64 100.19 43.38 101.35 43.21C102.51 43.04 103.78 42.95 104.99 43.08C106.2 43.21 107.38 43.57 108.29 44.32L107.65 45.09C106.94 44.51 105.98 44.19 104.88 44.07C103.79 43.95 102.6 44.03 101.49 44.19C100.39 44.35 99.38 44.6 98.64 44.8C98.27 44.9 97.98 44.99 97.77 45.06C97.67 45.09 97.59 45.12 97.54 45.14C97.51 45.14 97.49 45.16 97.48 45.16H97.47C97.47 45.16 97.47 45.16 97.3 44.69ZM108.29 44.3C110.58 46.19 111.21 49.12 111.37 52.41C111.45 54.06 111.41 55.85 111.39 57.69C111.36 59.53 111.35 61.44 111.47 63.35L110.47 63.41C110.34 61.45 110.36 59.51 110.38 57.67C110.41 55.82 110.44 54.07 110.36 52.45C110.2 49.2 109.58 46.66 107.64 45.06L108.28 44.29L108.29 44.3ZM111.47 63.36C111.78 68.23 113.83 70.6 115.74 71.76C116.71 72.35 117.66 72.65 118.36 72.8C118.71 72.87 119.01 72.91 119.21 72.93C119.31 72.93 119.39 72.94 119.44 72.95C119.47 72.95 119.48 72.95 119.5 72.95H119.51C119.51 72.95 119.51 72.95 119.51 73.45C119.51 73.95 119.51 73.95 119.51 73.95H119.5C119.5 73.95 119.49 73.95 119.48 73.95C119.46 73.95 119.44 73.95 119.4 73.95C119.33 73.95 119.24 73.95 119.12 73.93C118.89 73.91 118.56 73.87 118.16 73.78C117.37 73.61 116.31 73.28 115.22 72.62C113.02 71.27 110.81 68.61 110.48 63.43L111.48 63.37L111.47 63.36ZM97.3 102.31C97.4133 101.997 97.47 101.84 97.47 101.84C97.47 101.84 97.47 101.84 97.48 101.84C97.49 101.84 97.51 101.85 97.54 101.86C97.59 101.88 97.67 101.91 97.77 101.94C97.97 102.01 98.27 102.1 98.64 102.2C99.37 102.41 100.38 102.65 101.49 102.81C102.6 102.97 103.79 103.05 104.88 102.93C105.98 102.81 106.94 102.5 107.65 101.91L108.29 102.68C107.38 103.43 106.2 103.79 104.99 103.92C103.78 104.05 102.5 103.96 101.35 103.79C100.19 103.62 99.14 103.36 98.38 103.15C98 103.04 97.69 102.95 97.47 102.88C97.36 102.85 97.28 102.82 97.22 102.8C97.19 102.8 97.17 102.78 97.15 102.78C97.15 102.78 97.14 102.78 97.13 102.78C97.13 102.78 97.1867 102.623 97.3 102.31ZM107.65 101.92C109.59 100.32 110.21 97.78 110.37 94.53C110.45 92.91 110.41 91.17 110.39 89.32C110.36 87.48 110.35 85.54 110.48 83.58L111.48 83.64C111.36 85.56 111.37 87.46 111.4 89.3C111.43 91.14 111.46 92.92 111.38 94.58C111.22 97.87 110.59 100.8 108.3 102.69L107.66 101.92H107.65ZM110.47 83.58C110.8 78.4 113.01 75.71 115.21 74.34C116.29 73.66 117.36 73.31 118.15 73.14C118.55 73.05 118.88 73 119.11 72.98C119.23 72.97 119.32 72.96 119.39 72.96C119.42 72.96 119.45 72.96 119.47 72.96H119.49C119.49 72.96 119.49 72.96 119.49 73.46C119.49 73.7933 119.49 73.96 119.49 73.96C119.49 73.96 119.49 73.96 119.48 73.96C119.47 73.96 119.45 73.96 119.42 73.96C119.37 73.96 119.29 73.96 119.19 73.98C118.99 74 118.7 74.04 118.34 74.12C117.63 74.28 116.68 74.59 115.72 75.19C113.81 76.39 111.76 78.78 111.45 83.65L110.45 83.59L110.47 83.58Z" fill="#111111"/>
<path d="M89.66 70.2C87.23 70.2 85.25 68.22 85.25 65.79C85.25 63.36 87.23 61.38 89.66 61.38C92.09 61.38 94.07 63.36 94.07 65.79C94.07 68.22 92.09 70.2 89.66 70.2ZM89.66 62.38C87.78 62.38 86.25 63.91 86.25 65.79C86.25 67.67 87.78 69.2 89.66 69.2C91.54 69.2 93.07 67.67 93.07 65.79C93.07 63.91 91.54 62.38 89.66 62.38Z" fill="#111111"/>
<path d="M93.7853 73.2713L85.3496 84.8057L86.1567 85.396L94.5925 73.8616L93.7853 73.2713Z" fill="#111111"/>
<path d="M33.76 152.09C32.24 152.09 31.07 151.7 30.26 150.91C29.44 150.13 29.04 148.94 29.04 147.36V146.45H30.26V147.31C30.26 148.61 30.55 149.54 31.12 150.12C31.71 150.68 32.6 150.96 33.78 150.96C34.77 150.96 35.53 150.7 36.06 150.17C36.6 149.63 36.88 148.82 36.88 147.75V134.62H38.13V147.84C38.13 149.09 37.75 150.11 37 150.91C36.26 151.69 35.18 152.09 33.76 152.09ZM46.79 152.09C44.71 152.09 43.09 151.56 41.94 150.51C40.8 149.45 40.19 148.07 40.09 146.36H41.36C41.42 147.8 41.94 148.94 42.9 149.77C43.88 150.59 45.16 150.99 46.76 150.99C48.1 150.99 49.21 150.65 50.07 149.96C50.93 149.27 51.37 148.34 51.37 147.15C51.37 145.96 51 145.11 50.27 144.63C49.53 144.13 48.1 143.69 45.97 143.29C44.19 142.97 42.87 142.48 42.01 141.83C41.15 141.17 40.71 140.17 40.71 138.83C40.71 137.49 41.23 136.4 42.27 135.57C43.33 134.72 44.7 134.3 46.4 134.3C48.1 134.3 49.44 134.74 50.43 135.62C51.44 136.48 52.01 137.64 52.13 139.08H50.88C50.77 137.91 50.3 137.01 49.49 136.37C48.67 135.73 47.65 135.41 46.42 135.41C45.04 135.41 43.96 135.73 43.16 136.37C42.38 136.99 41.98 137.81 41.98 138.82C41.98 139.83 42.32 140.57 43.01 141.05C43.71 141.51 44.95 141.91 46.73 142.23C47.5 142.37 48.14 142.52 48.65 142.66C49.16 142.79 49.69 142.98 50.23 143.24C50.79 143.48 51.23 143.76 51.55 144.08C51.87 144.4 52.13 144.82 52.34 145.33C52.55 145.83 52.65 146.41 52.65 147.08C52.65 148.55 52.11 149.76 51.02 150.7C49.95 151.64 48.53 152.12 46.77 152.12L46.79 152.09Z" fill="#111111"/>
<path d="M32.27 17.07C30.19 17.07 28.5 15.37 28.5 13.28C28.5 11.19 30.19 9.49 32.27 9.49C34.35 9.49 36.04 11.19 36.04 13.28C36.04 15.37 34.35 17.07 32.27 17.07ZM32.27 10.5C30.74 10.5 29.5 11.75 29.5 13.29C29.5 14.83 30.74 16.08 32.27 16.08C33.8 16.08 35.04 14.83 35.04 13.29C35.04 11.75 33.8 10.5 32.27 10.5Z" fill="#111111"/>
<path d="M43.57 17.07C41.49 17.07 39.8 15.37 39.8 13.28C39.8 11.19 41.49 9.49 43.57 9.49C45.65 9.49 47.34 11.19 47.34 13.28C47.34 15.37 45.65 17.07 43.57 17.07ZM43.57 10.5C42.04 10.5 40.8 11.75 40.8 13.29C40.8 14.83 42.04 16.08 43.57 16.08C45.1 16.08 46.34 14.83 46.34 13.29C46.34 11.75 45.1 10.5 43.57 10.5Z" fill="#111111"/>
<path d="M54.88 17.07C52.8 17.07 51.11 15.37 51.11 13.28C51.11 11.19 52.8 9.49 54.88 9.49C56.96 9.49 58.65 11.19 58.65 13.28C58.65 15.37 56.96 17.07 54.88 17.07ZM54.88 10.5C53.35 10.5 52.11 11.75 52.11 13.29C52.11 14.83 53.35 16.08 54.88 16.08C56.41 16.08 57.65 14.83 57.65 13.29C57.65 11.75 56.41 10.5 54.88 10.5Z" fill="#111111"/>
<path d="M151.615 9.14668L144.084 16.7196L144.793 17.4248L152.324 9.85181L151.615 9.14668Z" fill="#111111"/>
<path d="M144.788 9.15505L144.079 9.86031L151.612 17.432L152.321 16.7267L144.788 9.15505Z" fill="#111111"/>
<path d="M8.85 181C6.77 181 0 180.31 0 171.5C0 171.08 0 168.65 0 168.22V135V40L0.33 22.08C0.37 19.96 1.19 17.95 2.64 16.41L14.57 3.74C16.01 1.46 18.6 0 21.67 0H155.67C161.77 0 165 3.14 165 9.07V159.24C165 161.56 164.38 163.43 163.15 164.81L154.3 177.39C152.71 179.65 150.11 181 147.35 181H8.85ZM14.36 180H147.34C149.78 180 152.07 178.81 153.47 176.82L160.7 166.54C159.53 167.05 158.16 167.32 156.66 167.32L147.66 167.3H26.41L14.37 180.01L14.36 180ZM1 168.42C1 169.14 1 171.13 1 171.5C1 174.05 1.77 180 8.85 180H12.98L25.02 167.29C23.92 167.29 22.48 167.29 21.99 167.29C16.33 167.29 13.33 163.57 13.33 156.52V155.23L0.99 168.43L1 168.42ZM1 135.19V166.96L13.34 153.76V120.85L1 135.19ZM26.19 166.79V166.29H147.67L156.67 166.31C159.1 166.31 161.13 165.55 162.38 164.16C163.45 162.97 164 161.31 164 159.24V120H14.34V156.51C14.34 162.99 16.92 166.28 22 166.28C22.72 166.28 25.45 166.28 26.19 166.28V166.79ZM1 40.19V133.65L13.34 119.31V26.31L1 40.19ZM14.34 119H164V25.5H14.34V119ZM13.52 6.3L3.37 17.09C2.09 18.45 1.37 20.23 1.33 22.09L1.03 38.65L13.34 24.8V8.07C13.34 7.46 13.4 6.86 13.52 6.3ZM14.34 24.5H164V9.07C164 3.71 161.2 1 155.67 1H21.67C17.49 1 14.34 4.04 14.34 8.07V24.5Z" fill="#111111"/>
</svg>
