<svg width="79" height="79" viewBox="0 0 79 79" fill="none" xmlns="http://www.w3.org/2000/svg">
<path d="M65.11 79H8.05C3.61 79 0 75.36 0 70.88V17.17C0 16.39 0.06 15.7 0.2 15.07C0.27 14.73 0.36 14.39 0.5 13.99C0.88 12.96 1.53 11.94 2.45 10.95L9.91 3.01C10.27 2.53 10.68 2.09 11.14 1.7C12.41 0.64 14.04 0 15.81 0H71.66C75.71 0 79 3.33 79 7.41V62.96C79 64.86 78.29 66.59 77.12 67.9L71.07 76.29C69.53 78.03 67.36 79 65.11 79ZM8.96 78H65.11C67.08 78 68.97 77.15 70.29 75.66L74.53 69.77C73.64 70.15 72.67 70.37 71.64 70.37H16.71L8.96 78ZM1 71.07C1.1 74.74 3.96 77.73 7.55 77.98L15.36 70.28C11.77 69.76 8.93 66.85 8.51 63.19L0.99 71.07H1ZM8.63 5.82L3.17 11.63C2.34 12.52 1.76 13.42 1.43 14.33C1.31 14.67 1.23 14.97 1.17 15.27C1.05 15.84 0.99 16.46 0.99 17.17V69.62L8.45 61.8V7.41C8.45 6.86 8.51 6.33 8.62 5.82H8.63ZM10.67 3.65C9.91 4.71 9.46 6.01 9.46 7.41V62.23C9.46 66.16 12.62 69.35 16.51 69.35H72.01C73.72 69.26 75.26 68.47 76.35 67.26L77.11 66.21C77.68 65.26 78 64.14 78 62.94V7.41C78 3.87 75.15 1 71.66 1H15.81C14.3 1 12.91 1.54 11.82 2.43L10.67 3.65Z" fill="black"/>
<path d="M45.8498 30.5H47.2698V38.85C47.2698 39.59 47.1298 40.23 46.8598 40.75C46.5998 41.25 46.1998 41.67 45.6998 41.94C45.1998 42.21 44.6098 42.35 43.9298 42.35C43.2898 42.35 42.7198 42.23 42.2198 42C41.7398 41.78 41.3298 41.43 41.0398 40.99C40.7498 40.53 40.5998 39.99 40.6098 39.44H42.0098C42.0098 39.77 42.0898 40.06 42.2598 40.31C42.4298 40.56 42.6698 40.75 42.9498 40.88C43.2398 41.02 43.5698 41.09 43.9398 41.09C44.3498 41.09 44.6898 41.01 44.9798 40.83C45.2698 40.65 45.4998 40.39 45.6298 40.08C45.7798 39.75 45.8598 39.34 45.8598 38.85V30.5H45.8498Z" fill="#111111"/>
</svg>
