<svg width="160" height="160" viewBox="0 0 160 160" fill="none" xmlns="http://www.w3.org/2000/svg">
<g clip-path="url(#clip0_7658_8713)">
<path d="M122.25 12V13H123.25V12H122.25ZM122.25 20.45V21.45H123.25V20.45H122.25ZM58.8402 73.07C58.7802 73.4 58.7202 73.73 58.6702 74.07H59.6902C59.7402 73.73 59.7902 73.4 59.8502 73.07H58.8402ZM58.8402 73.07C58.7802 73.4 58.7202 73.73 58.6702 74.07H59.6902C59.7402 73.73 59.7902 73.4 59.8502 73.07H58.8402ZM51.3002 73.07C51.2402 73.4 51.1902 73.73 51.1602 74.07H53.1702C53.2102 73.73 53.2602 73.4 53.3102 73.07C58.4102 39.94 86.8102 14.49 121.25 14.01C121.58 14 121.92 14 122.25 14V12C86.2502 12 56.4502 38.51 51.3002 73.07ZM58.6702 74.07H59.6902C59.7402 73.73 59.7902 73.4 59.8502 73.07H58.8402C58.7802 73.4 58.7202 73.73 58.6702 74.07ZM58.8402 73.07C58.7802 73.4 58.7202 73.73 58.6702 74.07H59.6902C59.7402 73.73 59.7902 73.4 59.8502 73.07H58.8402ZM121.25 13V19.46C89.8302 19.94 63.8702 42.96 58.8402 73.07H59.8502C64.8702 43.51 90.3802 20.94 121.25 20.46L123.25 20.45V13H121.25ZM121.25 19.46C89.8302 19.94 63.8702 42.96 58.8402 73.07C58.7802 73.4 58.7202 73.73 58.6702 74.07H60.7002C60.7502 73.74 60.8002 73.4 60.8602 73.07C65.8702 44.07 90.9302 21.93 121.25 21.46C121.58 21.45 121.92 21.45 122.25 21.45V19.45C121.92 19.45 121.58 19.45 121.25 19.46Z" fill="#111111"/>
<path fill-rule="evenodd" clip-rule="evenodd" d="M122.25 13V20.45C121.91 20.45 121.58 20.45 121.25 20.46C90.3802 20.94 64.8702 43.51 59.8502 73.07C59.7902 73.4 59.7402 73.73 59.6902 74.07H52.1602C52.2002 73.74 52.2502 73.4 52.3102 73.07C57.4002 39.39 86.2602 13.49 121.25 13.01C121.58 13 121.92 13 122.25 13Z" fill="#006400"/>
<path d="M122.25 19.4502V20.4502H123.25V19.4502H122.25ZM122.25 27.9002V28.9002H123.25V27.9002H122.25ZM121.25 19.4602C89.8299 19.9402 63.8699 42.9602 58.8399 73.0702C58.7799 73.4002 58.7199 73.7302 58.6699 74.0702H60.6999C60.7499 73.7402 60.7999 73.4002 60.8599 73.0702C65.8699 44.0702 90.9299 21.9302 121.25 21.4602C121.58 21.4502 121.92 21.4502 122.25 21.4502V19.4502C121.92 19.4502 121.58 19.4502 121.25 19.4602ZM121.25 20.4502C90.3799 20.9402 64.8699 43.5102 59.8499 73.0702C59.7899 73.4002 59.7399 73.7302 59.6899 74.0702H60.6999C60.7499 73.7402 60.7999 73.4002 60.8599 73.0702C65.8699 44.0702 90.9299 21.9302 121.25 21.4602V26.9102C93.9499 27.3802 71.3299 47.0902 66.3999 73.0702C66.3299 73.4002 66.2699 73.7302 66.2199 74.0702H67.2299C67.2799 73.7402 67.3499 73.4002 67.4099 73.0702C72.3299 47.6502 94.4999 28.3802 121.25 27.9102L123.25 27.9002V20.4502H121.25ZM121.25 26.9102C93.9499 27.3802 71.3299 47.0902 66.3999 73.0702C66.3299 73.4002 66.2699 73.7302 66.2199 74.0702H68.2399C68.2999 73.7402 68.3599 73.4002 68.4299 73.0702C73.3399 48.2002 95.0499 29.3802 121.25 28.9102C121.58 28.9002 121.92 28.9002 122.25 28.9002V26.9002C121.92 26.9002 121.58 26.9002 121.25 26.9102Z" fill="#111111"/>
<path fill-rule="evenodd" clip-rule="evenodd" d="M122.249 20.4502V27.9002C121.919 27.9002 121.579 27.9002 121.249 27.9102C94.4995 28.3802 72.3295 47.6502 67.4095 73.0702C67.3495 73.4002 67.2795 73.7402 67.2295 74.0702H59.6895C59.7395 73.7302 59.7895 73.4002 59.8495 73.0702C64.8695 43.5102 90.3794 20.9402 121.249 20.4602C121.579 20.4502 121.909 20.4502 122.249 20.4502Z" fill="#0000CD"/>
<path d="M122.251 26.8999V27.8999H123.251V26.8999H122.251ZM122.251 35.3399V36.3399H123.251V35.3399H122.251ZM121.251 26.9099C93.9507 27.3799 71.3307 47.0899 66.4007 73.0699C66.3307 73.3999 66.2707 73.7299 66.2207 74.0699H68.2407C68.3007 73.7399 68.3607 73.3999 68.4307 73.0699C73.3407 48.1999 95.0507 29.3799 121.251 28.9099C121.581 28.8999 121.921 28.8999 122.251 28.8999V26.8999C121.921 26.8999 121.581 26.8999 121.251 26.9099ZM121.251 27.8999C94.5007 28.3799 72.3307 47.6499 67.4107 73.0699C67.3507 73.3999 67.2807 73.7399 67.2307 74.0699H68.2407C68.3007 73.7399 68.3607 73.3999 68.4307 73.0699C73.3407 48.1999 95.0507 29.3799 121.251 28.9099V34.3599C98.0707 34.8099 78.8107 51.2299 74.0007 73.0699C73.9207 73.3999 73.8507 73.7399 73.7907 74.0699H74.8107C74.8807 73.7299 74.9507 73.3999 75.0207 73.0699C79.8207 51.7899 98.6307 35.8099 121.251 35.3599V35.3399H123.251V27.8999H121.251ZM121.251 34.3599C98.0707 34.8099 78.8107 51.2299 74.0007 73.0699C73.9207 73.3999 73.8507 73.7399 73.7907 74.0699H75.8307C75.9007 73.7299 75.9707 73.3999 76.0407 73.0699C80.8207 52.3499 99.1807 36.8099 121.251 36.3599C121.581 36.3399 121.911 36.3399 122.251 36.3399V34.3399C121.921 34.3399 121.581 34.3399 121.251 34.3599Z" fill="#111111"/>
<path fill-rule="evenodd" clip-rule="evenodd" d="M122.25 27.8999V35.3399C121.92 35.3399 121.58 35.3399 121.25 35.3599C98.6305 35.8099 79.8205 51.7899 75.0205 73.0699C74.9505 73.3999 74.8805 73.7299 74.8105 74.0699H67.2305C67.2805 73.7399 67.3505 73.3999 67.4105 73.0699C72.3305 47.6499 94.5005 28.3799 121.25 27.9099C121.58 27.8999 121.92 27.8999 122.25 27.8999Z" fill="#800080"/>
<path d="M122.249 34.3398V35.3398H123.249V34.3398H122.249ZM122.249 42.7898V43.7898H123.249V42.7898H122.249ZM121.249 34.3598C98.0691 34.8098 78.8091 51.2298 73.9991 73.0698C73.9191 73.3998 73.8491 73.7398 73.7891 74.0698H75.8291C75.8991 73.7298 75.9691 73.3998 76.0391 73.0698C80.8191 52.3498 99.1791 36.8098 121.249 36.3598C121.579 36.3398 121.909 36.3398 122.249 36.3398V34.3398C121.919 34.3398 121.579 34.3398 121.249 34.3598ZM121.249 35.3398V35.3598C98.6291 35.8098 79.8191 51.7898 75.0191 73.0698C74.9491 73.3998 74.8791 73.7298 74.8091 74.0698H75.8291C75.8991 73.7298 75.9691 73.3998 76.0391 73.0698C80.8191 52.3498 99.1791 36.8098 121.249 36.3598V41.7998C101.439 42.2698 85.0291 56.4598 81.1591 75.2298C81.0591 75.6998 80.9691 76.1698 80.8891 76.6498L81.7091 77.8698C81.7791 77.3798 81.8591 76.8898 81.9491 76.4098C85.3491 57.6098 101.579 43.2698 121.249 42.7998H123.249V35.3498H121.249V35.3398ZM121.249 41.7998C101.439 42.2698 85.0291 56.4598 81.1591 75.2298C81.0591 75.6998 80.9691 76.1698 80.8891 76.6498L81.7091 77.8698L81.8591 78.0998C82.0691 78.4098 82.3091 78.6898 82.5791 78.9398C82.6291 78.4998 82.6891 78.0598 82.7591 77.6198C85.6491 58.7798 101.709 44.2798 121.249 43.7998C121.579 43.7998 121.919 43.7998 122.249 43.7998V41.7998C121.909 41.7998 121.579 41.7998 121.249 41.7998Z" fill="#111111"/>
<path fill-rule="evenodd" clip-rule="evenodd" d="M122.251 35.3401V42.7901C121.921 42.7901 121.581 42.7901 121.251 42.7901C101.581 43.2601 85.3505 57.6001 81.9505 76.4001C81.8605 76.8801 81.7805 77.3701 81.7105 77.8601L80.8905 76.6401L80.2905 75.7301C79.6005 74.6901 78.4305 74.0601 77.1805 74.0601H74.8105C74.8805 73.7201 74.9505 73.3901 75.0205 73.0601C79.8205 51.7801 98.6305 35.8001 121.251 35.3501C121.581 35.3301 121.921 35.3301 122.251 35.3301V35.3401Z" fill="#EE82EE"/>
<path d="M122.251 41.79V42.79H123.251V41.79H122.251ZM122.251 50.24V51.24H123.251V50.24H122.251ZM121.251 41.8C101.441 42.27 85.0306 56.46 81.1606 75.23C81.0606 75.7 80.9706 76.17 80.8906 76.65L81.7106 77.87L81.8606 78.1C82.0706 78.41 82.3106 78.69 82.5806 78.94C82.6306 78.5 82.6906 78.06 82.7606 77.62C85.6506 58.78 101.711 44.28 121.251 43.8C121.581 43.8 121.921 43.8 122.251 43.8V41.8C121.911 41.8 121.581 41.8 121.251 41.8ZM121.251 42.79C101.581 43.27 85.3506 57.61 81.9506 76.41C81.8606 76.89 81.7806 77.38 81.7106 77.87L81.8606 78.1C82.0706 78.41 82.3106 78.69 82.5806 78.94C82.6306 78.5 82.6906 78.06 82.7606 77.62C85.6506 58.78 101.711 44.28 121.251 43.8V49.25C104.181 49.74 90.2106 62.62 88.0406 79.21C87.9906 79.54 87.9506 79.88 87.9206 80.21H88.9206C88.9606 79.88 89.0006 79.54 89.0506 79.21C91.2106 63.17 104.731 50.74 121.251 50.25L123.251 50.24V42.79H121.251ZM121.251 49.25C104.181 49.74 90.2106 62.62 88.0406 79.21C87.9906 79.54 87.9506 79.88 87.9206 80.21H89.9306C89.9706 79.87 90.0106 79.54 90.0506 79.21C92.2206 63.72 105.281 51.74 121.251 51.26C121.581 51.25 121.921 51.24 122.251 51.24V49.24C121.921 49.24 121.581 49.24 121.251 49.25Z" fill="#111111"/>
<path fill-rule="evenodd" clip-rule="evenodd" d="M122.251 42.79V50.24C121.911 50.24 121.581 50.24 121.251 50.25C104.731 50.74 91.2109 63.17 89.0509 79.21C89.0009 79.54 88.9609 79.88 88.9209 80.21H85.8109C84.5909 80.21 83.4509 79.75 82.5809 78.94C82.3109 78.69 82.0709 78.41 81.8609 78.1L81.7109 77.87C81.7809 77.38 81.8609 76.89 81.9509 76.41C85.3509 57.61 101.581 43.27 121.251 42.8C121.581 42.8 121.921 42.8 122.251 42.8V42.79Z" fill="#FF4500"/>
<path d="M122.25 56.6899V57.6899H123.25V56.6899H122.25ZM122.25 65.1299V66.1299L123.25 66.1199V65.1299H122.25ZM121.25 56.7199C108.3 57.1799 97.6697 66.7399 95.5797 79.2099C95.5097 79.5399 95.4597 79.8699 95.4297 80.2099H97.4397C97.4897 79.8699 97.5397 79.5399 97.6097 79.2099C99.6797 67.8599 109.41 59.1699 121.25 58.7099C121.58 58.6999 121.91 58.6899 122.25 58.6899V56.6899C121.91 56.6899 121.58 56.6999 121.25 56.7199ZM121.25 57.6899V65.1299H123.25V57.6899H121.25ZM96.5897 79.2099C96.5297 79.5399 96.4697 79.8699 96.4297 80.2099H97.4397C97.4897 79.8699 97.5397 79.5399 97.6097 79.2099C99.6797 67.8599 109.41 59.1699 121.25 58.7099V57.7099C108.86 58.1799 98.6797 67.2999 96.5897 79.2099ZM96.5897 79.2099C96.5297 79.5399 96.4697 79.8699 96.4297 80.2099H97.4397C97.4897 79.8699 97.5397 79.5399 97.6097 79.2099C99.6797 67.8599 109.41 59.1699 121.25 58.7099V57.7099C108.86 58.1799 98.6797 67.2999 96.5897 79.2099ZM122.25 65.1299V64.1399C121.91 64.1399 121.58 64.1599 121.25 64.1799C112.65 64.7299 105.58 70.9699 103.66 79.2099C103.57 79.5399 103.51 79.8799 103.45 80.2099H105.48C105.55 79.8699 105.63 79.5399 105.72 79.2099C107.67 71.7499 114.33 66.2399 122.26 66.1299V65.1299H122.25ZM121.25 58.7099V57.7099C108.86 58.1799 98.6797 67.2999 96.5897 79.2099C96.5297 79.5399 96.4697 79.8699 96.4297 80.2099H97.4397C97.4897 79.8699 97.5397 79.5399 97.6097 79.2099C99.6797 67.8599 109.41 59.1699 121.25 58.7099ZM96.5897 79.2099C96.5297 79.5399 96.4697 79.8699 96.4297 80.2099H97.4397C97.4897 79.8699 97.5397 79.5399 97.6097 79.2099C99.6797 67.8599 109.41 59.1699 121.25 58.7099V57.7099C108.86 58.1799 98.6797 67.2999 96.5897 79.2099Z" fill="#111111"/>
<path fill-rule="evenodd" clip-rule="evenodd" d="M122.25 57.6899V65.1299C113.76 65.2499 106.66 71.1999 104.68 79.2099C104.6 79.5399 104.53 79.8699 104.47 80.2099H96.4297C96.4697 79.8699 96.5297 79.5399 96.5897 79.2099C98.6797 67.2999 108.86 58.1799 121.25 57.7099C121.58 57.6999 121.91 57.6899 122.25 57.6899Z" fill="#FFD700"/>
<path d="M122.25 49.2402V50.2402H123.25V49.2402H122.25ZM122.25 57.6902V58.6902H123.25V57.6902H122.25ZM121.25 49.2502C104.18 49.7402 90.2099 62.6202 88.0399 79.2102C87.9899 79.5402 87.9499 79.8802 87.9199 80.2102H89.9299C89.9699 79.8702 90.0099 79.5402 90.0499 79.2102C92.2199 63.7202 105.28 51.7402 121.25 51.2602C121.58 51.2502 121.92 51.2402 122.25 51.2402V49.2402C121.92 49.2402 121.58 49.2402 121.25 49.2502ZM121.25 50.2402C104.73 50.7402 91.2099 63.1702 89.0499 79.2102C88.9999 79.5402 88.9599 79.8802 88.9199 80.2102H89.9299C89.9699 79.8702 90.0099 79.5402 90.0499 79.2102C92.2199 63.7202 105.28 51.7402 121.25 51.2602V56.7202C108.3 57.1802 97.6699 66.7402 95.5799 79.2102C95.5099 79.5402 95.4599 79.8702 95.4299 80.2102H96.4299C96.4699 79.8702 96.5299 79.5402 96.5899 79.2102C98.6799 67.3002 108.86 58.1802 121.25 57.7102V57.6902H123.25V50.2402H121.25ZM121.25 56.7202C108.3 57.1802 97.6699 66.7402 95.5799 79.2102C95.5099 79.5402 95.4599 79.8702 95.4299 80.2102H97.4399C97.4899 79.8702 97.5399 79.5402 97.6099 79.2102C99.6799 67.8602 109.41 59.1702 121.25 58.7102C121.58 58.7002 121.91 58.6902 122.25 58.6902V56.6902C121.91 56.6902 121.58 56.7002 121.25 56.7202Z" fill="#111111"/>
<path fill-rule="evenodd" clip-rule="evenodd" d="M122.25 50.2402V57.6902C121.91 57.6902 121.58 57.7002 121.25 57.7102C108.86 58.1802 98.6799 67.3002 96.5899 79.2102C96.5299 79.5402 96.4699 79.8702 96.4299 80.2102H88.9199C88.9599 79.8802 88.9999 79.5402 89.0499 79.2102C91.2099 63.1702 104.73 50.7402 121.25 50.2502C121.58 50.2402 121.91 50.2402 122.25 50.2402Z" fill="#FFA500"/>
<path d="M120.01 79.2098H85.81C84.59 79.2098 83.45 78.6198 82.76 77.6198C82.74 77.5998 82.72 77.5698 82.7 77.5398L81.95 76.4098L81.16 75.2298L81.13 75.1898C80.24 73.8598 78.77 73.0698 77.18 73.0698H45.16C43.8 73.0698 42.65 73.7198 42.01 74.7198L37.42 79.5998C36.61 80.4598 36.15 81.5898 36.13 82.7798L36 91.7698H36.5L36 91.7798V143.52C36 144.5 36.28 147.7 39.92 147.7H116.1C117.65 147.7 119.1 146.95 119.98 145.68L123.3 140.97C123.85 140.35 124.13 139.52 124.13 138.5V83.2198C124.13 80.6298 122.67 79.2098 120.01 79.2098ZM37.13 82.7998C37.15 81.8598 37.51 80.9698 38.15 80.2798L41.46 76.7698V85.8498L37.02 90.5098L37.13 82.7998ZM37 91.9798L41.46 87.2998V136.14L37 140.91V91.9798ZM39.92 146.7C37.38 146.7 37 144.71 37 143.52V142.37L41.46 137.6C41.52 140.5 42.88 142.09 45.29 142.09H45.85L41.48 146.7H39.92ZM119.17 145.11C118.47 146.11 117.32 146.7 116.1 146.7H42.86L47.22 142.09H120.42C120.74 142.1 121.05 142.07 121.34 142.02L119.17 145.11ZM123.13 138.5C123.13 139.28 122.93 139.89 122.54 140.32C121.93 141 120.95 141.1 120.42 141.1H47.01L45.3 141.09C44.59 141.09 42.46 141.09 42.46 137.39V86.5498H123.13V138.5ZM123.13 85.5498H42.46V76.6698C42.46 74.9798 43.85 74.0698 45.16 74.0698H77.18C78.43 74.0698 79.6 74.6998 80.29 75.7398L80.89 76.6498L81.71 77.8698L81.86 78.0998C82.07 78.4098 82.31 78.6898 82.58 78.9398C83.45 79.7498 84.59 80.2098 85.81 80.2098H120.01C122.11 80.2098 123.13 81.1898 123.13 83.2198V85.5498Z" fill="#111111"/>
</g>
<defs>
<clipPath id="clip0_7658_8713">
<rect width="88.13" height="135.7" fill="white" transform="translate(36 12)"/>
</clipPath>
</defs>
</svg>
