<svg width="79" height="79" viewBox="0 0 79 79" fill="none" xmlns="http://www.w3.org/2000/svg">
<g clip-path="url(#clip0_8052_10145)">
<path d="M65.11 79H8.05C3.61 79 0 75.36 0 70.88V17.17C0 16.39 0.06 15.7 0.2 15.07C0.27 14.73 0.36 14.39 0.5 13.99C0.88 12.96 1.53 11.94 2.45 10.95L9.91 3.01C10.27 2.53 10.68 2.09 11.14 1.7C12.41 0.64 14.04 0 15.81 0H71.66C75.71 0 79 3.33 79 7.41V62.96C79 64.86 78.29 66.59 77.12 67.9L71.07 76.29C69.53 78.03 67.36 79 65.11 79ZM8.96 78H65.11C67.08 78 68.97 77.15 70.29 75.66L74.53 69.77C73.64 70.15 72.67 70.37 71.64 70.37H16.71L8.96 78ZM1 71.07C1.1 74.74 3.96 77.73 7.55 77.98L15.36 70.28C11.77 69.76 8.93 66.85 8.51 63.19L0.99 71.07H1ZM8.63 5.82L3.17 11.63C2.34 12.52 1.76 13.42 1.43 14.33C1.31 14.67 1.23 14.97 1.17 15.27C1.05 15.84 0.99 16.46 0.99 17.17V69.62L8.45 61.8V7.41C8.45 6.86 8.51 6.33 8.62 5.82H8.63ZM10.67 3.65C9.91 4.71 9.46 6.01 9.46 7.41V62.23C9.46 66.16 12.62 69.35 16.51 69.35H72.01C73.72 69.26 75.26 68.47 76.35 67.26L77.11 66.21C77.68 65.26 78 64.14 78 62.94V7.41C78 3.87 75.15 1 71.66 1H15.81C14.3 1 12.91 1.54 11.82 2.43L10.67 3.65Z" fill="#111111"/>
<path d="M39.2247 37.5179C39.2127 38.1779 39.3147 38.7299 39.5307 39.1739C39.7467 39.6179 40.0407 39.9719 40.4127 40.2359C40.7967 40.4999 41.2467 40.6919 41.7627 40.8119C42.2787 40.9199 42.8307 40.9739 43.4187 40.9739C43.7547 40.9739 44.1207 40.9259 44.5167 40.8299C44.9127 40.7339 45.2787 40.5839 45.6147 40.3799C45.9627 40.1639 46.2507 39.8939 46.4787 39.5699C46.7067 39.2339 46.8207 38.8319 46.8207 38.3639C46.8207 38.0039 46.7367 37.6919 46.5687 37.4279C46.4127 37.1639 46.2027 36.9419 45.9387 36.7619C45.6867 36.5819 45.4047 36.4379 45.0927 36.3299C44.7807 36.2099 44.4747 36.1139 44.1747 36.0419L41.3127 35.3399C40.9407 35.2439 40.5747 35.1239 40.2147 34.9799C39.8667 34.8359 39.5607 34.6439 39.2967 34.4039C39.0327 34.1639 38.8167 33.8699 38.6487 33.5219C38.4927 33.1739 38.4147 32.7479 38.4147 32.2439C38.4147 31.9319 38.4747 31.5659 38.5947 31.1459C38.7147 30.7259 38.9367 30.3299 39.2607 29.9579C39.5967 29.5859 40.0527 29.2739 40.6287 29.0219C41.2047 28.7579 41.9427 28.6259 42.8427 28.6259C43.4787 28.6259 44.0847 28.7099 44.6607 28.8779C45.2367 29.0459 45.7407 29.2979 46.1727 29.6339C46.6047 29.9699 46.9467 30.3899 47.1987 30.8939C47.4627 31.3859 47.5947 31.9619 47.5947 32.6219H46.3707C46.3467 32.1299 46.2327 31.7039 46.0287 31.3439C45.8367 30.9719 45.5787 30.6659 45.2547 30.4259C44.9427 30.1739 44.5767 29.9879 44.1567 29.8679C43.7487 29.7359 43.3167 29.6699 42.8607 29.6699C42.4407 29.6699 42.0327 29.7179 41.6367 29.8139C41.2527 29.8979 40.9107 30.0419 40.6107 30.2459C40.3227 30.4379 40.0887 30.6959 39.9087 31.0199C39.7287 31.3439 39.6387 31.7459 39.6387 32.2259C39.6387 32.5259 39.6867 32.7899 39.7827 33.0179C39.8907 33.2339 40.0347 33.4199 40.2147 33.5759C40.3947 33.7319 40.5987 33.8579 40.8267 33.9539C41.0667 34.0499 41.3187 34.1279 41.5827 34.1879L44.7147 34.9619C45.1707 35.0819 45.5967 35.2319 45.9927 35.4119C46.4007 35.5799 46.7547 35.7959 47.0547 36.0599C47.3667 36.3119 47.6067 36.6239 47.7747 36.9959C47.9547 37.3679 48.0447 37.8179 48.0447 38.3459C48.0447 38.4899 48.0267 38.6819 47.9907 38.9219C47.9667 39.1619 47.8947 39.4199 47.7747 39.6959C47.6667 39.9599 47.5047 40.2299 47.2887 40.5059C47.0847 40.7819 46.7967 41.0339 46.4247 41.2619C46.0647 41.4779 45.6147 41.6519 45.0747 41.7839C44.5347 41.9279 43.8867 41.9999 43.1307 41.9999C42.3747 41.9999 41.6727 41.9159 41.0247 41.7479C40.3767 41.5679 39.8247 41.2979 39.3687 40.9379C38.9127 40.5779 38.5587 40.1159 38.3067 39.5519C38.0667 38.9879 37.9647 38.3099 38.0007 37.5179H39.2247Z" fill="#111111"/>
</g>
<defs>
<clipPath id="clip0_8052_10145">
<rect width="79" height="79" fill="white"/>
</clipPath>
</defs>
</svg>
