<svg width="79" height="79" viewBox="0 0 79 79" fill="none" xmlns="http://www.w3.org/2000/svg">
<path d="M65.11 79H8.05C3.61 79 0 75.36 0 70.88V17.17C0 16.39 0.06 15.7 0.2 15.07C0.27 14.73 0.36 14.39 0.5 13.99C0.88 12.96 1.53 11.94 2.45 10.95L9.91 3.01C10.27 2.53 10.68 2.09 11.14 1.7C12.41 0.64 14.04 0 15.81 0H71.66C75.71 0 79 3.33 79 7.41V62.96C79 64.86 78.29 66.59 77.12 67.9L71.07 76.29C69.53 78.03 67.36 79 65.11 79ZM8.96 78H65.11C67.08 78 68.97 77.15 70.29 75.66L74.53 69.77C73.64 70.15 72.67 70.37 71.64 70.37H16.71L8.96 78ZM1 71.07C1.1 74.74 3.96 77.73 7.55 77.98L15.36 70.28C11.77 69.76 8.93 66.85 8.51 63.19L0.99 71.07H1ZM8.63 5.82L3.17 11.63C2.34 12.52 1.76 13.42 1.43 14.33C1.31 14.67 1.23 14.97 1.17 15.27C1.05 15.84 0.99 16.46 0.99 17.17V69.62L8.45 61.8V7.41C8.45 6.86 8.51 6.33 8.62 5.82H8.63ZM10.67 3.65C9.91 4.71 9.46 6.01 9.46 7.41V62.23C9.46 66.16 12.62 69.35 16.51 69.35H72.01C73.72 69.26 75.26 68.47 76.35 67.26L77.11 66.21C77.68 65.26 78 64.14 78 62.94V7.41C78 3.87 75.15 1 71.66 1H15.81C14.3 1 12.91 1.54 11.82 2.43L10.67 3.65Z" fill="black"/>
<path d="M31.5 30.48H38.57V31.74H32.92V35.69H38.2V36.95H32.92V40.92H38.66V42.18H31.5V30.48ZM47.16 35.37L45.95 35.71C45.87 35.5 45.75 35.3 45.61 35.12C45.45 34.92 45.25 34.75 45.01 34.64C44.71 34.5 44.38 34.44 44.04 34.45C43.5 34.45 43.06 34.57 42.7 34.82C42.35 35.06 42.17 35.37 42.17 35.75C42.17 35.9 42.19 36.05 42.26 36.19C42.32 36.33 42.42 36.45 42.54 36.54C42.78 36.73 43.17 36.9 43.68 37.03L44.98 37.35C45.77 37.54 46.35 37.83 46.73 38.22C47.11 38.61 47.31 39.11 47.31 39.72C47.31 40.22 47.17 40.67 46.88 41.07C46.59 41.47 46.19 41.78 45.68 42.01C45.17 42.24 44.57 42.35 43.89 42.35C42.99 42.35 42.25 42.16 41.67 41.77C41.08 41.38 40.71 40.82 40.55 40.07L41.83 39.75C41.95 40.22 42.18 40.58 42.52 40.81C42.86 41.04 43.31 41.16 43.86 41.16C44.49 41.16 44.99 41.03 45.36 40.76C45.73 40.49 45.92 40.17 45.92 39.79C45.92 39.48 45.81 39.23 45.6 39.02C45.39 38.81 45.06 38.65 44.62 38.55L43.16 38.21C42.35 38.02 41.76 37.73 41.39 37.33C41.01 36.92 40.81 36.37 40.83 35.82C40.83 35.33 40.97 34.89 41.25 34.51C41.53 34.13 41.92 33.83 42.4 33.61C42.89 33.39 43.44 33.29 44.06 33.29C44.93 33.29 45.61 33.48 46.11 33.86C46.61 34.24 46.96 34.74 47.17 35.37H47.16ZM52.92 42.36C52.1 42.36 51.39 42.17 50.79 41.78C50.19 41.39 49.71 40.83 49.42 40.18C49.09 39.45 48.93 38.65 48.94 37.85C48.94 36.96 49.1 36.17 49.43 35.49C49.76 34.81 50.22 34.27 50.81 33.89C51.43 33.49 52.15 33.29 52.89 33.31C53.51 33.31 54.06 33.43 54.56 33.65C55.06 33.88 55.46 34.2 55.78 34.61C56.1 35.02 56.29 35.5 56.37 36.05H55.02C54.91 35.63 54.67 35.26 54.33 34.99C53.98 34.68 53.5 34.52 52.91 34.52C52.38 34.52 51.92 34.66 51.53 34.93C51.12 35.22 50.8 35.62 50.61 36.08C50.38 36.63 50.27 37.22 50.29 37.81C50.29 38.49 50.39 39.08 50.61 39.58C50.83 40.08 51.13 40.47 51.52 40.75C51.92 41.03 52.38 41.16 52.92 41.16C53.27 41.16 53.59 41.1 53.88 40.98C54.16 40.86 54.42 40.68 54.62 40.44C54.82 40.21 54.96 39.93 55.03 39.63H56.38C56.31 40.14 56.11 40.62 55.8 41.04C55.49 41.45 55.09 41.79 54.62 42.01C54.13 42.25 53.57 42.37 52.92 42.37V42.36Z" fill="#111111"/>
</svg>
