<svg width="66" height="102" viewBox="0 0 66 102" fill="none" xmlns="http://www.w3.org/2000/svg">
<g clip-path="url(#clip0_4280_326)">
<path fill-rule="evenodd" clip-rule="evenodd" d="M0 0H66V18.1916H0V0ZM65 1H1V17.1916H65V1ZM0.041214 26.7022H18.2694V69.371C18.2694 73.5183 19.1843 77.2757 21.3052 79.9763C23.3934 82.635 26.7606 84.409 31.995 84.409C36.9888 84.409 40.8867 82.9678 43.5305 80.434C46.1689 77.9054 47.6739 74.1782 47.6739 69.371V26.7022H65.9021V99.1495H47.6739V85.3299C45.9247 89.869 43.4676 93.3651 40.4095 95.9026C36.0572 99.5139 30.5916 101.098 24.4819 101.098C15.7531 101.098 9.57639 98.1958 5.6114 93.2071C1.67871 88.2591 0.041214 81.4067 0.041214 73.7178V26.7022ZM17.2694 27.7022H1.04121L1.04121 73.7178C1.04121 81.2871 2.65653 87.8821 6.39426 92.5849C10.132 97.2876 15.9921 100.098 24.4819 100.098C30.4172 100.098 35.6388 98.5617 39.7709 95.133C43.2691 92.2304 45.9853 87.9732 47.6941 82.1445L48.6739 82.2852V98.1495H64.9021V27.7022H48.6739V69.371C48.6739 74.3924 47.0961 78.4018 44.2225 81.156C41.3487 83.9101 37.179 85.409 31.995 85.409C26.5104 85.409 22.829 83.5354 20.5188 80.5939C18.2085 77.6524 17.2694 73.6429 17.2694 69.371V27.7022Z" fill="#111111"/>
</g>
<defs>
<clipPath id="clip0_4280_326">
<rect width="66" height="102" fill="white"/>
</clipPath>
</defs>
</svg>
