<svg width="12" height="12" viewBox="0 0 12 12" fill="none" xmlns="http://www.w3.org/2000/svg">
<path fill-rule="evenodd" clip-rule="evenodd" d="M10.4186 7.16279C10.0929 7.16279 9.83721 7.41851 9.83721 7.74419C9.83721 8.06986 10.0929 8.32558 10.4186 8.32558C10.7443 8.32558 11 8.06986 11 7.74419C11 7.41851 10.7443 7.16279 10.4186 7.16279ZM7.74419 2.86047C6.97656 2.86047 6.34884 3.48819 6.34884 4.25581C6.34884 5.02344 6.97656 5.65116 7.74419 5.65116C8.51181 5.65116 9.13953 5.02344 9.13953 4.25581C9.13953 3.48819 8.51181 2.86047 7.74419 2.86047ZM7.74419 6.34884C6.97656 6.34884 6.34884 6.97656 6.34884 7.74419C6.34884 8.51181 6.97656 9.13953 7.74419 9.13953C8.51181 9.13953 9.13953 8.51181 9.13953 7.74419C9.13953 6.97656 8.51181 6.34884 7.74419 6.34884ZM7.74419 9.83721C7.41851 9.83721 7.16279 10.0929 7.16279 10.4186C7.16279 10.7443 7.41851 11 7.74419 11C8.06986 11 8.32558 10.7443 8.32558 10.4186C8.32558 10.0929 8.06986 9.83721 7.74419 9.83721ZM4.25581 2.86047C3.48819 2.86047 2.86047 3.48819 2.86047 4.25581C2.86047 5.02344 3.48819 5.65116 4.25581 5.65116C5.02344 5.65116 5.65116 5.02344 5.65116 4.25581C5.65116 3.48819 5.02344 2.86047 4.25581 2.86047ZM4.25581 6.34884C3.48819 6.34884 2.86047 6.97656 2.86047 7.74419C2.86047 8.51181 3.48819 9.13953 4.25581 9.13953C5.02344 9.13953 5.65116 8.51181 5.65116 7.74419C5.65116 6.97656 5.02344 6.34884 4.25581 6.34884ZM4.25581 9.83721C3.93014 9.83721 3.67442 10.0929 3.67442 10.4186C3.67442 10.7443 3.93014 11 4.25581 11C4.58149 11 4.83721 10.7443 4.83721 10.4186C4.83721 10.0929 4.58149 9.83721 4.25581 9.83721ZM1.5814 3.67442C1.25572 3.67442 1 3.93014 1 4.25581C1 4.58149 1.25572 4.83721 1.5814 4.83721C1.90707 4.83721 2.16279 4.58149 2.16279 4.25581C2.16279 3.93014 1.90707 3.67442 1.5814 3.67442ZM1.5814 7.16279C1.25572 7.16279 1 7.41851 1 7.74419C1 8.06986 1.25572 8.32558 1.5814 8.32558C1.90707 8.32558 2.16279 8.06986 2.16279 7.74419C2.16279 7.41851 1.90707 7.16279 1.5814 7.16279ZM4.25581 2.16279C4.58149 2.16279 4.83721 1.90707 4.83721 1.5814C4.83721 1.25572 4.58149 1 4.25581 1C3.93014 1 3.67442 1.25572 3.67442 1.5814C3.67442 1.90707 3.93014 2.16279 4.25581 2.16279ZM7.74419 2.16279C8.06986 2.16279 8.32558 1.90707 8.32558 1.5814C8.32558 1.25572 8.06986 1 7.74419 1C7.41851 1 7.16279 1.25572 7.16279 1.5814C7.16279 1.90707 7.41851 2.16279 7.74419 2.16279ZM10.4186 4.83721C10.7443 4.83721 11 4.58149 11 4.25581C11 3.93014 10.7443 3.67442 10.4186 3.67442C10.0929 3.67442 9.83721 3.93014 9.83721 4.25581C9.83721 4.58149 10.0929 4.83721 10.4186 4.83721Z" fill="black"/>
</svg>
