<svg width="12" height="12" viewBox="0 0 12 12" fill="none" xmlns="http://www.w3.org/2000/svg">
<path fill-rule="evenodd" clip-rule="evenodd" d="M1.41694 6.62516C2.29422 7.97858 3.81714 8.91355 5.57785 9.04333C5.71711 9.0536 5.85785 9.05882 5.99988 9.05882C6.21655 9.05882 6.43023 9.04666 6.6402 9.02301C8.56509 8.80618 10.1781 7.62398 10.9278 6C10.15 4.315 8.44267 3.10562 6.42195 2.95667C6.28268 2.9464 6.14192 2.94118 5.99988 2.94118C5.79621 2.94118 5.59518 2.95193 5.39739 2.97286C3.71335 3.15113 2.26411 4.06788 1.41694 5.37484C1.28752 5.57453 1.17215 5.78333 1.07216 6C1.17215 6.21666 1.28752 6.42547 1.41694 6.62516ZM12 6L11.9282 6.17254C11.9027 6.23378 11.8762 6.29454 11.8487 6.35479C10.9465 8.33041 8.96473 9.76213 6.60513 9.97308C6.40593 9.99089 6.20404 10 5.99988 10C3.37733 10 1.12922 8.49691 0.15105 6.35419C0.123635 6.29413 0.0972174 6.23358 0.0718171 6.17254L0 6L0.0718171 5.82746C0.0972174 5.76642 0.123635 5.70587 0.15105 5.64581C0.21182 5.51269 0.277491 5.38205 0.347848 5.25407C1.40738 3.32643 3.53108 2.00573 5.9839 2.00002C5.98923 2.00001 5.99455 2 5.99988 2C6.02397 2 6.04803 2.00013 6.07206 2.00038C8.66362 2.02767 10.8794 3.5225 11.8487 5.64523C11.8762 5.70548 11.9027 5.76623 11.9282 5.82746L12 6ZM5.99988 6.94118C6.54869 6.94118 6.99367 6.51978 6.99367 6C6.99367 5.48022 6.54869 5.05882 5.99988 5.05882C5.45107 5.05882 5.00609 5.48022 5.00609 6C5.00609 6.51978 5.45107 6.94118 5.99988 6.94118ZM7.98746 6C7.98746 7.03961 7.09752 7.88235 5.99988 7.88235C4.90224 7.88235 4.01229 7.03961 4.01229 6C4.01229 4.96039 4.90224 4.11765 5.99988 4.11765C7.09752 4.11765 7.98746 4.96039 7.98746 6Z" fill="black"/>
</svg>
