<svg width="12" height="12" viewBox="0 0 12 12" fill="none" xmlns="http://www.w3.org/2000/svg">
<g clip-path="url(#clip0_2_236)">
<path d="M11.6249 0H11.5727L0.322922 1.60766C0.137295 1.63377 -0.000960223 1.79231 5.03864e-06 1.97985L5.03864e-06 10.0163C-0.000961708 10.2039 0.137293 10.3634 0.322922 10.3895L11.5727 11.9971V11.9962C11.68 12.0116 11.7892 11.9797 11.8714 11.9082C11.9536 11.8367 12 11.7332 12 11.624L12 0.375212C12 0.168332 11.8318 0.000128746 11.6249 0.000128746L11.6249 0ZM0.750098 2.30757L11.2507 0.80721L11.2497 11.1918L0.749131 9.69143L0.750098 2.30757Z" fill="black"/>
</g>
<defs>
<clipPath id="clip0_2_236">
<rect width="12" height="12" fill="white" transform="matrix(1 0 0 -1 0 12)"/>
</clipPath>
</defs>
</svg>
