<svg width="674" height="134" viewBox="0 0 674 134" fill="none" xmlns="http://www.w3.org/2000/svg">
<path d="M608.493 30.5322H583.515L573.481 69.8141C569.638 84.3313 566.223 99.4889 562.807 115.074H562.38C559.177 99.7024 555.548 85.1852 551.065 69.3871L540.391 30.5322H516.693L547.222 130.872H574.976L585.65 87.1066C588.852 73.8703 592.055 59.9936 594.617 46.3304H595.043C597.605 60.2071 600.381 73.6569 603.797 87.1066L615.111 130.872H643.078L673.394 30.5322H650.55L641.157 69.3871C637.101 85.3987 633.471 99.4889 630.056 115.074H629.629C626.213 99.4889 622.797 84.3313 618.741 69.8141L608.493 30.5322Z" fill="black"/>
<path d="M466.974 133.645C498.784 133.645 518.211 113.364 518.211 80.4869C518.211 47.3962 497.716 27.9688 466.974 27.9688C436.018 27.9688 415.523 47.3962 415.523 80.4869C415.523 113.364 434.737 133.645 466.974 133.645ZM466.974 48.8906C484.694 48.8906 495.368 61.0594 495.368 80.2734C495.368 99.7008 485.121 112.51 466.761 112.51C448.614 112.51 438.58 99.7008 438.58 80.2734C438.58 61.0594 449.041 48.8906 466.974 48.8906Z" fill="black"/>
<path d="M361.562 112.935C344.91 112.935 334.662 100.553 334.662 81.339V79.6311C334.662 59.7767 344.91 48.6753 361.562 48.6753C379.281 48.6753 387.394 60.2037 387.394 80.2716C387.394 100.766 378.854 112.935 361.562 112.935ZM334.662 0H311.605V130.868H334.662V102.261H335.089C339.572 122.756 350.674 133.644 370.742 133.644C396.147 133.644 410.237 113.576 410.237 80.2716C410.237 47.8214 396.787 27.967 370.955 27.967C351.314 27.967 339.786 38.6414 335.089 58.9228H334.662V0Z" fill="black"/>
<path d="M229.801 71.5203C229.801 57.2166 238.767 48.6771 253.498 48.6771C269.083 48.6771 274.42 59.3515 274.42 71.5203V130.87H297.477V65.5427C297.477 43.7669 288.297 27.9688 264.172 27.9688C247.307 27.9688 234.498 36.7218 230.014 58.0706H229.801V30.5306H206.744V130.87H229.801V71.5203Z" fill="black"/>
<path d="M191.677 17.0791V0H166.699V17.0791H191.677ZM190.823 130.868V30.5288H167.767V130.868H190.823Z" fill="black"/>
<path d="M102.314 114.218C89.2907 114.218 84.8075 107.814 84.8075 100.769C84.8075 93.9369 90.7852 89.8806 101.887 89.8806H128.359V93.0829C128.359 105.252 118.112 114.218 102.314 114.218ZM128.359 130.87H151.202V68.5318C151.202 42.9132 138.82 28.396 109.786 28.396C81.3917 28.396 68.1554 42.2727 65.1666 64.689L87.1559 67.6778C89.5042 53.1606 96.5493 47.6099 108.932 47.6099C122.808 47.6099 128.359 55.082 128.359 68.7453V72.8015H98.4707C73.2791 72.8015 62.1777 86.0378 62.1777 104.398C62.1777 123.612 75.2005 133.005 93.774 133.005C111.067 133.005 123.235 123.612 127.932 105.679H128.359V130.87Z" fill="black"/>
<path d="M24.0235 129.345V78.5346C24.0235 61.0286 31.0686 54.8375 49.0017 54.8375H58.8221V29.0054H53.0579C37.9003 29.0054 28.9338 35.837 24.4505 61.8826H24.0235V29.0054H0.966797V129.345H24.0235Z" fill="black"/>
</svg>
