<svg width="12" height="12" viewBox="0 0 12 12" fill="none" xmlns="http://www.w3.org/2000/svg">
<g clip-path="url(#clip0_417_53855)">
<g clip-path="url(#clip1_417_53855)">
<path fill-rule="evenodd" clip-rule="evenodd" d="M10 12C11.1 12 12 11.1 12 10V2C12 0.9 11.1 0 10 0H2C0.9 0 0 0.9 0 2V10C0 11.1 0.9 12 2 12H10ZM6.66368 2.6084H3.26172V9.6084H6.4774C6.92838 9.6084 7.31662 9.55742 7.64407 9.45546C7.97152 9.3535 8.23819 9.21624 8.44799 9.04369C8.6578 8.87114 8.81074 8.66526 8.90878 8.42605C9.00682 8.18879 9.05584 7.93193 9.05584 7.65742C9.05584 7.17899 8.94407 6.78291 8.7225 6.46526C8.50093 6.14958 8.17348 5.94565 7.74211 5.8535V5.83389C8.06368 5.69663 8.31074 5.50056 8.48329 5.24958C8.65584 4.99859 8.74211 4.69663 8.74211 4.34369C8.74211 3.76134 8.55191 3.32801 8.17348 3.03977C7.79505 2.75154 7.29113 2.6084 6.66368 2.6084ZM6.48721 5.53977H4.48721V3.60644H6.48721C6.82054 3.60644 7.07544 3.67899 7.25191 3.82212C7.42838 3.96526 7.51662 4.21428 7.51662 4.56722C7.51662 4.88095 7.41858 5.12016 7.2225 5.28879C7.02642 5.45742 6.78133 5.53977 6.48721 5.53977ZM6.65387 8.6084H4.48721V6.42016H6.65387C7.02642 6.42016 7.3127 6.51036 7.52054 6.69859C7.72838 6.88683 7.83035 7.15154 7.83035 7.49859C7.83035 7.85154 7.72642 8.12605 7.52054 8.3182C7.31662 8.51232 7.02642 8.6084 6.65387 8.6084Z" fill="#111111"/>
</g>
</g>
<defs>
<clipPath id="clip0_417_53855">
<rect width="12" height="12" fill="white"/>
</clipPath>
<clipPath id="clip1_417_53855">
<rect width="12" height="12" fill="white"/>
</clipPath>
</defs>
</svg>
