<svg width="12" height="12" viewBox="0 0 12 12" fill="none" xmlns="http://www.w3.org/2000/svg">
<path fill-rule="evenodd" clip-rule="evenodd" d="M2.45901 1.00001L9.54098 1C10.8991 0.999997 12 2.04314 12 3.32992V5.67008C12 6.95686 10.8991 8 9.54098 8H8.86885V10.534C8.86885 10.7225 8.74903 10.8924 8.56525 10.9645C8.38148 11.0366 8.16995 10.9968 8.02929 10.8635L3.81271 8H2.45901C1.10094 8 0 6.95686 0 5.67008L4.76837e-07 3.32993C4.76837e-07 2.04316 1.10094 1.00002 2.45901 1.00001ZM9.54098 1.93197L2.45901 1.93198C1.64417 1.93198 0.983607 2.55787 0.983607 3.32993L0.983607 5.67008C0.983607 6.44215 1.64417 7.06803 2.45901 7.06803H4.01642C4.14685 7.06803 4.27194 7.11713 4.36417 7.20452L7.88525 9.5V7.53402C7.88525 7.27666 8.10543 7.06803 8.37705 7.06803H9.54098C10.3558 7.06803 11.0164 6.44215 11.0164 5.67008V3.32992C11.0164 2.55785 10.3558 1.93197 9.54098 1.93197Z" fill="#111111"/>
</svg>
