<svg width="12" height="12" viewBox="0 0 12 12" fill="none" xmlns="http://www.w3.org/2000/svg">
<path d="M2.41788 7.21733L3.2997 4.69464H3.31866L4.17203 7.21733H2.41788ZM2.56011 3L0 9.87483H1.49814L2.02912 8.34388H4.56079L5.07281 9.87483H6.61836L4.0867 3H2.56011Z" fill="#111111"/>
<path d="M10.6536 7.39065C10.6536 7.59606 10.6314 7.79505 10.5872 7.98762C10.5429 8.18019 10.4734 8.3503 10.3786 8.49794C10.2838 8.64558 10.1637 8.76433 10.0183 8.8542C9.87922 8.93764 9.70854 8.97937 9.50626 8.97937C9.3103 8.97937 9.13963 8.93764 8.99424 8.8542C8.84885 8.76433 8.72875 8.64558 8.63393 8.49794C8.53911 8.3503 8.46958 8.18019 8.42533 7.98762C8.38108 7.79505 8.35895 7.59606 8.35895 7.39065C8.35895 7.17882 8.38108 6.97662 8.42533 6.78404C8.46958 6.59147 8.53911 6.42137 8.63393 6.27373C8.72875 6.12609 8.84885 6.01055 8.99424 5.9271C9.13963 5.83723 9.3103 5.7923 9.50626 5.7923C9.70854 5.7923 9.87922 5.83723 10.0183 5.9271C10.1637 6.01055 10.2838 6.12609 10.3786 6.27373C10.4734 6.42137 10.5429 6.59147 10.5872 6.78404C10.6314 6.97662 10.6536 7.17882 10.6536 7.39065ZM7.05993 3V9.87483H8.33999V9.23934H8.35895C8.50434 9.51536 8.71927 9.71114 9.00372 9.82668C9.28818 9.94223 9.61056 10 9.97088 10C10.2174 10 10.4608 9.94865 10.701 9.84594C10.9412 9.74324 11.1561 9.58597 11.3457 9.37414C11.5417 9.16231 11.6997 8.89271 11.8198 8.56534C11.9399 8.23155 12 7.83677 12 7.38102C12 6.92526 11.9399 6.5337 11.8198 6.20633C11.6997 5.87254 11.5417 5.59973 11.3457 5.3879C11.1561 5.17607 10.9412 5.0188 10.701 4.91609C10.4608 4.81339 10.2174 4.76204 9.97088 4.76204C9.66745 4.76204 9.37352 4.82302 9.08906 4.94498C8.81092 5.06052 8.58968 5.24668 8.42533 5.50344H8.40636V3H7.05993Z" fill="#111111"/>
</svg>
