<svg width="12" height="12" viewBox="0 0 12 12" fill="none" xmlns="http://www.w3.org/2000/svg">
<path fill-rule="evenodd" clip-rule="evenodd" d="M4.66309 0.775879V0H3.68066C3.50293 0 3.3252 0.0388184 3.14722 0.116455C2.96948 0.185303 2.81055 0.292969 2.67017 0.439697C2.52051 0.577637 2.39868 0.754395 2.30518 0.969727C2.21167 1.17676 2.16479 1.41797 2.16479 1.69385V4.03442C2.16479 4.25854 2.13208 4.46118 2.06665 4.64209C2.00122 4.83203 1.91699 4.99146 1.81396 5.12061C1.70166 5.25854 1.57544 5.36206 1.43506 5.43115C1.29468 5.50854 1.14966 5.54736 1 5.54736V6.42676C1.14966 6.42676 1.29468 6.46118 1.43506 6.53027C1.57544 6.59912 1.70166 6.69824 1.81396 6.82764C1.91699 6.96558 2.00122 7.12939 2.06665 7.31885C2.13208 7.50854 2.16479 7.71973 2.16479 7.95264V10.3062C2.16479 10.582 2.21167 10.8232 2.30518 11.0303C2.39868 11.2456 2.52051 11.4224 2.67017 11.5603C2.81055 11.707 2.96948 11.8147 3.14722 11.8835C3.3252 11.9612 3.50293 12 3.68066 12H4.66309V11.2241H3.96143C3.82104 11.2241 3.70874 11.1897 3.62451 11.1206C3.54028 11.0603 3.47485 10.9741 3.42798 10.8621C3.37183 10.7585 3.33447 10.6379 3.31567 10.5C3.29712 10.3706 3.2876 10.2329 3.2876 10.0862V7.74561C3.2876 7.41797 3.24097 7.14648 3.14722 6.93115C3.04443 6.71558 2.92749 6.53882 2.79639 6.40088C2.66553 6.27148 2.53442 6.17676 2.40356 6.11646C2.26318 6.05615 2.15088 6.02148 2.06665 6.01294V5.97412C2.15088 5.95703 2.26318 5.91382 2.40356 5.84473C2.53442 5.77588 2.66553 5.67236 2.79639 5.53442C2.92749 5.39648 3.04443 5.21973 3.14722 5.00439C3.24097 4.79736 3.2876 4.54297 3.2876 4.24146V1.88794C3.2876 1.75 3.29712 1.61646 3.31567 1.48706C3.33447 1.34912 3.37183 1.22852 3.42798 1.125C3.47485 1.02148 3.54028 0.939697 3.62451 0.879395C3.70874 0.810303 3.82104 0.775879 3.96143 0.775879H4.66309ZM7.33691 11.2241V12H8.31934C8.49707 12 8.6748 11.9612 8.85278 11.8835C9.03052 11.8147 9.18945 11.707 9.32983 11.5603C9.47949 11.4224 9.60132 11.2456 9.69482 11.0303C9.78833 10.8232 9.83521 10.582 9.83521 10.3062V7.96558C9.83521 7.74146 9.86792 7.53882 9.93335 7.35791C9.99878 7.16797 10.083 7.00854 10.186 6.87939C10.2983 6.74146 10.4246 6.63794 10.5649 6.56885C10.7053 6.49146 10.8503 6.45264 11 6.45264V5.57324C10.8503 5.57324 10.7053 5.53882 10.5649 5.46973C10.4246 5.40088 10.2983 5.30176 10.186 5.17236C10.083 5.03442 9.99878 4.87061 9.93335 4.68115C9.86792 4.49146 9.83521 4.28027 9.83521 4.04736V1.69385C9.83521 1.41797 9.78833 1.17676 9.69482 0.969727C9.60132 0.754395 9.47949 0.577637 9.32983 0.439697C9.18945 0.292969 9.03052 0.185303 8.85278 0.116455C8.6748 0.0388184 8.49707 0 8.31934 0H7.33691V0.775879H8.03857C8.17896 0.775879 8.29126 0.810303 8.37549 0.879395C8.45972 0.939697 8.52515 1.02588 8.57202 1.13794C8.62817 1.24146 8.66553 1.36206 8.68433 1.5C8.70288 1.62939 8.7124 1.76709 8.7124 1.91382V4.25439C8.7124 4.58203 8.75903 4.85352 8.85278 5.06885C8.95557 5.28442 9.07251 5.46118 9.20361 5.59912C9.33447 5.72852 9.46558 5.82324 9.59644 5.88354C9.73682 5.94385 9.84912 5.97852 9.93335 5.98706V6.02588C9.84912 6.04297 9.73682 6.08618 9.59644 6.15527C9.46558 6.22412 9.33447 6.32764 9.20361 6.46558C9.07251 6.60352 8.95557 6.78027 8.85278 6.99561C8.75903 7.20264 8.7124 7.45703 8.7124 7.75854V10.1121C8.7124 10.25 8.70288 10.3835 8.68433 10.5129C8.66553 10.6509 8.62817 10.7715 8.57202 10.875C8.52515 10.9785 8.45972 11.0603 8.37549 11.1206C8.29126 11.1897 8.17896 11.2241 8.03857 11.2241H7.33691Z" fill="#111111"/>
</svg>
