<svg width="12" height="12" viewBox="0 0 12 12" fill="none" xmlns="http://www.w3.org/2000/svg">
<path d="M2 6L2.705 6.705L5.5 3.915L5.5 10H6.5L6.5 3.915L9.29 6.71L10 6L6 2L2 6Z" fill="#111111"/>
<path fill-rule="evenodd" clip-rule="evenodd" d="M2.32261e-06 2.5L2.36632e-06 1.5H0.500002L0.500002 2.5H2.32261e-06ZM2.41003e-06 0.5L2.43189e-06 0L0.500002 2.1857e-08L0.500002 0.5H2.41003e-06ZM2.5 1.09278e-07L1.5 6.55709e-08V0.5L2.5 0.5V1.09278e-07ZM3.5 1.52992e-07V0.5L4.5 0.500001V1.15038e-06L3.5 1.52992e-07ZM5.5 1.19409e-06V0.500001L6.5 0.500001V1.2378e-06L5.5 1.19409e-06ZM7.5 1.28151e-06V0.500001H8.5V1.32522e-06L7.5 1.28151e-06ZM9.5 1.36894e-06V0.500001L10.5 0.500001V1.41265e-06L9.5 1.36894e-06ZM11.5 2.41003e-06V0.500002L12 0.500002L12 2.43189e-06L11.5 2.41003e-06ZM12 1.5H11.5V2.5H12V1.5ZM12 3.5H11.5V4.5H12V3.5ZM12 5.5H11.5L11.5 6.5H12L12 5.5ZM12 7.5H11.5V8.5H12V7.5ZM12 9.5H11.5V10.5H12V9.5ZM12 11.5H11.5L11.5 12H12V11.5ZM10.5 12L10.5 11.5H9.5L9.5 12H10.5ZM8.5 12L8.5 11.5H7.5V12H8.5ZM6.5 12V11.5H5.5V12H6.5ZM4.5 12V11.5H3.5V12H4.5ZM2.5 12V11.5H1.5V12H2.5ZM0.5 12V11.5H2.1857e-08L0 12H0.5ZM1.01924e-06 10.5H0.500001L0.500001 9.5H1.06296e-06L1.01924e-06 10.5ZM1.10667e-06 8.5H0.500001V7.5H1.15038e-06L1.10667e-06 8.5ZM1.19409e-06 6.5H0.500001L0.500001 5.5H1.2378e-06L1.19409e-06 6.5ZM1.28151e-06 4.5H0.500001L0.500002 3.5H2.2789e-06L1.28151e-06 4.5Z" fill="#111111"/>
</svg>
