<svg width="12" height="12" viewBox="0 0 12 12" fill="none" xmlns="http://www.w3.org/2000/svg">
<path d="M10 6.5H2C1.725 6.5 1.5 6.725 1.5 7V10C1.5 10.275 1.725 10.5 2 10.5H10C10.275 10.5 10.5 10.275 10.5 10V7C10.5 6.725 10.275 6.5 10 6.5ZM3.5 9.5C2.95 9.5 2.5 9.05 2.5 8.5C2.5 7.95 2.95 7.5 3.5 7.5C4.05 7.5 4.5 7.95 4.5 8.5C4.5 9.05 4.05 9.5 3.5 9.5ZM10 1.5H2C1.725 1.5 1.5 1.725 1.5 2V5C1.5 5.275 1.725 5.5 2 5.5H10C10.275 5.5 10.5 5.275 10.5 5V2C10.5 1.725 10.275 1.5 10 1.5ZM3.5 4.5C2.95 4.5 2.5 4.05 2.5 3.5C2.5 2.95 2.95 2.5 3.5 2.5C4.05 2.5 4.5 2.95 4.5 3.5C4.5 4.05 4.05 4.5 3.5 4.5Z" fill="#111111"/>
</svg>
