<svg width="12" height="12" viewBox="0 0 12 12" fill="none" xmlns="http://www.w3.org/2000/svg">
<path fill-rule="evenodd" clip-rule="evenodd" d="M1.55741 1L0.814978 1.73484L2.19746 3.10317C1.25304 3.8015 0.510605 4.75246 0.0718171 5.85471L0 6.03482L0.0718171 6.21493C1.0035 8.55487 3.30383 10.2152 5.99988 10.2152C6.98773 10.2152 7.92244 9.99236 8.75622 9.59469L10.1759 11L10.9184 10.2652L9.68912 9.0486C10.6875 8.34403 11.4719 7.36089 11.9282 6.21493L12 6.03482L11.9282 5.85471C10.9965 3.51477 8.69617 1.85443 5.99988 1.85443C4.95999 1.85443 3.97881 2.10177 3.11252 2.53931L1.55741 1ZM2.90883 3.80726C2.1089 4.36583 1.46934 5.13573 1.07216 6.03482C1.90339 7.91706 3.79684 9.23159 5.99988 9.23159C6.70786 9.23159 7.38381 9.09615 8.00287 8.84929L6.92113 7.77825C6.64575 7.9209 6.33228 8.00207 5.99988 8.00207C4.90224 8.00207 4.01229 7.12122 4.01229 6.03482C4.01229 5.70583 4.09381 5.39556 4.23818 5.12324L2.90883 3.80726ZM4.95392 4.36151L3.85883 3.27799C4.51489 2.9951 5.23888 2.83805 5.99988 2.83805C8.20292 2.83805 10.0964 4.15259 10.9278 6.03482C10.5115 6.97714 9.82899 7.77729 8.97471 8.34115L7.69025 7.07031C7.87865 6.76966 7.98746 6.41473 7.98746 6.03482C7.98746 4.94842 7.09752 4.06758 5.99988 4.06758C5.61617 4.06758 5.25781 4.17516 4.95392 4.36151Z" fill="#111111"/>
</svg>
