
<svg width="12" height="12" viewBox="0 0 12 12" fill="none" xmlns="http://www.w3.org/2000/svg">
<g clip-path="url(#clip0_5671_865)">
<path fill-rule="evenodd" clip-rule="evenodd" d="M6 11C8.76142 11 11 8.76142 11 6C11 3.23858 8.76142 1 6 1C3.23858 1 1 3.23858 1 6C1 8.76142 3.23858 11 6 11ZM6 12C9.31371 12 12 9.31371 12 6C12 2.68629 9.31371 0 6 0C2.68629 0 0 2.68629 0 6C0 9.31371 2.68629 12 6 12Z" fill="#111111"/>
<path fill-rule="evenodd" clip-rule="evenodd" d="M3.5 6C3.5 7.38071 4.61929 8.5 6 8.5C7.38071 8.5 8.5 7.38071 8.5 6H9.5C9.5 7.933 7.933 9.5 6 9.5C4.067 9.5 2.5 7.933 2.5 6H3.5Z" fill="#111111"/>
<path d="M8 4.75C8 5.16421 7.66421 5.5 7.25 5.5C6.83579 5.5 6.5 5.16421 6.5 4.75C6.5 4.33579 6.83579 4 7.25 4C7.66421 4 8 4.33579 8 4.75Z" fill="#111111"/>
<path d="M5.5 4.75C5.5 5.16421 5.16421 5.5 4.75 5.5C4.33579 5.5 4 5.16421 4 4.75C4 4.33579 4.33579 4 4.75 4C5.16421 4 5.5 4.33579 5.5 4.75Z" fill="#111111"/>
</g>
<defs>
<clipPath id="clip0_5671_865">
<rect width="12" height="12" fill="white"/>
</clipPath>
</defs>
</svg>
