<svg width="12" height="12" viewBox="0 0 12 12" fill="none" xmlns="http://www.w3.org/2000/svg">
<path fill-rule="evenodd" clip-rule="evenodd" d="M3 3.5V8.5C3 8.77614 3.22386 9 3.5 9C3.77614 9 4 8.77614 4 8.5V3.5C4 3.22386 3.77614 3 3.5 3C3.22386 3 3 3.22386 3 3.5ZM2 8.5C2 9.32843 2.67157 10 3.5 10C4.32843 10 5 9.32843 5 8.5V3.5C5 2.67157 4.32843 2 3.5 2C2.67157 2 2 2.67157 2 3.5L2 8.5Z" fill="#333333"/>
<path fill-rule="evenodd" clip-rule="evenodd" d="M8 3.5L8 8.5C8 8.77614 8.22386 9 8.5 9C8.77614 9 9 8.77614 9 8.5V3.5C9 3.22386 8.77614 3 8.5 3C8.22386 3 8 3.22386 8 3.5ZM7 8.5C7 9.32843 7.67157 10 8.5 10C9.32843 10 10 9.32843 10 8.5V3.5C10 2.67157 9.32843 2 8.5 2C7.67157 2 7 2.67157 7 3.5L7 8.5Z" fill="#333333"/>
<path fill-rule="evenodd" clip-rule="evenodd" d="M2.5 12H1.5V11.5H2.5V12ZM0.5 12H0L0 11.5H0.5V12ZM0 9.5L0 10.5H0.5V9.5H0ZM0 8.5H0.5L0.500001 7.5H9.53674e-07L0 8.5ZM9.53674e-07 6.5H0.500001V5.5H9.53674e-07V6.5ZM9.53674e-07 4.5H0.500001V3.5H9.53674e-07V4.5ZM9.53674e-07 2.5H0.500001V1.5H9.53674e-07V2.5ZM1.90735e-06 0.5H0.500002V1.19209e-07L1.90735e-06 0V0.5ZM1.5 2.38419e-07V0.5L2.5 0.5V3.57628e-07L1.5 2.38419e-07ZM3.5 4.76837e-07V0.5L4.5 0.500001V5.96046e-07L3.5 4.76837e-07ZM5.5 7.15256e-07V0.500001L6.5 0.500001V8.34465e-07L5.5 7.15256e-07ZM7.5 9.53674e-07V0.500001L8.5 0.500001V1.07288e-06L7.5 9.53674e-07ZM9.5 1.19209e-06V0.500001L10.5 0.500001V1.43051e-06L9.5 1.19209e-06ZM11.5 1.54972e-06V0.500001L12 0.500002V1.54972e-06H11.5ZM12 1.5H11.5V2.5L12 2.5V1.5ZM12 3.5L11.5 3.5V4.5H12V3.5ZM12 5.5H11.5V6.5H12V5.5ZM12 7.5H11.5V8.5H12V7.5ZM12 9.5H11.5V10.5H12V9.5ZM12 11.5H11.5V12H12V11.5ZM10.5 12V11.5H9.5V12H10.5ZM8.5 12V11.5H7.5V12H8.5ZM6.5 12V11.5H5.5V12H6.5ZM4.5 12V11.5L3.5 11.5V12L4.5 12Z" fill="#333333"/>
</svg>
