<svg width="12" height="12" viewBox="0 0 12 12" fill="none" xmlns="http://www.w3.org/2000/svg">
<path d="M0.157534 6.42779C0.177226 6.10683 0.259275 5.84044 0.403681 5.62861C0.548087 5.41678 0.731877 5.24668 0.95505 5.11829C1.17822 4.98991 1.42765 4.90005 1.70334 4.84869C1.98559 4.79092 2.26783 4.76204 2.55008 4.76204C2.80608 4.76204 3.06535 4.78129 3.32791 4.81981C3.59046 4.8519 3.83005 4.9193 4.04666 5.02201C4.26327 5.12471 4.44049 5.26914 4.57833 5.4553C4.71618 5.63503 4.7851 5.87575 4.7851 6.17744V8.76754C4.7851 8.99221 4.79822 9.20724 4.82448 9.41265C4.85074 9.61806 4.89668 9.77212 4.96232 9.87483H3.54452C3.51826 9.7978 3.49529 9.72077 3.4756 9.64374C3.46247 9.56029 3.45262 9.47685 3.44606 9.3934C3.22288 9.61807 2.96033 9.77533 2.65839 9.8652C2.35645 9.95507 2.04794 10 1.73287 10C1.49001 10 1.26355 9.97111 1.05351 9.91334C0.843464 9.85557 0.659674 9.7657 0.50214 9.64374C0.344606 9.52178 0.219891 9.36772 0.127996 9.18157C0.0426655 8.99542 0 8.77396 0 8.51719C0 8.23476 0.0492294 8.00367 0.147688 7.82393C0.252711 7.63778 0.383989 7.49014 0.541523 7.38102C0.705621 7.27189 0.889411 7.19166 1.09289 7.1403C1.30294 7.08253 1.51298 7.0376 1.72303 7.0055C1.93307 6.97341 2.13984 6.94773 2.34332 6.92847C2.5468 6.90922 2.72731 6.88033 2.88484 6.84182C3.04238 6.8033 3.16709 6.74874 3.25899 6.67813C3.35088 6.6011 3.39355 6.49198 3.38698 6.35076C3.38698 6.20312 3.36073 6.08757 3.30822 6.00413C3.26227 5.91426 3.19663 5.84686 3.1113 5.80193C3.03253 5.75057 2.93735 5.71848 2.82577 5.70564C2.72074 5.68638 2.60588 5.67675 2.48116 5.67675C2.20548 5.67675 1.98887 5.73453 1.83133 5.85007C1.6738 5.96561 1.5819 6.15818 1.55565 6.42779H0.157534ZM3.38698 7.43879C3.32791 7.49014 3.25242 7.53187 3.16053 7.56396C3.0752 7.58964 2.98002 7.6121 2.875 7.63136C2.77654 7.65062 2.67152 7.66667 2.55993 7.6795C2.44834 7.69234 2.33676 7.70839 2.22517 7.72765C2.12015 7.74691 2.01512 7.77258 1.9101 7.80468C1.81164 7.83677 1.72303 7.88171 1.64426 7.93948C1.57206 7.99083 1.51298 8.05823 1.46704 8.14168C1.42109 8.22513 1.39811 8.33104 1.39811 8.45942C1.39811 8.58139 1.42109 8.68409 1.46704 8.76754C1.51298 8.85099 1.57534 8.91839 1.65411 8.96974C1.73287 9.01467 1.82477 9.04677 1.92979 9.06602C2.03482 9.08528 2.14312 9.09491 2.25471 9.09491C2.53039 9.09491 2.74372 9.04998 2.89469 8.96011C3.04566 8.87024 3.15725 8.76433 3.22945 8.64237C3.30165 8.51398 3.34432 8.3856 3.35744 8.25722C3.37714 8.12884 3.38698 8.02613 3.38698 7.94911V7.43879Z" fill="#111111"/>
<path d="M9.60189 7.39065C9.60189 7.59606 9.57891 7.79505 9.53296 7.98762C9.48702 8.18019 9.41481 8.3503 9.31635 8.49794C9.2179 8.64558 9.09318 8.76433 8.94221 8.8542C8.79781 8.93764 8.62058 8.97937 8.41053 8.97937C8.20705 8.97937 8.02983 8.93764 7.87886 8.8542C7.72789 8.76433 7.60317 8.64558 7.50471 8.49794C7.40625 8.3503 7.33405 8.18019 7.2881 7.98762C7.24216 7.79505 7.21918 7.59606 7.21918 7.39065C7.21918 7.17882 7.24216 6.97662 7.2881 6.78404C7.33405 6.59147 7.40625 6.42137 7.50471 6.27373C7.60317 6.12609 7.72789 6.01055 7.87886 5.9271C8.02983 5.83723 8.20705 5.7923 8.41053 5.7923C8.62058 5.7923 8.79781 5.83723 8.94221 5.9271C9.09318 6.01055 9.2179 6.12609 9.31635 6.27373C9.41481 6.42137 9.48702 6.59147 9.53296 6.78404C9.57891 6.97662 9.60189 7.17882 9.60189 7.39065ZM5.8703 3V9.87483H7.19949V9.23934H7.21918C7.37015 9.51536 7.59333 9.71114 7.8887 9.82668C8.18408 9.94223 8.51884 10 8.89298 10C9.14898 10 9.40169 9.94865 9.65112 9.84594C9.90054 9.74324 10.1237 9.58597 10.3206 9.37414C10.5241 9.16231 10.6882 8.89271 10.8129 8.56534C10.9376 8.23155 11 7.83677 11 7.38102C11 6.92526 10.9376 6.5337 10.8129 6.20633C10.6882 5.87254 10.5241 5.59973 10.3206 5.3879C10.1237 5.17607 9.90054 5.0188 9.65112 4.91609C9.40169 4.81339 9.14898 4.76204 8.89298 4.76204C8.57791 4.76204 8.27269 4.82302 7.97732 4.94498C7.6885 5.06052 7.45877 5.24668 7.2881 5.50344H7.26841V3H5.8703Z" fill="#111111"/>
</svg>
