<svg width="12" height="12" viewBox="0 0 12 12" fill="none" xmlns="http://www.w3.org/2000/svg">
<path d="M4.99999 12L4.99999 0L3.99999 0L3.99999 12H4.99999Z" fill="#111111"/>
<path d="M6.99999 4.37114e-07L6.99999 12L7.99999 12L7.99999 4.37114e-07L6.99999 4.37114e-07Z" fill="#111111"/>
<path d="M0.353516 6.20709L2.35352 8.20709L3.06055 7.5L1.41406 5.85355L3.06055 4.20709L2.35352 3.5L0.353516 5.5L5.11734e-07 5.85355L0.353516 6.20709Z" fill="#111111"/>
<path d="M11.6465 6.20709L9.64648 8.20709L8.93945 7.5L10.5859 5.85355L8.93945 4.20709L9.64648 3.5L11.6465 5.5L12 5.85355L11.6465 6.20709Z" fill="#111111"/>
</svg>
