<svg width="12" height="12" viewBox="0 0 12 12" fill="none" xmlns="http://www.w3.org/2000/svg">
<path fill-rule="evenodd" clip-rule="evenodd" d="M10.5 4.58975e-07L9.5 4.15261e-07V1L10.5 1V4.58975e-07ZM11 0.5V4.80824e-07L12 5.24538e-07V1H11.5V0.5H11ZM12 1.5V2.5H11V1.5H12ZM5.24538e-07 0L1 4.3714e-08V0.5L0.5 0.5V1H4.80824e-07L5.24538e-07 0ZM1 11.5V12H0L4.37103e-08 11H0.5L0.5 11.5H1ZM12 12H11V11.5H11.5V11H12V12ZM11 4.5V3.5H12V4.5H11ZM11 6.5V5.5H12V6.5H11ZM11 8.5V7.5H12V8.5H11ZM11 10.5V9.5H12V10.5H11ZM10.5 11V12H9.5V11H10.5ZM8.5 11V12H7.5V11H8.5ZM6.5 11V12H5.5V11H6.5ZM4.5 11V12H3.5V11H4.5ZM2.5 11V12H1.5V11H2.5ZM1 7.5L1 8.5H1.52988e-07L1.96702e-07 7.5H1ZM1 5.5V6.5H2.40412e-07L2.84123e-07 5.5H1ZM1 10.5H6.55673e-08L1.09278e-07 9.5H1V10.5ZM1 4.5H3.27836e-07L3.71547e-07 3.5H1V4.5ZM1 2.5H4.15257e-07L4.58967e-07 1.5H1L1 2.5ZM2.5 1H1.5V6.55709e-08L2.5 1.09278e-07V1ZM4.5 1L3.5 1V1.52992e-07L4.5 1.96706e-07V1ZM6.5 1H5.5V2.40412e-07L6.5 2.84126e-07V1ZM8.5 1H7.5V3.2784e-07L8.5 3.71547e-07V1ZM8 3L9 3V9H8V3Z" fill="#111111"/>
</svg>
