<svg width="12" height="12" viewBox="0 0 12 12" fill="none" xmlns="http://www.w3.org/2000/svg">
<g clip-path="url(#clip0_417_59669)">
<path d="M3.31 5.395C4.03 6.81 5.19 7.965 6.605 8.69L7.705 7.59C7.84 7.455 8.04 7.41 8.215 7.47C8.775 7.655 9.38 7.755 10 7.755C10.275 7.755 10.5 7.98 10.5 8.255V10C10.5 10.275 10.275 10.5 10 10.5C5.305 10.5 1.5 6.695 1.5 2C1.5 1.725 1.725 1.5 2 1.5H3.75C4.025 1.5 4.25 1.725 4.25 2C4.25 2.625 4.35 3.225 4.535 3.785C4.59 3.96 4.55 4.155 4.41 4.295L3.31 5.395Z" fill="#111111"/>
</g>
<defs>
<clipPath id="clip0_417_59669">
<rect width="12" height="12" fill="white"/>
</clipPath>
</defs>
</svg>
