<svg width="12" height="12" viewBox="0 0 12 12" fill="none" xmlns="http://www.w3.org/2000/svg">
<path fill-rule="evenodd" clip-rule="evenodd" d="M0 2.5C0 1.11929 1.11929 0 2.5 0H4.09091V0.909091H2.5C1.62137 0.909091 0.909091 1.62137 0.909091 2.5V4.09091H0V2.5ZM7.90909 0H9.5C10.8807 0 12 1.11929 12 2.5V4.09091H11.0909V2.5C11.0909 1.62137 10.3786 0.909091 9.5 0.909091H7.90909V0ZM0.909091 7.90909V9.5C0.909091 10.3786 1.62137 11.0909 2.5 11.0909H4.09091V12H2.5C1.11929 12 0 10.8807 0 9.5V7.90909H0.909091ZM12 7.90909V9.5C12 10.8807 10.8807 12 9.5 12H7.90909V11.0909H9.5C10.3786 11.0909 11.0909 10.3786 11.0909 9.5V7.90909H12Z" fill="#111111"/>
</svg>
