<svg width="12" height="12" viewBox="0 0 12 12" fill="none" xmlns="http://www.w3.org/2000/svg">
<path d="M8.89985 10V8.97436H5.08509C4.5133 8.97436 4.02472 8.78846 3.61935 8.41667C3.21398 8.04487 3.01129 7.5812 3.01129 7.02564C3.01129 6.47009 3.21398 6.00641 3.61935 5.63462C4.02472 5.26282 4.5133 5.07692 5.08509 5.07692H8.56702L7.22289 6.41026L7.93976 7.12821L10.5 4.5641L7.93976 2L7.22289 2.71795L8.56702 4.05128H5.09789C4.25301 4.05128 3.52548 4.33761 2.91528 4.91026C2.30509 5.48291 2 6.18803 2 7.02564C2 7.86325 2.30509 8.56838 2.91528 9.14103C3.52548 9.71368 4.25301 10 5.09789 10H8.89985Z" fill="#111111"/>
</svg>
