<svg width="12" height="12" viewBox="0 0 12 12" fill="none" xmlns="http://www.w3.org/2000/svg">
<path d="M3.60015 10V8.97436H7.41491C7.9867 8.97436 8.47528 8.78846 8.88065 8.41667C9.28602 8.04487 9.48871 7.5812 9.48871 7.02564C9.48871 6.47009 9.28602 6.00641 8.88065 5.63462C8.47528 5.26282 7.9867 5.07692 7.41491 5.07692H3.93298L5.27711 6.41026L4.56024 7.12821L2 4.5641L4.56024 2L5.27711 2.71795L3.93298 4.05128H7.40211C8.24699 4.05128 8.97452 4.33761 9.58472 4.91026C10.1949 5.48291 10.5 6.18803 10.5 7.02564C10.5 7.86325 10.1949 8.56838 9.58472 9.14103C8.97452 9.71368 8.24699 10 7.40211 10H3.60015Z" fill="#111111"/>
</svg>
