<svg width="12" height="12" viewBox="0 0 12 12" fill="none" xmlns="http://www.w3.org/2000/svg">
<path d="M7.155 1L7.36 2.24C6.935 2.085 6.48 2 6 2C5.525 2 5.065 2.085 4.645 2.235L4.85 1H7.155ZM7.36 9.76L7.155 11H4.85L4.645 9.765C5.065 9.915 5.525 10 6 10C6.48 10 6.935 9.915 7.36 9.76ZM8 0H4L3.525 2.865C2.595 3.595 2 4.725 2 6C2 7.275 2.595 8.405 3.525 9.135L4 12H8L8.48 9.135C9.405 8.405 10 7.27 10 6C10 4.73 9.405 3.595 8.48 2.865L8 0ZM6 9C4.345 9 3 7.655 3 6C3 4.345 4.345 3 6 3C7.655 3 9 4.345 9 6C9 7.655 7.655 9 6 9Z" fill="#111111"/>
</svg>
