<svg width="12" height="12" viewBox="0 0 12 12" fill="none" xmlns="http://www.w3.org/2000/svg">
<path d="M6 0C2.687 0 0 2.75442 0 6.15168C0 8.8697 1.719 11.1756 4.1035 11.9891C4.403 12.046 4.5 11.8553 4.5 11.6933V10.5481C2.831 10.9203 2.4835 9.82219 2.4835 9.82219C2.2105 9.11115 1.817 8.92199 1.817 8.92199C1.2725 8.54007 1.8585 8.54827 1.8585 8.54827C2.461 8.59134 2.778 9.18241 2.778 9.18241C3.313 10.1226 4.1815 9.85089 4.524 9.69351C4.5775 9.29622 4.733 9.02452 4.905 8.87124C3.5725 8.71488 2.1715 8.18738 2.1715 5.83077C2.1715 5.1587 2.406 4.61017 2.7895 4.17956C2.7275 4.02423 2.522 3.39829 2.848 2.55141C2.848 2.55141 3.352 2.38634 4.4985 3.18196C4.977 3.0456 5.49 2.97741 6 2.97485C6.51 2.97741 7.0235 3.0456 7.503 3.18196C8.6485 2.38634 9.1515 2.55141 9.1515 2.55141C9.478 3.3988 9.2725 4.02474 9.2105 4.17956C9.5955 4.61017 9.828 5.15921 9.828 5.83077C9.828 8.19353 8.4245 8.71386 7.0885 8.86611C7.3035 9.05681 7.5 9.43104 7.5 10.0052V11.6933C7.5 11.8569 7.596 12.0491 7.9005 11.9886C10.283 11.174 12 8.86867 12 6.15168C12 2.75442 9.3135 0 6 0Z" fill="black"/>
</svg>
