<svg width="12" height="12" viewBox="0 0 12 12" fill="none" xmlns="http://www.w3.org/2000/svg">
<g clip-path="url(#clip0_2_436)">
<path fill-rule="evenodd" clip-rule="evenodd" d="M2.125 0H9.875C11.05 0 12 0.974359 12 2.17949V9.82051C12 11.0256 11.05 12 9.875 12H2.125C0.95 12 0 11.0256 0 9.82051V2.17949C0 0.974359 0.95 0 2.125 0ZM6.31001 3.1531L4.81001 5.69156L6.41001 8.38387C6.42001 8.40438 6.42501 8.42489 6.42001 8.4454C6.41694 8.45799 6.40822 8.45706 6.39501 8.45565C6.38669 8.45476 6.3766 8.45368 6.36501 8.45566H5.22001C5.14001 8.45566 5.08501 8.45053 5.05001 8.39925C4.99751 8.29156 4.94376 8.18515 4.89001 8.07874C4.83626 7.97233 4.78251 7.86592 4.73001 7.75822C4.62501 7.54797 4.51001 7.33258 4.39001 7.11207L4.38995 7.11196C4.26997 6.89148 4.14999 6.67101 4.03001 6.4454H4.02001C3.91501 6.66591 3.80001 6.88642 3.68502 7.10693L3.68501 7.10694L3.68497 7.10702C3.56998 7.3275 3.455 7.54799 3.34501 7.76335C3.30671 7.83509 3.2684 7.9074 3.2301 7.9797L3.23 7.97988L3.22998 7.97993C3.15332 8.12464 3.07667 8.26935 3.00001 8.40951C2.98001 8.46079 2.94001 8.46592 2.88501 8.46592H1.78501C1.78014 8.46592 1.77556 8.46653 1.77143 8.46708H1.77142C1.75859 8.46879 1.75001 8.46993 1.75001 8.45053C1.74501 8.43002 1.75001 8.40951 1.76001 8.39412L3.31501 5.77874L1.80001 3.14797C1.78501 3.12745 1.78001 3.10694 1.79001 3.09668C1.80001 3.0813 1.82001 3.07617 1.84001 3.07617H2.97501C3.00001 3.07617 3.02501 3.0813 3.04501 3.08643C3.06501 3.09668 3.08001 3.11207 3.09501 3.13258C3.19001 3.3531 3.30001 3.57361 3.41501 3.79412L3.47997 3.91377C3.5771 4.09285 3.67271 4.26913 3.77501 4.4454C3.89501 4.66079 4.00501 4.87617 4.11001 5.09669H4.12001C4.22501 4.87104 4.33501 4.65053 4.44501 4.43515C4.55499 4.21979 4.66998 4.00443 4.78496 3.78907L4.785 3.78901L4.78501 3.78899C4.85308 3.66151 4.91939 3.53222 4.985 3.40433L4.98503 3.40426C5.03025 3.31611 5.07513 3.22862 5.12001 3.14284C5.12501 3.12233 5.13501 3.10181 5.15001 3.09156C5.17001 3.0813 5.19001 3.07617 5.21501 3.0813H6.27001C6.29501 3.07617 6.32001 3.09156 6.32501 3.1172C6.33001 3.12233 6.32001 3.14284 6.31001 3.1531ZM7.54581 8.33227C7.88081 8.49124 8.25081 8.56817 8.62081 8.56304C8.88081 8.56304 9.13581 8.5374 9.39081 8.49124C9.67081 8.43996 9.94581 8.35791 10.2058 8.24509C10.2408 8.2297 10.2558 8.19893 10.2558 8.16304C10.255 8.1496 10.2543 8.1358 10.2535 8.12167C10.2492 8.04412 10.2443 7.95669 10.2358 7.8656C10.2354 7.85528 10.2349 7.84504 10.2344 7.83488C10.2299 7.73409 10.2258 7.64177 10.2258 7.55791V2.67586V2.6656C10.2208 2.64509 10.2008 2.62458 10.1758 2.6297H9.16081C9.12581 2.6297 9.11081 2.65022 9.11081 2.68611V4.30663C9.08305 4.30425 9.05743 4.30298 9.03346 4.30179C9.00561 4.3004 8.97999 4.29913 8.95581 4.29637C8.91081 4.29124 8.87581 4.29124 8.85081 4.29124C8.35581 4.29124 7.93581 4.38868 7.58581 4.58868C7.25581 4.77329 6.98081 5.05022 6.79081 5.38355C6.60581 5.71175 6.51081 6.08611 6.51581 6.4656C6.51581 6.93227 6.60581 7.32201 6.79081 7.63483C6.97081 7.9374 7.23081 8.18355 7.54581 8.33227ZM9.11081 5.28099V7.5374C9.05081 7.55791 8.99581 7.56817 8.93081 7.56304C8.86581 7.56817 8.79581 7.57329 8.72081 7.57329C8.58081 7.57329 8.44081 7.55278 8.30581 7.50663C8.17581 7.4656 8.06081 7.39381 7.96581 7.3015C7.86581 7.19893 7.79081 7.07586 7.74081 6.9374C7.68081 6.76817 7.65081 6.58868 7.65581 6.40919C7.65581 6.14252 7.71081 5.92201 7.82081 5.75791C7.93081 5.59381 8.07581 5.4656 8.24581 5.37842C8.42081 5.28611 8.61581 5.24509 8.81081 5.24509C8.86581 5.24509 8.9208 5.25022 8.9758 5.25534L8.97581 5.25534C9.02081 5.26047 9.06581 5.27073 9.11081 5.28099Z" fill="black"/>
</g>
<defs>
<clipPath id="clip0_2_436">
<rect width="12" height="12" fill="white"/>
</clipPath>
</defs>
</svg>
